<?xml version="1.0" encoding="utf-8"?><svg xmlns="http://www.w3.org/2000/svg" xmlns:xlink="http://www.w3.org/1999/xlink"><symbol viewBox="0 0 477.175 477.175" id="back" xmlns="http://www.w3.org/2000/svg"><path d="M145.188 238.575l215.5-215.5c5.3-5.3 5.3-13.8 0-19.1s-13.8-5.3-19.1 0l-225.1 225.1c-5.3 5.3-5.3 13.8 0 19.1l225.1 225c2.6 2.6 6.1 4 9.5 4s6.9-1.3 9.5-4c5.3-5.3 5.3-13.8 0-19.1l-215.4-215.5z"/></symbol><symbol viewBox="0 0 424.239 424.239" id="boy" xmlns="http://www.w3.org/2000/svg"><circle cx="129.287" cy="261.896" r="14.974"/><circle cx="294.952" cy="261.896" r="14.974"/><path d="M129.287 213.875c-8.179 0-15.869 3.185-21.653 8.969a7.999 7.999 0 0 0 0 11.314 7.999 7.999 0 0 0 11.313 0 14.527 14.527 0 0 1 10.34-4.283c3.906 0 7.578 1.521 10.34 4.283a7.97 7.97 0 0 0 5.657 2.343 7.999 7.999 0 0 0 5.657-13.657c-5.785-5.783-13.475-8.969-21.654-8.969zm144.011 8.969a7.999 7.999 0 0 0 0 11.314 7.999 7.999 0 0 0 11.313 0c5.701-5.702 14.979-5.701 20.68 0 1.562 1.562 3.609 2.343 5.657 2.343s4.095-.781 5.657-2.343a7.999 7.999 0 0 0 0-11.314c-11.938-11.938-31.366-11.939-43.307 0zm-45.771 102.631a21.65 21.65 0 0 1-15.408 6.382 21.643 21.643 0 0 1-15.407-6.382 8 8 0 0 0-11.313 0 7.999 7.999 0 0 0 0 11.314c7.137 7.138 16.627 11.068 26.721 11.068 10.094 0 19.584-3.931 26.721-11.068a8 8 0 0 0-11.314-11.314z"/><path d="M400.881 254.178c0-21.731-15.71-39.851-36.366-43.63V76.715a51.555 51.555 0 0 0-23.104-43.057 51.542 51.542 0 0 0-45.711-5.686l-50.226-17.048C206.88-2.177 166.255-3.521 127.992 7.036 77.9 20.857 49.182 50.083 44.749 91.627a60.731 60.731 0 0 0-9.158 17.255l-3.896 11.531c-2.091 6.191.214 12.697 5.738 16.189 5.522 3.492 12.389 2.786 17.086-1.759a27.915 27.915 0 0 1 5.204-3.955v79.661c-20.656 3.779-36.366 21.898-36.366 43.63 0 22.601 16.991 41.296 38.868 44.014 5.494 30.336 19.931 58.319 42.006 80.712 28.821 29.236 67.135 45.336 107.888 45.336h.015c40.701-.004 78.965-15.856 107.745-44.635 22.481-22.481 37.073-50.749 42.386-81.445 21.755-2.832 38.616-21.47 38.616-43.983zM332.565 46.991c10.137 6.725 15.95 17.559 15.95 29.724v104.689c-24.831-3.859-43.897-25.383-43.897-51.279l-.662-87.96c9.769-2.575 19.956-.915 28.609 4.826zm-283.37 71.613l1.555-4.601a44.864 44.864 0 0 1 24.815-26.85 44.862 44.862 0 0 1 36.556.573c24.226 11.283 53.513 5.183 71.219-14.833l1.982-2.241a8.001 8.001 0 0 0-11.984-10.601l-1.982 2.241c-13.048 14.75-34.629 19.244-52.48 10.93a60.88 60.88 0 0 0-49.609-.777 60.976 60.976 0 0 0-4.233 2.033c9.299-24.791 31.805-42.249 67.215-52.019 35.161-9.702 72.535-8.451 108.084 3.615l47.623 16.165.624 41.337c-21.205 28.831-52.131 48.348-87.373 55.059-36.086 6.871-72.901-.4-103.663-20.474-15.032-9.807-33.982-9.388-48.349.443zm-9.838 135.574c0-12.863 8.609-23.747 20.366-27.21v43.362c0 3.746.135 7.471.398 11.172-11.959-3.333-20.764-14.316-20.764-27.324zM308.566 368.29c-25.758 25.758-60.005 39.945-96.433 39.949h-.014c-36.433 0-70.705-14.409-96.494-40.568-25.731-26.102-39.902-60.672-39.902-97.342V127.116a27.647 27.647 0 0 1 13.075 4.445c34.246 22.347 75.228 30.442 115.4 22.792 32.609-6.21 61.903-22.263 84.419-45.938v21.709c0 34.731 26.217 63.437 59.897 67.41v74.308c.001 36.434-14.186 70.687-39.948 96.448zm55.64-86.814c.198-3.194.309-6.405.309-9.633v-44.875c11.757 3.463 20.366 14.347 20.366 27.21 0 12.975-8.76 23.936-20.675 27.298z"/></symbol><symbol viewBox="0 0 512 512" id="boy_cant_read" xmlns="http://www.w3.org/2000/svg"><path d="M121.27 190.248c-5.165-2.831-11.649-.938-14.481 4.229l-.214.388c-2.831 5.166-.939 11.65 4.229 14.481a10.665 10.665 0 0 0 14.481-4.229l.214-.388c2.831-5.166.937-11.65-4.229-14.481z"/><path d="M462.628 224.163c-16.774-65.288-63.804-119.561-127.263-144.923-10.962-34.232-43.193-57.909-79.364-57.909-37.096 0-68.595 24.372-79.359 57.94-38.219 15.308-70.948 41.132-94.893 74.963-15.127 21.374-26.033 45.002-32.419 69.932C21.787 226.223 0 249.274 0 277.333c0 28.075 21.809 51.138 49.374 53.172 23.687 91.991 107.344 160.163 206.627 160.163 99.281 0 182.938-68.172 206.624-160.163C490.19 328.471 512 305.408 512 277.331c0-28.072-21.808-51.132-49.372-53.168zM21.335 277.331c0-14.719 9.993-27.148 23.549-30.864a215.103 215.103 0 0 0-1.9 19.217c-.006.09-.009.178-.014.268a207.154 207.154 0 0 0-.159 3.532c-.017.447-.026.894-.038 1.341-.026.846-.053 1.691-.069 2.538a228.338 228.338 0 0 0-.037 3.969 206.042 206.042 0 0 0 .104 6.359c.034 1.175.08 2.35.134 3.524.022.498.042.997.067 1.496.078 1.466.172 2.93.279 4.394.051.688.111 1.372.167 2.058a226.706 226.706 0 0 0 .461 4.894c.094.892.201 1.783.306 2.673.139 1.166.288 2.329.445 3.488.09.664.173 1.327.269 1.987-13.564-3.711-23.564-16.147-23.564-30.874zM256.001 42.666c21.127 0 40.45 10.85 51.728 27.833a67.684 67.684 0 0 0-.638-.003c-.138 0-.272.01-.41.011-.053.002-.107.001-.161.004-33.213.309-60.137 27.411-60.137 60.694 0 12.952 4.069 25.266 11.38 35.426a64.76 64.76 0 0 1-1.762.025c-34.183 0-61.993-27.81-61.993-61.993-.001-34.186 27.809-61.997 61.993-61.997zm191.93 239.72c-.006.26-.021.518-.029.778a198.187 198.187 0 0 1-.171 4.288c-.013.255-.033.51-.048.765a197.941 197.941 0 0 1-.283 4.281c-.022.288-.053.574-.077.862a196.701 196.701 0 0 1-.382 4.13c-.039.383-.089.764-.131 1.146-.14 1.26-.286 2.518-.45 3.775-.069.526-.147 1.049-.221 1.573-.15 1.087-.304 2.173-.475 3.256-.111.705-.231 1.405-.35 2.108-.147.877-.294 1.753-.454 2.627-.162.889-.335 1.773-.51 2.656-.13.662-.26 1.325-.398 1.986-18.179 87.091-95.545 152.716-187.953 152.716-92.476 0-169.888-65.718-187.994-152.904-.164-.79-.315-1.585-.468-2.379-.148-.758-.299-1.516-.437-2.277a195.897 195.897 0 0 1-.553-3.243c-.081-.497-.17-.993-.247-1.491-.212-1.37-.406-2.742-.59-4.117-.031-.233-.069-.465-.098-.698-.21-1.619-.402-3.243-.571-4.867l-.002-.023a193.298 193.298 0 0 1-1.04-19.999 189.396 189.396 0 0 1 .105-6.005c.031-1.014.073-2.028.121-3.042.027-.59.053-1.181.086-1.77.051-.898.115-1.796.178-2.693.111-1.55.236-3.097.383-4.64.017-.177.031-.354.048-.53 6.556-66.39 47.673-125.306 107.761-154.328 0 .113-.008.224-.008.337a83.058 83.058 0 0 0 2.985 22.056c-19.146 10.195-35.959 23.779-50.052 40.48-3.8 4.503-3.229 11.233 1.274 15.031a10.62 10.62 0 0 0 6.874 2.514c3.034 0 6.048-1.288 8.157-3.788 11.905-14.108 26.026-25.67 42.06-34.478 14.452 24.797 41.318 41.512 72.03 41.512a83.112 83.112 0 0 0 27.5-4.653 10.668 10.668 0 0 0 2.266-19.029c-11.302-7.301-18.05-19.675-18.05-33.102 0-21.271 16.957-38.644 38.063-39.341 70.854 18.957 123.549 76.248 138.148 146.074.241 1.155.476 2.312.695 3.472.114.606.219 1.216.33 1.824.17.949.337 1.9.493 2.852a190.943 190.943 0 0 1 .741 4.93c.062.447.126.894.185 1.342.406 3.118.737 6.248.992 9.384.029.359.052.721.079 1.082a190.29 190.29 0 0 1 .451 8.483c.015.445.031.89.043 1.334.038 1.564.062 3.128.062 4.69-.001 1.685-.024 3.37-.068 5.053zm19.17 25.819c.117-.806.223-1.616.331-2.425a218.8 218.8 0 0 0 .7-5.8c.075-.706.144-1.414.21-2.123.09-.929.172-1.858.249-2.787.053-.644.11-1.286.157-1.932.11-1.481.204-2.962.283-4.446.027-.478.043-.957.066-1.436.054-1.193.1-2.385.135-3.579a224.2 224.2 0 0 0 .103-6.346c0-1.407-.017-2.814-.044-4.221-.011-.511-.028-1.021-.042-1.532-.023-.883-.05-1.766-.083-2.65-.025-.628-.057-1.256-.085-1.883-.037-.76-.075-1.518-.121-2.276a208.914 208.914 0 0 0-.284-4.139c-.055-.709-.11-1.419-.173-2.126-.061-.684-.128-1.365-.195-2.048-.068-.703-.134-1.407-.209-2.11-.085-.794-.182-1.584-.277-2.377-.105-.881-.212-1.76-.328-2.638-.127-.958-.252-1.916-.391-2.871 13.566 3.71 23.564 16.144 23.564 30.869-.002 14.731-10 27.165-23.566 30.876z"/><path d="M218.055 289.68c-4.99-18.62-21.936-31.625-41.213-31.625-19.274 0-36.222 13.005-41.213 31.625-1.525 5.691 1.852 11.54 7.542 13.065 5.692 1.523 11.54-1.852 13.065-7.542 2.496-9.311 10.969-15.814 20.605-15.814 9.637 0 18.11 6.503 20.605 15.814 1.277 4.765 5.588 7.908 10.297 7.908.913 0 1.843-.118 2.768-.366 5.693-1.525 9.069-7.374 7.544-13.065zm117.106-31.625c-19.277 0-36.225 13.006-41.214 31.626-1.524 5.691 1.853 11.54 7.544 13.064 5.689 1.526 11.539-1.853 13.063-7.543 2.495-9.31 10.968-15.813 20.606-15.813 9.637 0 18.11 6.503 20.605 15.814 1.277 4.765 5.586 7.908 10.297 7.908.913 0 1.843-.118 2.768-.366 5.691-1.525 9.067-7.375 7.542-13.065-4.99-18.619-21.936-31.625-41.211-31.625zm-45.489 106.466c-5.689-1.524-11.54 1.851-13.065 7.543-2.496 9.311-10.969 15.814-20.605 15.814-9.638 0-18.111-6.503-20.605-15.814-1.525-5.691-7.374-9.068-13.065-7.543-5.691 1.525-9.067 7.374-7.542 13.065 4.99 18.622 21.936 31.626 41.213 31.626 19.275 0 36.223-13.005 41.213-31.626 1.523-5.69-1.854-11.54-7.544-13.065z"/></symbol><symbol viewBox="0 0 212.982 212.982" id="cance" xmlns="http://www.w3.org/2000/svg"><path d="M131.804 106.491l75.936-75.936c6.99-6.99 6.99-18.323 0-25.312-6.99-6.99-18.322-6.99-25.312 0L106.491 81.18 30.554 5.242c-6.99-6.99-18.322-6.99-25.312 0-6.989 6.99-6.989 18.323 0 25.312l75.937 75.936-75.937 75.937c-6.989 6.99-6.989 18.323 0 25.312 6.99 6.99 18.322 6.99 25.312 0l75.937-75.937 75.937 75.937c6.989 6.99 18.322 6.99 25.312 0 6.99-6.99 6.99-18.322 0-25.312l-75.936-75.936z" fill-rule="evenodd" clip-rule="evenodd"/></symbol><symbol viewBox="0 0 448.8 448.8" id="check-bg" xmlns="http://www.w3.org/2000/svg"><path d="M142.8 323.85L35.7 216.75 0 252.45l142.8 142.8 306-306-35.7-35.7z"/></symbol><symbol viewBox="0 0 392.652 392.652" id="curve-arrow" xmlns="http://www.w3.org/2000/svg"><path d="M334.361 186.385c-37.177-89.754-129.323-140.42-221.37-129.211l35.961-35.961L127.738 0 42.132 85.606l85.607 85.606L148.952 150 90.94 91.987c86.954-23.72 180.327 20.467 215.705 105.878 24.497 59.141 16.531 125.338-21.308 177.078l24.215 17.709c21.081-28.825 34.648-62.773 39.234-98.174 4.73-36.513-.258-73.891-14.425-108.093z"/></symbol><symbol viewBox="0 0 477.175 477.175" id="faq" xmlns="http://www.w3.org/2000/svg"><path d="M360.731 229.075l-225.1-225.1c-5.3-5.3-13.8-5.3-19.1 0s-5.3 13.8 0 19.1l215.5 215.5-215.5 215.5c-5.3 5.3-5.3 13.8 0 19.1 2.6 2.6 6.1 4 9.5 4 3.4 0 6.9-1.3 9.5-4l225.1-225.1c5.3-5.2 5.3-13.8.1-19z"/></symbol><symbol viewBox="0 0 477.175 477.175" id="gallery-back" xmlns="http://www.w3.org/2000/svg"><path d="M145.188 238.575l215.5-215.5c5.3-5.3 5.3-13.8 0-19.1s-13.8-5.3-19.1 0l-225.1 225.1c-5.3 5.3-5.3 13.8 0 19.1l225.1 225c2.6 2.6 6.1 4 9.5 4s6.9-1.3 9.5-4c5.3-5.3 5.3-13.8 0-19.1l-215.4-215.5z"/></symbol><symbol viewBox="0 0 477.175 477.175" id="gallery-next" xmlns="http://www.w3.org/2000/svg"><path d="M360.731 229.075l-225.1-225.1c-5.3-5.3-13.8-5.3-19.1 0s-5.3 13.8 0 19.1l215.5 215.5-215.5 215.5c-5.3 5.3-5.3 13.8 0 19.1 2.6 2.6 6.1 4 9.5 4 3.4 0 6.9-1.3 9.5-4l225.1-225.1c5.3-5.2 5.3-13.8.1-19z"/></symbol><symbol viewBox="0 0 421.56 421.56" id="girl" xmlns="http://www.w3.org/2000/svg"><path d="M238.465 318.516c-15.264 15.264-40.1 15.264-55.363 0a8 8 0 0 0-11.313 0 7.998 7.998 0 0 0 0 11.313c10.751 10.751 24.873 16.126 38.995 16.126 14.122 0 28.244-5.375 38.995-16.126a8 8 0 0 0-11.314-11.313z"/><path d="M391.823 397.883c-18.74-20.752-19.533-73.63-17.315-128.342 8.163-7.667 13.277-18.545 13.277-30.601 0-10.587-3.946-20.264-10.433-27.659 2.726-55.804 4.172-93.122-13.529-127.58-12.076-23.512-31.616-43.157-58.076-58.389C274.908 7.56 239.73-1.154 204.012.123c-31.374 1.118-60.583 15.735-80.725 40.26C97.279 41.93 73.62 56.084 60.891 77.96a125.177 125.177 0 0 0-3.142 5.74c-17.711 34.477-16.266 71.792-13.54 127.59-6.483 7.394-10.425 17.067-10.425 27.65 0 12.052 5.11 22.927 13.269 30.594 2.218 54.716 1.425 107.598-17.315 128.35a8 8 0 0 0 3.109 12.846c21.093 7.97 41.521 10.82 59.958 10.82 19.153 0 36.157-3.078 49.506-6.688 23.195-6.272 39.555-15.076 45.137-18.325a143.409 143.409 0 0 0 23.336 1.915c7.944 0 15.735-.662 23.33-1.914 5.583 3.25 21.942 12.052 45.135 18.324 17.807 4.815 34.315 6.698 49.249 6.698 24.877 0 45.382-5.227 60.215-10.832a7.998 7.998 0 0 0 4.947-5.602 7.997 7.997 0 0 0-1.837-7.243zm-38.039-142.43v-39.715a8.375 8.375 0 0 0 0-.317v-1.217c10.433 3.383 18 13.19 18 24.735 0 11.637-7.685 21.513-18.247 24.819.158-2.749.247-5.516.247-8.305zM71.981 91.011a109.28 109.28 0 0 1 2.739-5.004c10.537-18.109 30.69-29.513 52.594-29.762l.111-.002a8.004 8.004 0 0 0 6.183-3.131c17.265-22.521 43.134-36.007 70.974-37 32.719-1.167 64.942 6.81 93.181 23.066 23.745 13.669 41.182 31.108 51.826 51.833 14.168 27.58 14.588 57.581 12.265 109.13a41.727 41.727 0 0 0-8.07-2.429v-8.135a8 8 0 0 0-16 0v18.169c-110.199 1.177-169.855-51.902-185.773-68.509a8.001 8.001 0 0 0-13.175 2.494c-11.625 28.278-31.936 43.073-63.918 46.559a8 8 0 0 0-7.133 7.953v1.468a41.65 41.65 0 0 0-8.078 2.432c-2.324-51.537-1.901-81.537 12.274-109.132zm-3.95 172.748c-10.562-3.306-18.247-13.182-18.247-24.819 0-11.546 7.567-21.353 18-24.735v41.248c0 2.789.089 5.556.247 8.306zM48.488 399.143c14.266-24.35 16.74-64.829 14.926-120.065a41.63 41.63 0 0 0 6.574 1.452c9.099 51.227 45.568 93.105 93.695 109.943-23.147 9.96-66.957 23.158-115.195 8.67zm162.296-16.691c-70.028 0-127-56.972-127-127l.001-52.227c30.003-4.937 51.364-19.707 64.905-44.909 11.526 10.515 30.162 24.936 56.426 37.575 39.49 19.004 84.087 28.377 132.668 27.858v31.703c0 70.029-56.972 127-127 127zm73.168 17.106a189.314 189.314 0 0 1-26.096-9.075c48.142-16.83 84.624-58.715 93.725-109.953a41.652 41.652 0 0 0 6.567-1.45c-1.815 55.243.658 95.722 14.931 120.071-28.253 8.535-58.183 8.679-89.127.407z"/><path d="M115.164 231.744a7.998 7.998 0 0 0 0 11.313 8 8 0 0 0 11.313 0c5.128-5.126 13.47-5.127 18.598 0 1.562 1.562 3.609 2.343 5.657 2.343s4.095-.781 5.657-2.343a7.998 7.998 0 0 0 0-11.313c-11.365-11.366-29.86-11.367-41.225 0zm191.241 11.313a7.998 7.998 0 0 0 0-11.313c-11.366-11.366-29.86-11.366-41.225 0a7.998 7.998 0 0 0 0 11.313 8 8 0 0 0 11.313 0c5.128-5.127 13.471-5.126 18.598 0 1.562 1.562 3.609 2.343 5.657 2.343s4.095-.781 5.657-2.343z"/></symbol><symbol viewBox="0 0 512 512" id="girl_cant_read" xmlns="http://www.w3.org/2000/svg"><path d="M121.361 190.3c-5.138-2.88-11.639-1.053-14.523 4.085l-.25.45c-2.848 5.158-.975 11.647 4.184 14.494a10.67 10.67 0 0 0 14.495-4.184l.179-.322c2.881-5.139 1.053-11.64-4.085-14.523z"/><path d="M462.644 224.163a212.113 212.113 0 0 0-27.441-62.617c-20.409-31.521-48.606-57.008-81.856-74.079.954-2.268 2.85-4.736 5.574-8.137 3.04-3.795 6.485-8.096 9.201-13.629 3.856-7.855 5.162-20.89-1.084-30.946-3.786-6.095-11.71-13.373-27.956-13.422l-.598-.001c-45.975 0-69.111 16.401-80.742 32.423a37.17 37.17 0 0 0-1.74-.045c-.586 0-1.165.017-1.744.045-11.632-16.023-34.763-32.423-80.74-32.423l-.597.001c-16.252.049-24.175 7.326-27.961 13.423-6.245 10.056-4.936 23.091-1.08 30.944 2.715 5.532 6.159 9.833 9.198 13.628 2.744 3.425 4.648 5.904 5.594 8.185-.995.478-1.807.88-2.425 1.208-53.96 28.592-92.17 78.035-106.886 135.441C21.803 226.203 0 249.262 0 277.334c0 28.074 21.809 51.135 49.374 53.17C73.059 422.497 156.717 490.669 256 490.669s182.941-68.172 206.628-160.164C490.191 328.469 512 305.407 512 277.332c0-28.069-21.801-51.126-49.356-53.169zM42.728 282.175a206.256 206.256 0 0 0 .175 5.034c.022.502.042 1.004.067 1.505.078 1.462.172 2.924.278 4.385.052.693.112 1.385.17 2.077.071.863.148 1.724.23 2.586.073.765.147 1.529.228 2.29.099.925.207 1.849.318 2.772.13 1.088.269 2.172.415 3.254.095.709.186 1.418.289 2.125-13.566-3.71-23.564-16.145-23.564-30.871 0-14.725 9.999-27.159 23.564-30.87l-.013.086a243.298 243.298 0 0 0-.496 3.642c-.006.058-.015.115-.022.174a194.62 194.62 0 0 0-.432 3.673l-.018.158a220.14 220.14 0 0 0-.365 3.661l-.018.195a201.312 201.312 0 0 0-.291 3.571c-.008.101-.017.203-.022.304a194.306 194.306 0 0 0-.217 3.431l-.027.445a210.179 210.179 0 0 0-.149 3.282c-.007.194-.018.387-.025.581a204.475 204.475 0 0 0-.084 3.139c-.006.238-.015.476-.019.714a210.542 210.542 0 0 0-.035 3.815c0 1.614.026 3.228.063 4.842zM338.489 42.667l.529.001c3.575.011 8.195.6 9.896 3.342 1.845 2.971 1.004 8.356.057 10.29-1.683 3.426-4.121 6.471-6.701 9.693-5.138 6.417-10.964 13.69-10.964 24.637 0 1.449.109 2.829.297 4.156.058.651.17 1.293.342 1.918 1.642 7.707 6.201 13.411 10.324 18.56 2.581 3.223 5.019 6.267 6.701 9.693.949 1.934 1.791 7.319-.055 10.29-1.704 2.744-6.324 3.333-9.897 3.344l-.519.001c-27.246 0-47.57-6.537-59.615-19.023 8.541-6.768 14.036-17.221 14.036-28.939 0-11.719-5.496-22.173-14.038-28.941 12.042-12.487 32.36-19.022 59.607-19.022zm-82.487 32.38c8.593 0 15.582 6.99 15.582 15.583s-6.99 15.583-15.582 15.583-15.583-6.991-15.583-15.583c0-8.593 6.991-15.583 15.583-15.583zm-92.917-29.035c1.704-2.744 6.325-3.333 9.9-3.343 27.478-.113 48.004 6.446 60.134 19.023-8.54 6.767-14.035 17.22-14.035 28.938 0 11.717 5.493 22.169 14.033 28.936-12.126 12.563-32.642 19.091-60.131 19.024-3.577-.011-8.198-.601-9.9-3.344-1.845-2.972-1.004-8.355-.054-10.29 1.681-3.427 4.12-6.471 6.7-9.693 5.14-6.416 10.964-13.688 10.964-24.634 0-10.947-5.824-18.221-10.964-24.637-2.581-3.223-5.019-6.266-6.701-9.693-.95-1.934-1.792-7.317.054-10.287zm284.848 236.379c-.006.227-.019.452-.025.68-.044 1.466-.098 2.93-.175 4.394-.011.2-.027.397-.037.595a195.421 195.421 0 0 1-.294 4.463c-.017.21-.038.418-.057.627-.12 1.459-.251 2.919-.405 4.376-.031.301-.069.6-.102.899a187.597 187.597 0 0 1-.481 4.03c-.059.447-.125.891-.188 1.337-.16 1.168-.328 2.335-.511 3.5-.1.634-.208 1.264-.315 1.895-.158.947-.319 1.892-.491 2.838-.154.842-.318 1.679-.483 2.516-.139.704-.276 1.407-.422 2.109C425.756 403.724 348.399 469.334 256 469.334c-92.507 0-169.941-65.762-188.012-152.991-.138-.661-.262-1.325-.391-1.987-.172-.875-.346-1.75-.506-2.629a182.036 182.036 0 0 1-.514-3.027c-.093-.56-.192-1.118-.279-1.68-.21-1.353-.401-2.708-.582-4.066-.033-.244-.07-.486-.103-.731a193.541 193.541 0 0 1-1.612-24.886c0-1.999.042-3.992.104-5.981.02-.661.051-1.323.078-1.983.057-1.343.125-2.685.208-4.023.046-.753.093-1.505.148-2.257.101-1.365.222-2.727.351-4.085.061-.635.11-1.268.176-1.902.196-1.856.421-3.706.669-5.549.102-.765.222-1.528.334-2.29a181.264 181.264 0 0 1 1.679-9.709c.14-.699.273-1.398.421-2.095 9.628-45.576 35.56-86.155 73.169-114.128-1.434 7.257-.845 15.972 3.624 23.17.158.256.335.516.511.777a170.883 170.883 0 0 0-19.864 19.921c-3.8 4.503-3.229 11.233 1.274 15.032a10.621 10.621 0 0 0 6.874 2.514c3.034 0 6.048-1.288 8.157-3.788a149.397 149.397 0 0 1 22.706-21.767c2.492.463 5.249.729 8.3.737l.59.001c45.977 0 69.115-16.401 80.748-32.425.578.027 1.16.045 1.745.045.583 0 1.164-.017 1.742-.045 11.63 16.023 34.763 32.425 80.749 32.425l.59-.001c16.249-.05 24.171-7.327 27.956-13.424 4.462-7.183 5.057-15.879 3.635-23.129 43.247 32.369 71.445 82.06 76.503 136.341.021.225.044.451.064.677.082.925.158 1.851.228 2.778a191.262 191.262 0 0 1 .301 4.945 176.705 176.705 0 0 1 .172 4.748c.034 1.49.059 2.98.059 4.472a202.823 202.823 0 0 1-.069 5.052zm19.17 25.812c.102-.707.193-1.417.289-2.125.146-1.077.284-2.157.413-3.239.111-.93.222-1.863.32-2.795a228.379 228.379 0 0 0 .459-4.877c.059-.688.118-1.375.169-2.065.109-1.462.202-2.925.279-4.389.027-.499.045-1.001.068-1.501a217.54 217.54 0 0 0 .176-5.037c.035-1.614.061-3.228.061-4.843 0-10.391-.75-20.703-2.226-30.869 13.561 3.712 23.557 16.145 23.557 30.869-.003 14.727-10.001 27.161-23.565 30.871z"/><path d="M218.054 289.678c-4.99-18.62-21.937-31.623-41.213-31.623-19.274 0-36.222 13.004-41.213 31.623-1.525 5.691 1.851 11.54 7.542 13.065 5.69 1.524 11.54-1.851 13.065-7.542 2.496-9.31 10.969-15.812 20.605-15.812 9.637 0 18.111 6.502 20.605 15.812 1.278 4.766 5.588 7.908 10.297 7.908.913 0 1.844-.118 2.768-.366 5.694-1.525 9.069-7.373 7.544-13.065zm117.106-31.623c-19.275 0-36.222 13.004-41.214 31.623-1.525 5.691 1.852 11.54 7.542 13.065 5.69 1.524 11.54-1.851 13.065-7.542 2.496-9.31 10.969-15.812 20.606-15.812s18.111 6.502 20.605 15.812c1.277 4.765 5.586 7.908 10.297 7.908.914 0 1.843-.118 2.768-.366 5.691-1.525 9.067-7.375 7.542-13.065-4.989-18.618-21.935-31.623-41.211-31.623zm-45.489 106.468c-5.693-1.523-11.54 1.851-13.065 7.542-2.496 9.31-10.969 15.812-20.605 15.812-9.638 0-18.112-6.502-20.605-15.812-1.525-5.691-7.376-9.067-13.065-7.542-5.691 1.525-9.067 7.374-7.542 13.065 4.99 18.62 21.936 31.623 41.213 31.623 19.274 0 36.222-13.004 41.213-31.623 1.523-5.691-1.854-11.541-7.544-13.065z"/></symbol><symbol viewBox="0 0 512 512" id="group" xmlns="http://www.w3.org/2000/svg"><path d="M451.72 237.26c-17.422-8.71-50.087-8.811-51.469-8.811a7.5 7.5 0 0 0 0 15c8.429.001 32.902 1.299 44.761 7.228a7.502 7.502 0 0 0 6.708-13.417z"/><path d="M489.112 344.041l-30.975-8.85a3.145 3.145 0 0 1-2.271-3.011v-10.339a56.368 56.368 0 0 0 7.171-5.881c10.89-10.568 16.887-24.743 16.887-39.915v-14.267l2.995-5.989a47.846 47.846 0 0 0 5.024-21.286v-38.65a7.5 7.5 0 0 0-7.5-7.5H408.27c-26.244 0-47.596 21.352-47.596 47.596v.447a39.78 39.78 0 0 0 4.178 17.699l3.841 7.682v12.25c0 19.414 9.567 36.833 24.058 47.315l.002 10.836c0 1.671 0 2.363-6.193 4.133l-15.114 4.318-43.721-15.898a7.491 7.491 0 0 0-2.044-5.742l-13.971-14.678v-24.64a90.427 90.427 0 0 0 4.344-3.789c17.625-16.52 27.733-39.844 27.733-63.991v-19.678c5.322-11.581 8.019-23.836 8.019-36.457v-80.19a7.5 7.5 0 0 0-7.5-7.5H232.037c-39.51 0-71.653 32.144-71.653 71.653v16.039c0 12.621 2.697 24.876 8.019 36.457v16.931c0 28.036 12.466 53.294 32.077 69.946v25.22l-13.971 14.678a7.491 7.491 0 0 0-2.044 5.742l-46.145 16.779a39.33 39.33 0 0 0-9.272 4.858l-7.246-3.623c21.57-9.389 28.403-22.594 28.731-23.25a7.498 7.498 0 0 0 0-6.708c-5.407-10.814-6.062-30.635-6.588-46.561-.175-5.302-.341-10.311-.658-14.771-2.557-35.974-29.905-63.103-63.615-63.103s-61.059 27.128-63.615 63.103c-.317 4.461-.483 9.47-.658 14.773-.526 15.925-1.182 35.744-6.588 46.558a7.498 7.498 0 0 0 0 6.708c.328.656 7.147 13.834 28.76 23.234l-20.127 10.063C6.684 358.176 0 368.991 0 381.02v55.409a7.5 7.5 0 0 0 15 0V381.02c0-6.312 3.507-11.987 9.152-14.81l25.063-12.531 8.718 8.285a31.466 31.466 0 0 0 21.739 8.688 31.475 31.475 0 0 0 21.739-8.688l8.717-8.284 8.172 4.086c-3.848 6.157-6.032 13.377-6.032 20.94v57.725a7.5 7.5 0 0 0 15 0v-57.725c0-10.296 6.501-19.578 16.178-23.097l48.652-17.691 20.253 30.381a15.462 15.462 0 0 0 11.383 6.835 15.458 15.458 0 0 0 12.504-4.47l12.356-12.356v78.124a7.5 7.5 0 0 0 15 0v-78.124l12.356 12.356a15.452 15.452 0 0 0 10.957 4.547c.513 0 1.029-.025 1.546-.076a15.462 15.462 0 0 0 11.384-6.835l20.254-30.38 48.651 17.691c9.676 3.519 16.178 12.801 16.178 23.097v57.725a7.5 7.5 0 0 0 15 0v-57.725c0-10.428-4.143-20.208-11.093-27.441l1.853-.529c1.869-.534 4.419-1.265 6.979-2.52l19.149 19.149v69.066a7.5 7.5 0 0 0 15 0v-69.066l19.016-19.016c1.011.514 2.073.948 3.191 1.267l30.976 8.85c7.07 2.02 12.009 8.567 12.009 15.921v62.044a7.5 7.5 0 0 0 15 0v-62.044c0-14.018-9.412-26.497-22.888-30.348zM48.115 330.794c-14.029-5.048-21.066-11.778-24.07-15.453 2.048-5.354 3.376-11.486 4.275-17.959 4.136 9.917 11.063 18.383 19.795 24.423v8.989zm42.965 20.298c-6.397 6.078-16.418 6.077-22.813-.001l-6.975-6.628a15.518 15.518 0 0 0 1.824-7.324v-7.994a55.427 55.427 0 0 0 16.558 2.517c5.757 0 11.316-.886 16.557-2.512l-.001 7.988c0 2.62.646 5.121 1.824 7.327l-6.974 6.627zm-11.404-34.43c-22.396 0-40.615-18.22-40.615-40.615a7.5 7.5 0 0 0-7.5-7.5c-.42 0-.83.043-1.231.11l.065-1.93c.167-5.157.328-10.028.625-14.206.958-13.476 6.343-25.894 15.163-34.968 8.899-9.156 20.793-14.198 33.491-14.198s24.591 5.042 33.491 14.198c8.82 9.074 14.205 21.492 15.163 34.968.296 4.177.458 9.047.628 14.203l.045 1.338c-8.16-12.572-20.762-21.837-37.045-27.069-15.043-4.833-27.981-4.534-28.527-4.52a7.5 7.5 0 0 0-5.191 2.291l-13.532 14.034a7.5 7.5 0 1 0 10.798 10.412l11.26-11.677c9.697.474 40.894 4.102 53.027 30.819-3.053 19.688-19.975 34.31-40.115 34.31zm31.553 14.157l.001-8.945a55.477 55.477 0 0 0 19.801-24.449c.899 6.458 2.226 12.576 4.27 17.918-2.987 3.64-10.057 10.43-24.072 15.476zm72.174-121.674v-18.608a7.501 7.501 0 0 0-.746-3.261c-4.826-9.994-7.273-20.598-7.273-31.518V139.72c0-31.239 25.415-56.653 56.653-56.653h104.769v72.692c0 10.92-2.447 21.524-7.273 31.518a7.501 7.501 0 0 0-.746 3.261v21.355c0 20.311-8.165 39.15-22.991 53.047a74.636 74.636 0 0 1-5.758 4.875c-.044.03-.086.063-.129.094-13.889 10.545-30.901 15.67-48.667 14.519-38.041-2.463-67.839-35.531-67.839-75.283zm42.229 150.911c-.052.052-.173.175-.418.149a.477.477 0 0 1-.381-.229l-23.325-34.988 7.506-7.887 35.385 24.187-18.767 18.768zm30.463-28.943l-40.615-27.762v-14c10.509 5.681 22.276 9.234 34.791 10.044 1.977.128 3.942.191 5.901.191 14.341 0 28.143-3.428 40.538-9.935v13.7l-40.615 27.762zm31.262 28.865a.477.477 0 0 1-.381.229c-.245.031-.365-.098-.418-.149l-18.767-18.767 35.385-24.188 7.507 7.887-23.326 34.988zm136.951-6.328l-17.02-17.019c.297-1.349.465-2.826.464-4.455l-.001-3.165a52.589 52.589 0 0 0 16.579 2.65 55.71 55.71 0 0 0 16.536-2.501v3.02c0 1.496.188 2.962.542 4.371l-17.1 17.099zm28.283-48.454c-7.949 7.714-18.45 11.788-29.537 11.446-21.704-.651-39.361-19.768-39.361-42.613v-14.021a7.493 7.493 0 0 0-.792-3.354l-4.633-9.266a24.706 24.706 0 0 1-2.594-10.991v-.447c0-17.974 14.623-32.596 32.596-32.596h64.673v31.15a32.77 32.77 0 0 1-3.441 14.578l-3.786 7.572a7.496 7.496 0 0 0-.792 3.354v16.038c0 11.08-4.38 21.432-12.333 29.15z"/><path d="M472.423 380.814a7.5 7.5 0 0 0-7.5 7.5v48.115a7.5 7.5 0 0 0 15 0v-48.115a7.5 7.5 0 0 0-7.5-7.5zm-432.846 9.914a7.5 7.5 0 0 0-7.5 7.5v38.201a7.5 7.5 0 0 0 15 0v-38.201a7.5 7.5 0 0 0-7.5-7.5zm277.955-232.253c-28.366-28.366-87.715-22.943-111.917-19.295-7.623 1.149-13.155 7.6-13.155 15.339v17.278a7.5 7.5 0 0 0 15 0v-17.279c0-.255.168-.473.392-.507 9.667-1.457 28.85-3.705 48.725-2.38 23.388 1.557 40.328 7.428 50.349 17.45a7.5 7.5 0 0 0 10.606 0 7.5 7.5 0 0 0 0-10.606zM167.884 396.853a7.5 7.5 0 0 0-7.5 7.5v32.077a7.5 7.5 0 0 0 15 0v-32.077a7.5 7.5 0 0 0-7.5-7.5zm176.422 0a7.5 7.5 0 0 0-7.5 7.5v32.077a7.5 7.5 0 0 0 15 0v-32.077a7.5 7.5 0 0 0-7.5-7.5z"/></symbol><symbol viewBox="0 0 306 306" id="main" xmlns="http://www.w3.org/2000/svg"><path d="M94.35 0l-35.7 35.7L175.95 153 58.65 270.3l35.7 35.7 153-153z"/></symbol><symbol viewBox="0 0 512 512" id="man" xmlns="http://www.w3.org/2000/svg"><path d="M398.957 355.402l-.007-.004c-7.975-5.173-14.392-7.628-15.912-8.174l-46.28-19.286-32.629-21.532a8.076 8.076 0 0 0-.972-.54v-13.951c24.638-12.301 42.487-36.218 46.339-64.536 19.865-1.608 35.541-18.277 35.541-38.549 0-10.031-3.838-19.181-10.12-26.062V113.26C374.919 50.807 324.112 0 261.661 0h-8.767c-62.446 0-113.25 50.807-113.25 113.257v48.955c-6.59 6.941-10.647 16.311-10.647 26.615 0 20.272 15.676 36.941 35.541 38.549 3.853 28.319 21.703 52.236 46.342 64.536v13.047l-34.011 22.442a8.09 8.09 0 0 0-1.371.426l-46.534 19.392c-2.327.833-16.002 6.088-29.579 18.91-13.44 12.692-29.461 35.528-29.461 72.25v65.485a8.13 8.13 0 0 0 8.129 8.131h96.024a8.128 8.128 0 0 0 8.129-8.129 8.128 8.128 0 0 0-8.129-8.129h-25.041v-60.335c0-4.49-3.638-8.129-8.129-8.129s-8.129 3.638-8.129 8.129v60.335H86.183v-57.356c0-58.562 46.342-75.194 48.286-75.864.182-.062.361-.128.538-.202l38.763-16.154 41.9 149.577h-16.152c-4.49 0-8.129 3.638-8.129 8.129s3.638 8.129 8.129 8.129h26.84l.027.002.031-.002h61.345l.031.002.027-.002h146.127c4.49 0 8.129-3.656 8.129-8.145V438.38c-.001-47.845-27.012-72.524-43.118-82.978zm-75.326-16.65l-24.485 50.325-30.372-22.354 32.11-33.331a8.104 8.104 0 0 0 2.201-6.689c.043-.339.073-.683.073-1.033v-.426l20.473 13.508zm-49.389 52.179l-6.387 17.01h-21.893v.001l-7.187-17.155 17.635-12.979 17.832 13.123zm-47.227-63.898a8.17 8.17 0 0 0 .124-1.365v-27.625a84.733 84.733 0 0 0 21.55 2.778h16.665c7.444 0 14.663-.97 21.548-2.777v26.428l-30.263 31.414-29.624-28.853zm141.767-138.205c-.001 11.019-7.995 20.188-18.484 22.061v-44.125c10.489 1.872 18.484 11.043 18.484 22.064zm-205.043 22.061c-10.489-1.873-18.484-11.041-18.484-22.061 0-11.022 7.994-20.192 18.484-22.065v44.126zm8.161-68.567h-.035c-.28 0-.556.014-.829.042-.086.009-.168.027-.254.039-.185.025-.371.048-.552.085-.117.024-.229.06-.344.088-.145.037-.292.067-.434.112-.132.041-.259.094-.388.141-.119.043-.241.081-.357.13-.148.063-.289.137-.434.208-.091.046-.186.085-.276.133-.14.076-.273.164-.409.247-.087.054-.177.102-.261.159-.129.087-.249.184-.373.277-.083.064-.171.122-.253.189-.112.091-.214.192-.32.289-.086.078-.176.153-.258.234-.098.098-.188.204-.28.307-.081.09-.167.176-.244.269-.086.103-.161.214-.242.321-.076.102-.156.199-.228.305-.07.104-.131.215-.197.322-.07.116-.146.228-.211.347-.057.106-.105.218-.158.326-.062.128-.129.253-.184.384-.046.106-.08.218-.12.326-.052.14-.108.276-.154.419-.035.109-.059.224-.088.336-.039.146-.082.292-.114.441-.025.118-.037.241-.056.36-.024.147-.052.294-.068.444-.013.126-.014.255-.021.382-.007.116-.017.231-.02.349a38.366 38.366 0 0 0-7.841 1.642v-38.719c0-53.483 43.511-96.997 96.993-96.997h8.767c53.487 0 97 43.514 97 97v38.898a38.35 38.35 0 0 0-8.369-1.821c0-.034-.004-.067-.005-.101a7.854 7.854 0 0 0-.027-.534c-.01-.107-.027-.212-.041-.319-.021-.155-.041-.31-.07-.464a7.047 7.047 0 0 0-.088-.382 7.919 7.919 0 0 0-.096-.375c-.042-.144-.092-.285-.142-.426-.037-.103-.072-.206-.113-.307a8.577 8.577 0 0 0-.195-.438c-.043-.091-.085-.182-.131-.271a9.352 9.352 0 0 0-.234-.414c-.053-.09-.106-.181-.163-.269a7.684 7.684 0 0 0-.255-.365 8.14 8.14 0 0 0-.209-.28 10.886 10.886 0 0 0-.261-.308c-.087-.099-.172-.196-.263-.29-.085-.088-.173-.17-.261-.254a7.734 7.734 0 0 0-.315-.286c-.089-.075-.181-.146-.273-.218-.115-.089-.229-.178-.348-.26-.1-.069-.203-.133-.306-.198a9.065 9.065 0 0 0-.355-.216c-.119-.067-.244-.128-.366-.189-.111-.054-.219-.111-.333-.16-.146-.065-.297-.12-.449-.177-.098-.036-.193-.075-.293-.107a7.898 7.898 0 0 0-.512-.144c-.073-.018-.143-.044-.217-.061-31.812-7.236-41.411-47.307-41.501-47.695a8.126 8.126 0 0 0-6.299-6.168 8.122 8.122 0 0 0-8.216 3.2c-36.155 49.981-114.76 50.462-116.044 50.462h-.007zm8.097 73.554v-57.579c20.783-1.277 76.003-8.193 111.522-45.373 6.127 14.414 18.815 35.462 42.521 43.641v59.311c0 37.875-30.813 68.689-68.686 68.689h-16.665c-37.878-.001-68.692-30.815-68.692-68.689zm30.884 108.563v1.23c0 .861.137 1.69.384 2.468a8.123 8.123 0 0 0 2.072 8.271l30.946 30.142-30.609 22.528-24.484-50.325 21.691-14.314zm13.368 141.656l-15.942-56.912c.127.038.25.085.379.116a8.123 8.123 0 0 0 6.765-1.346l9.852-7.25 6.856 16.367-7.91 49.025zm11.685 29.645l11.542-71.54h19.087l11.541 71.54h-42.17zm45.92-78.832l5.994-15.962 9.522 7.008a8.125 8.125 0 0 0 6.765 1.346 8.125 8.125 0 0 0 1.913-.75l-16.207 57.857-7.987-49.499zm143.963 78.832h-46.599v-60.335a8.128 8.128 0 0 0-8.129-8.129 8.128 8.128 0 0 0-8.129 8.129v60.335h-64.454l41.671-148.766 36.815 15.342c.158.066.348.138.51.193.054.02 5.489 1.915 12.6 6.528l.003.002c16.292 10.576 35.712 31.191 35.712 69.344v57.357z"/><path d="M266.527 223.303a8.128 8.128 0 0 0 8.129-8.129 8.128 8.128 0 0 0-8.129-8.129h-6v-18.823a8.129 8.129 0 0 0-16.258 0v26.952a8.128 8.128 0 0 0 8.129 8.129h14.129z"/></symbol><symbol viewBox="0 0 477.175 477.175" id="next" xmlns="http://www.w3.org/2000/svg"><path d="M360.731 229.075l-225.1-225.1c-5.3-5.3-13.8-5.3-19.1 0s-5.3 13.8 0 19.1l215.5 215.5-215.5 215.5c-5.3 5.3-5.3 13.8 0 19.1 2.6 2.6 6.1 4 9.5 4 3.4 0 6.9-1.3 9.5-4l225.1-225.1c5.3-5.2 5.3-13.8.1-19z"/></symbol><symbol viewBox="0 0 512.5 512.5" id="quotes" xmlns="http://www.w3.org/2000/svg"><path d="M112.5 208.25c61.856 0 112 50.145 112 112s-50.144 112-112 112-112-50.145-112-112l-.5-16c0-123.712 100.288-224 224-224v64c-42.737 0-82.917 16.643-113.137 46.863a162.322 162.322 0 0 0-15.915 18.51c5.719-.9 11.58-1.373 17.552-1.373zm288 0c61.855 0 112 50.145 112 112s-50.145 112-112 112-112-50.145-112-112l-.5-16c0-123.712 100.287-224 224-224v64c-42.736 0-82.918 16.643-113.137 46.863a162.23 162.23 0 0 0-15.916 18.51 112.84 112.84 0 0 1 17.553-1.373z"/></symbol><symbol viewBox="0 0 306 306" id="right-button" xmlns="http://www.w3.org/2000/svg"><path d="M94.35 0l-35.7 35.7L175.95 153 58.65 270.3l35.7 35.7 153-153z"/></symbol><symbol viewBox="0 0 64 64" id="snowflake" xmlns="http://www.w3.org/2000/svg"><path d="M62 30h-5.601l3.349-6.029a2 2 0 0 0-3.496-1.943L51.823 30h-5.582l1.921-1.373a2 2 0 0 0-2.324-3.255L39.359 30h-2.781a4.902 4.902 0 0 0-.561-.951l1.394-2.406 7.247-3.297a2 2 0 0 0-1.656-3.641l-2.15.978 2.791-4.834 9.118.151a2 2 0 0 0 .066-4l-6.896-.114 2.8-4.851a2 2 0 0 0-3.463-2l-2.801 4.851-3.546-5.915a2 2 0 0 0-3.431 2.057l4.689 7.82-2.791 4.834-.229-2.35a2 2 0 0 0-3.982.387l.769 7.924-1.396 2.412c-.182-.02-.361-.055-.55-.055s-.368.035-.551.056l-1.396-2.412.768-7.924a2 2 0 0 0-3.981-.387l-.228 2.35-2.791-4.834 4.689-7.82a2 2 0 0 0-3.431-2.057l-3.546 5.915-2.8-4.851a2 2 0 1 0-3.465 2l2.8 4.851-6.895.113a2.001 2.001 0 0 0 .067 4l9.118-.151 2.791 4.834L21 19.705a2.001 2.001 0 0 0-2.649.993 1.999 1.999 0 0 0 .993 2.648l7.247 3.297 1.393 2.406a4.95 4.95 0 0 0-.56.951h-2.781l-6.479-4.627a2 2 0 1 0-2.325 3.255L17.759 30h-5.582l-4.428-7.971a2 2 0 0 0-3.497 1.943L7.601 30H2a2 2 0 0 0 0 4h5.601l-3.349 6.029a2.001 2.001 0 0 0 3.497 1.943L12.177 34h5.582l-1.921 1.373a1.997 1.997 0 0 0-.465 2.79 2 2 0 0 0 2.79.465L24.641 34h2.781c.149.341.342.654.56.951l-1.393 2.405-7.247 3.297a2 2 0 0 0 1.656 3.641l2.149-.979-2.791 4.834L11.239 48a2.001 2.001 0 0 0-.066 4l6.896.113-2.8 4.852a2.001 2.001 0 0 0 3.464 2l2.8-4.852 3.546 5.916a2.001 2.001 0 0 0 3.431-2.058l-4.689-7.82 2.791-4.834.228 2.351a2 2 0 1 0 3.981-.386l-.768-7.925 1.396-2.412c.183.02.362.055.551.055s.368-.035.551-.056l1.396 2.412-.769 7.925a2.001 2.001 0 0 0 3.982.386l.229-2.351 2.791 4.834-4.689 7.82a2 2 0 1 0 3.431 2.058l3.546-5.916 2.801 4.852a2 2 0 0 0 3.463-2l-2.8-4.852L52.827 52a2 2 0 0 0-.066-4l-9.118.15-2.791-4.834 2.15.979a2 2 0 0 0 1.656-3.641l-7.247-3.297-1.394-2.405c.219-.297.411-.61.561-.951h2.781l6.479 4.628a2 2 0 1 0 2.324-3.255L46.241 34h5.582l4.429 7.972a2 2 0 1 0 3.496-1.943L56.399 34H62a2 2 0 0 0 0-4z"/></symbol><symbol viewBox="0 0 512 512" id="tick" xmlns="http://www.w3.org/2000/svg"><path d="M504.502 75.496c-9.997-9.998-26.205-9.998-36.204 0L161.594 382.203 43.702 264.311c-9.997-9.998-26.205-9.997-36.204 0-9.998 9.997-9.998 26.205 0 36.203l135.994 135.992c9.994 9.997 26.214 9.99 36.204 0L504.502 111.7c9.998-9.997 9.997-26.206 0-36.204z"/></symbol><symbol viewBox="0 0 512.001 512.001" id="woman" xmlns="http://www.w3.org/2000/svg"><path d="M411.411 367.23c-13.471-12.722-27.04-17.938-29.354-18.767l-46.173-19.24a7.976 7.976 0 0 0-1.134-.377l-31.94-8.051v-27.098c.468-.233.93-.473 1.394-.715a8.037 8.037 0 0 0 3.221 1.273c20.168 3.219 38.62 8.436 53.36 15.086a8.065 8.065 0 0 0 3.319.717 8.08 8.08 0 0 0 6.992-4.058 7.94 7.94 0 0 0 .903-.969c26.056-33.611 40.405-77.188 40.405-122.705 0-55.64-21.215-107.518-58.204-142.331l-.015-.013C326.785 14.199 292.3 0 257.077 0c-85.646 0-155.325 81.792-155.325 182.326 0 46.52 14.908 90.806 41.976 124.7.056.069.119.129.176.197.053.061.107.119.161.178.208.23.426.445.653.646l.123.11a8.014 8.014 0 0 0 2.917 1.567l.071.021c.34.097.683.171 1.033.223.022.004.043.009.066.012a8.13 8.13 0 0 0 1.123.087c.082 0 .164-.018.247-.021a7.81 7.81 0 0 0 .821-.068 7.909 7.909 0 0 0 1.408-.312c.157-.051.31-.115.465-.177.126-.05.254-.091.379-.148 14.917-6.729 33.612-11.985 54.063-15.198a8.042 8.042 0 0 0 2.818-1.009c.319.165.638.332.96.493v27.091l-33.868 8.106c-.419.1-.83.234-1.228.4l-46.173 19.24c-2.312.829-15.881 6.045-29.354 18.767-13.338 12.596-29.237 35.26-29.237 71.704v64.976a8.085 8.085 0 0 0 8.084 8.086h97.226a8.084 8.084 0 0 0 0-16.168h-26.775V435.98a8.084 8.084 0 0 0-8.084-8.084 8.083 8.083 0 0 0-8.084 8.084v59.849H87.52v-56.894c0-58.095 45.969-74.594 47.898-75.258.18-.061.359-.127.535-.201l38.443-16.02 5.209 18.6.004.016 36.348 129.759h-16.001a8.084 8.084 0 0 0 0 16.168h26.632l.026.002.03-.002h60.872l.03.002.025-.002h144.996c4.466 0 8.084-3.636 8.084-8.1v-64.964c-.001-36.445-15.901-59.108-29.24-71.705zm-258.767-75.152c-22.428-30.37-34.722-69.083-34.722-109.751-.002-91.621 62.425-166.159 139.155-166.159 31.545 0 61.297 12.311 86.041 35.601 33.756 31.771 53.117 79.357 53.117 130.556 0 40.578-12.302 79.39-34.715 109.754-11.67-4.721-25.046-8.65-39.425-11.588 14.259-13.002 24.034-30.828 26.762-50.863 19.714-1.605 35.266-18.15 35.266-38.268 0-19.853-15.138-36.235-34.476-38.211a8.08 8.08 0 0 0-6.463-7.787c-55.071-11.226-79.296-44.036-79.518-44.342a8.08 8.08 0 0 0-12.378-.957c-31.428 32.257-80.245 45.268-80.729 45.394a8.08 8.08 0 0 0-6.044 7.69c-19.342 1.973-34.483 18.358-34.483 38.212 0 20.12 15.554 36.664 35.268 38.268 2.729 20.037 12.505 37.863 26.766 50.866-14.381 2.94-27.752 6.864-39.422 11.585zm197.01-78.849v-43.741c10.388 1.868 18.302 10.954 18.302 21.873 0 10.916-7.914 20.002-18.302 21.868zm-185.151-43.742v43.743c-10.388-1.866-18.303-10.952-18.303-21.869 0-10.921 7.915-20.007 18.303-21.874zm16.168 48.713v-58.867c13.846-4.373 48.471-17.076 75.834-41.857 10.486 11.086 35.033 32.217 76.98 42.294v58.43c0 37.572-30.566 68.14-68.137 68.14h-16.537c-37.572-.001-68.14-30.568-68.14-68.14zm9.118 124.267l31.388-7.51a8.084 8.084 0 0 0 6.202-7.862v-27.357a84.143 84.143 0 0 0 21.433 2.769h16.537c7.353 0 14.488-.952 21.293-2.729v27.317a8.081 8.081 0 0 0 6.108 7.838l31.504 7.94-4.423 15.79c-28.116 16.455-57.824 21.408-88.348 14.716-18.511-4.058-31.974-11.441-37.117-14.574l-4.577-16.338zm91.621 153.361h-48.663l-32.42-115.739a144.947 144.947 0 0 0 26.975 8.925 136.835 136.835 0 0 0 29.958 3.336c16.785 0 36.132-3.138 56.613-12.419L281.41 495.828zm143.072.001h-46.201V435.98c0-4.466-3.618-8.084-8.084-8.084s-8.084 3.618-8.084 8.084v59.849h-63.914l41.336-147.569 36.511 15.214c.156.066.345.136.507.192 1.956.674 47.928 17.173 47.928 75.268v56.895z"/><path d="M255.59 229.768h13.771c4.466 0 8.084-3.619 8.084-8.084s-3.618-8.084-8.084-8.084h-5.687v-18.186a8.082 8.082 0 0 0-8.084-8.084 8.083 8.083 0 0 0-8.084 8.084v26.27a8.084 8.084 0 0 0 8.084 8.084z"/></symbol></svg>