<svg viewBox="0 0 48 48" xmlns="http://www.w3.org/2000/svg"><path d="M24 26.764c4.198 0 7.614-3.415 7.614-7.613S28.198 11.538 24 11.538s-7.614 3.415-7.614 7.613 3.416 7.613 7.614 7.613zm.464-13.389a.35.35 0 1 1-.137.686 4.14 4.14 0 0 0-4.862 3.244.35.35 0 0 1-.412.275.35.35 0 0 1-.274-.412 4.834 4.834 0 0 1 5.685-3.793zm-5.83 5.274c.02-.191.195-.342.385-.31a.35.35 0 0 1 .31.385c-.027.26-.083 1.007-.006 1.332a.35.35 0 0 1-.682.16c-.118-.5-.02-1.459-.007-1.567zm10.752 10.043H18.614c-4.093 0-7.422 3.329-7.422 7.42 0 .194.156.35.35.35h24.894l.011-.002.011.002a.35.35 0 0 0 .35-.35c0-4.091-3.33-7.42-7.422-7.42z" fill="#303030"/></svg>