<svg height="100" viewBox="0 0 100 100" width="100" xmlns="http://www.w3.org/2000/svg"><path d="M50 4.871c-6.54 0-13.6 2.189-13.6 5.725v60.468h.016c0 .168.026.338.116.496L50 95.129l13.468-23.568a.968.968 0 0 0 .116-.496h.016V10.596c0-3.535-7.06-5.725-13.6-5.725zm0 2c5.488 0 9.436 1.469 10.936 2.725H39.064C40.564 8.34 44.512 6.871 50 6.871zM38.4 67.912V24.816h4.299v43.098h.002a2.154 2.154 0 0 1-2.15 2.148 2.152 2.152 0 0 1-2.148-2.15H38.4zm15.848 15.752h-8.496l-6.817-11.932c.497.213 1.043.33 1.616.33 1.267 0 2.389-.584 3.15-1.48.762.896 1.884 1.48 3.15 1.48s2.387-.584 3.148-1.48c.763.896 1.884 1.48 3.149 1.48 1.267 0 2.39-.584 3.149-1.48.765.896 1.888 1.48 3.153 1.48a4.11 4.11 0 0 0 1.613-.328l-6.815 11.93zM44.7 67.912V24.816H49v43.096c0 1.186-.964 2.15-2.148 2.15a2.152 2.152 0 0 1-2.15-2.15H44.7zm6.302 0V24.816H55.3l.001 43.098a2.154 2.154 0 0 1-2.15 2.148 2.151 2.151 0 0 1-2.149-2.15zm10.598 0c0 1.186-.963 2.15-2.148 2.15s-2.15-.965-2.15-2.15H57.3V24.816h4.3v43.096zm0-45.096H38.4v-1.15h23.2v1.15zm0-3.15H38.4v-8.07h23.2v8.07z"/></svg>