<?xml version="1.0" standalone="no"?>
<!DOCTYPE svg PUBLIC "-//W3C//DTD SVG 1.1//EN" "http://www.w3.org/Graphics/SVG/1.1/DTD/svg11.dtd" >
<svg xmlns="http://www.w3.org/2000/svg" xmlns:xlink="http://www.w3.org/1999/xlink" version="1.1">
<metadata>
Created by FontForge 20170910 at Fri Nov 29 18:49:49 2013
 By Jimmy Wärting
Copyright (c) 2013 by ArtLebedev Studio. All rights reserved.
</metadata>
<defs>
<font id="ALSMalina" horiz-adv-x="649" >
  <font-face 
    font-family="ALS Malina"
    font-weight="400"
    font-stretch="normal"
    units-per-em="1000"
    panose-1="2 0 0 0 0 0 0 0 0 0"
    ascent="720"
    descent="-280"
    x-height="528"
    cap-height="680"
    bbox="-107 -340 2800 1048"
    underline-thickness="50"
    underline-position="-100"
    unicode-range="U+0020-FB02"
  />
<missing-glyph horiz-adv-x="1309" 
d="M1231 389l-1 -5c-4 -92 -67 -138 -189 -138h-388c-14 0 -25 2 -34 7s-15 12 -19 22s-7 19 -8 28s-2 21 -3 36v214c-23 4 -40 14 -51 29s-16 33 -16 54c0 11 1 19 2 24c29 1 64 4 104 8s67 7 82 8c12 0 22 -2 30 -6s13 -11 16 -20s5 -17 6 -24s1 -16 1 -28v-225
c0 -7 2 -11 7 -11h229c37 0 55 7 55 21c0 7 -7 13 -22 17s-33 8 -54 12s-42 10 -63 17s-39 20 -54 39s-23 43 -24 72c0 44 19 79 57 104s93 38 165 38c56 0 99 -8 129 -23s45 -37 45 -65c0 -29 -19 -50 -57 -63c-39 24 -86 36 -140 36c-31 0 -47 -6 -47 -17
c0 -8 13 -15 38 -22s53 -14 83 -20s58 -19 83 -40s38 -47 38 -79zM189 566l2 -1c-23 -1 -40 -2 -52 -3c-13 21 -19 41 -19 60c0 35 33 52 100 52h128c24 0 43 -4 56 -13s24 -24 33 -46l106 -281c9 -25 19 -48 30 -69c-56 -15 -96 -23 -119 -23c-36 0 -60 18 -71 55l-8 25
h-160l-32 -76h-77c-27 0 -43 9 -48 27s-2 35 9 51l91 192c12 24 22 41 31 50zM339 416l-35 107l-44 -98c-3 -6 1 -9 11 -9h68zM1145 -6h-933c-35 0 -68 -7 -100 -21c-21 28 -32 59 -32 92c0 28 10 51 29 69s50 27 93 27h933c35 0 68 7 100 21c21 -28 32 -59 32 -92
c0 -28 -10 -51 -29 -69s-50 -27 -93 -27z" />
    <glyph glyph-name=".notdef" horiz-adv-x="1309" 
d="M1231 389l-1 -5c-4 -92 -67 -138 -189 -138h-388c-14 0 -25 2 -34 7s-15 12 -19 22s-7 19 -8 28s-2 21 -3 36v214c-23 4 -40 14 -51 29s-16 33 -16 54c0 11 1 19 2 24c29 1 64 4 104 8s67 7 82 8c12 0 22 -2 30 -6s13 -11 16 -20s5 -17 6 -24s1 -16 1 -28v-225
c0 -7 2 -11 7 -11h229c37 0 55 7 55 21c0 7 -7 13 -22 17s-33 8 -54 12s-42 10 -63 17s-39 20 -54 39s-23 43 -24 72c0 44 19 79 57 104s93 38 165 38c56 0 99 -8 129 -23s45 -37 45 -65c0 -29 -19 -50 -57 -63c-39 24 -86 36 -140 36c-31 0 -47 -6 -47 -17
c0 -8 13 -15 38 -22s53 -14 83 -20s58 -19 83 -40s38 -47 38 -79zM189 566l2 -1c-23 -1 -40 -2 -52 -3c-13 21 -19 41 -19 60c0 35 33 52 100 52h128c24 0 43 -4 56 -13s24 -24 33 -46l106 -281c9 -25 19 -48 30 -69c-56 -15 -96 -23 -119 -23c-36 0 -60 18 -71 55l-8 25
h-160l-32 -76h-77c-27 0 -43 9 -48 27s-2 35 9 51l91 192c12 24 22 41 31 50zM339 416l-35 107l-44 -98c-3 -6 1 -9 11 -9h68zM1145 -6h-933c-35 0 -68 -7 -100 -21c-21 28 -32 59 -32 92c0 28 10 51 29 69s50 27 93 27h933c35 0 68 7 100 21c21 -28 32 -59 32 -92
c0 -28 -10 -51 -29 -69s-50 -27 -93 -27z" />
    <glyph glyph-name="space" unicode=" " horiz-adv-x="213" 
 />
    <glyph glyph-name="exclam" unicode="!" horiz-adv-x="271" 
d="M260 639h-2c-7 -14 -13 -41 -17 -82s-10 -107 -17 -199c-1 -8 -1 -14 -1 -18v-17s0 -14 -1 -20c-5 -49 -33 -73 -84 -73c-23 0 -56 6 -99 19c1 19 -2 71 -10 156s-12 135 -12 149c0 73 40 109 120 109c39 0 80 -8 123 -24zM118 -12v-3c-35 0 -61 9 -79 26s-27 40 -27 68
c0 29 11 55 34 78s53 35 91 35c35 0 61 -8 79 -25s27 -39 27 -67c0 -29 -11 -55 -34 -78s-53 -34 -91 -34z" />
    <glyph glyph-name="quotedbl" unicode="&#x22;" horiz-adv-x="466" 
d="M218 656l-13 -200c-3 -53 -31 -79 -84 -79c-31 0 -63 6 -96 18l-9 180c0 29 10 54 29 74s47 30 83 30c35 0 65 -8 90 -23zM451 655l-12 -200c-3 -53 -31 -79 -84 -79c-31 0 -63 6 -96 18l-10 180c0 29 10 54 29 74s47 30 83 30c35 0 65 -8 90 -23z" />
    <glyph glyph-name="numbersign" unicode="#" horiz-adv-x="554" 
d="M399 128l-17 -82c-7 -36 -33 -54 -78 -54c-26 0 -45 9 -57 26l21 110h-44l-16 -82c-8 -36 -34 -54 -79 -54c-25 0 -44 9 -57 26l22 110c-27 -1 -50 -5 -69 -12c-10 28 -15 56 -15 84c0 23 8 40 23 51s42 17 81 17h279c48 0 84 5 108 14c9 -26 14 -54 14 -84
c0 -23 -7 -40 -22 -52s-42 -18 -81 -18h-13zM159 449l11 63c7 37 30 55 69 55c12 0 25 -2 39 -7s24 -12 30 -21l-20 -92h45l14 65c7 37 30 55 68 55c12 0 25 -2 39 -7s24 -12 29 -21l-18 -91c24 1 46 6 66 14c9 -29 13 -57 13 -84c0 -23 -7 -40 -22 -51s-42 -17 -81 -17
h-278c-48 0 -84 -4 -108 -13c-10 27 -15 55 -15 84c0 23 8 40 23 51s42 17 81 17h15z" />
    <glyph glyph-name="dollar" unicode="$" horiz-adv-x="630" 
d="M416 3l-2 -9c0 -40 2 -67 5 -80c-21 -15 -44 -23 -69 -23c-43 0 -65 28 -65 85v13c-144 3 -216 45 -216 126c0 41 17 72 51 93c50 -37 106 -55 167 -55h24s12 1 20 3s14 5 18 9s6 10 6 17c0 11 -9 19 -28 24s-42 10 -69 15s-54 12 -81 22s-50 28 -69 54s-29 59 -30 100
c0 52 18 95 54 129s88 55 157 64v6c0 40 -2 67 -5 80c21 15 44 23 69 23c43 0 65 -28 65 -85v-23c52 -5 92 -18 119 -38s41 -46 41 -78c0 -41 -23 -70 -70 -87c-49 33 -108 50 -177 50c-40 0 -60 -8 -60 -25c0 -9 11 -17 32 -24s47 -14 77 -21s60 -16 90 -28s56 -30 77 -55
s32 -56 32 -93c-4 -102 -58 -165 -163 -189z" />
    <glyph glyph-name="percent" unicode="%" horiz-adv-x="1017" 
d="M199 224c-65 0 -113 15 -144 46s-46 74 -46 129c0 58 17 106 51 144s82 57 145 57c93 0 151 -35 174 -105c9 -2 18 -3 27 -3c19 0 35 3 49 10c7 3 13 9 18 18c34 72 87 108 159 108c27 0 52 -6 75 -18s38 -29 46 -52c-37 -24 -64 -59 -81 -105l-113 -342
c-17 -53 -40 -90 -68 -110s-62 -30 -103 -30c-27 0 -51 4 -73 13s-37 22 -45 39c32 26 57 66 76 119l92 280c-8 -2 -18 -3 -29 -3c-8 0 -14 0 -18 1c-1 -56 -18 -102 -51 -139s-80 -56 -141 -57zM817 27v-2c-65 0 -113 16 -144 47s-46 74 -46 129c0 57 17 105 51 143
s82 57 145 57c62 0 108 -15 139 -46s46 -73 46 -127c0 -57 -16 -105 -49 -143s-80 -57 -142 -58zM775 211v1c0 -15 4 -28 11 -39s18 -16 32 -16c13 0 24 5 33 15s13 24 13 41s-4 31 -12 41s-18 15 -31 15s-24 -5 -33 -16s-13 -25 -13 -42zM156 409v1c0 -15 4 -28 11 -39
s18 -16 32 -16c13 0 24 5 33 15s13 24 13 41s-4 31 -12 41s-18 15 -31 15s-24 -5 -33 -16s-13 -25 -13 -42z" />
    <glyph glyph-name="ampersand" unicode="&#x26;" horiz-adv-x="728" 
d="M423 229l-100 -2c-37 0 -55 -13 -55 -38c0 -16 7 -28 22 -35s33 -11 54 -11c25 0 47 6 66 17s28 26 28 45c0 13 -5 21 -15 24zM330 371l206 1c71 1 117 12 138 33c31 -23 46 -53 46 -90c0 -25 -9 -46 -26 -63s-42 -26 -75 -26h-7h-6c15 -17 22 -38 22 -63
c0 -55 -27 -98 -81 -129s-130 -47 -227 -47c-99 0 -175 17 -228 51s-79 83 -79 146c0 41 11 76 32 105s52 47 93 54c-55 25 -82 67 -82 126c0 60 25 105 74 136s117 46 204 46c67 0 120 -12 159 -36s59 -55 59 -92c0 -32 -14 -57 -43 -76c-43 23 -91 34 -144 34
c-61 0 -92 -19 -92 -58c0 -35 19 -52 57 -52z" />
    <glyph glyph-name="quotesingle" unicode="'" horiz-adv-x="237" 
d="M223 656l-14 -200c-3 -53 -32 -79 -86 -79c-31 0 -64 6 -99 18l-10 180c0 29 10 54 30 74s48 30 85 30s68 -8 94 -23z" />
    <glyph glyph-name="parenleft" unicode="(" horiz-adv-x="386" 
d="M216 300v1c0 -162 51 -257 152 -284c2 -12 3 -22 3 -31c0 -30 -11 -53 -33 -70s-48 -25 -79 -25c-39 0 -73 10 -103 29s-54 43 -72 72s-32 63 -43 101s-19 74 -23 108s-6 67 -6 100s2 66 6 100s12 71 23 111s25 75 42 105s41 56 72 77s66 31 105 31c30 0 56 -8 78 -25
s33 -40 33 -69c0 -9 -1 -19 -3 -31c-101 -27 -152 -127 -152 -300z" />
    <glyph glyph-name="parenright" unicode=")" horiz-adv-x="386" 
d="M170 300v-3c0 173 -51 273 -152 300c-2 12 -3 22 -3 31c0 29 11 52 33 69s48 26 78 26c39 0 74 -10 105 -31s55 -46 72 -76s31 -65 42 -105s19 -77 23 -111s6 -67 6 -100s-2 -66 -6 -100s-12 -70 -23 -108s-25 -72 -43 -101s-42 -53 -72 -72s-64 -29 -103 -29
c-31 0 -57 8 -79 25s-33 40 -33 70c0 9 1 19 3 31c101 27 152 122 152 284z" />
    <glyph glyph-name="asterisk" unicode="*" horiz-adv-x="494" 
d="M236 822l-1 -2c57 -3 86 -27 86 -72c0 -25 -10 -59 -30 -102c49 33 90 49 123 49c25 0 44 -8 58 -24s21 -35 21 -57c0 -48 -34 -72 -101 -72c-19 0 -42 2 -70 6c23 -12 42 -22 56 -30s27 -19 40 -33s19 -28 19 -42c0 -23 -9 -42 -28 -58s-40 -24 -63 -24
c-28 0 -50 12 -66 36s-30 56 -42 96c-25 -89 -61 -133 -108 -133c-23 0 -44 8 -63 24s-28 36 -28 59c0 21 10 40 30 56s48 33 84 51c-28 -4 -51 -6 -70 -6c-68 0 -102 24 -102 72c0 22 7 41 21 57s33 24 56 24c31 0 72 -16 123 -49c-20 41 -30 75 -30 102c0 45 28 69 85 72z
" />
    <glyph glyph-name="plus" unicode="+" horiz-adv-x="524" 
d="M128 370l35 -2c7 0 12 1 15 4s4 8 4 15v18c0 51 -2 86 -7 105c30 19 63 29 98 29c28 0 50 -8 66 -24s24 -44 24 -85v-61h39c47 0 83 6 108 18c15 -37 23 -70 23 -98c0 -27 -8 -47 -24 -61s-45 -21 -88 -21h-37c-7 0 -12 -1 -15 -4s-4 -8 -4 -15v-27c0 -51 2 -86 7 -105
c-30 -19 -63 -29 -98 -29c-28 0 -50 8 -66 24s-24 45 -24 86v70h-38c-47 0 -83 -6 -108 -18c-15 37 -23 70 -23 98c0 27 8 48 24 62s46 21 89 21z" />
    <glyph glyph-name="comma" unicode="," horiz-adv-x="281" 
d="M9 -62v-2c45 21 67 50 67 87c0 12 -4 27 -13 45s-13 32 -13 42c0 24 11 44 33 59s47 23 74 23c37 0 65 -13 84 -38s29 -54 29 -87c0 -48 -16 -90 -49 -126s-74 -54 -123 -54c-44 0 -74 17 -89 51z" />
    <glyph glyph-name="hyphen" unicode="-" horiz-adv-x="448" 
d="M324 208l-183 -2c-45 0 -81 -6 -107 -18c-15 37 -22 75 -22 114c0 33 9 56 27 68s47 19 86 20h180c45 0 81 6 107 18c15 -37 22 -75 22 -114c0 -33 -9 -55 -26 -67s-45 -18 -84 -19z" />
    <glyph glyph-name="period" unicode="." horiz-adv-x="255" 
d="M118 -12v-3c-35 0 -61 9 -79 26s-27 40 -27 68c0 29 11 55 34 78s53 35 91 35c35 0 61 -8 79 -25s27 -39 27 -67c0 -29 -11 -55 -34 -78s-53 -34 -91 -34z" />
    <glyph glyph-name="slash" unicode="/" horiz-adv-x="427" 
d="M388 547l-213 -517c-17 -41 -46 -61 -87 -61c-15 0 -31 4 -48 11s-29 16 -36 27c7 15 19 42 36 81l213 516c17 41 46 61 87 61c15 0 31 -3 48 -10s29 -16 36 -27c-7 -15 -19 -42 -36 -81z" />
    <glyph glyph-name="zero" unicode="0" horiz-adv-x="581" 
d="M223 285h1c0 -31 7 -57 20 -79s34 -33 62 -33c25 0 45 10 60 30s23 49 23 87c0 37 -7 66 -21 86s-33 30 -56 30c-26 0 -47 -10 -64 -31s-25 -51 -25 -90zM298 -11l-1 -1c-189 0 -284 95 -284 284c0 92 24 168 72 227s119 89 212 89c181 0 272 -94 272 -283
c0 -90 -23 -165 -68 -225s-113 -90 -203 -91z" />
    <glyph glyph-name="one" unicode="1" horiz-adv-x="536" 
d="M397 167l110 1c13 -27 19 -55 19 -84c0 -55 -27 -83 -82 -83h-400c-13 29 -19 57 -19 85c0 55 27 82 82 82h52v224c-41 0 -73 8 -97 24s-40 44 -49 84c23 7 54 18 93 33s74 27 104 36s55 14 75 14h42c25 0 43 -6 54 -19s16 -33 16 -60v-337z" />
    <glyph glyph-name="two" unicode="2" horiz-adv-x="559" 
d="M249 186l88 -4c61 0 105 15 133 45c23 -11 42 -27 57 -49s22 -45 22 -70c0 -32 -11 -59 -34 -80s-59 -32 -108 -32h-364c-17 35 -26 66 -26 94c0 57 30 99 91 126c73 32 118 55 135 69c19 16 28 34 28 55c0 15 -6 28 -17 38s-28 15 -51 15c-45 0 -87 -13 -126 -39
c-41 32 -61 67 -61 104c0 41 22 73 65 96s101 34 174 34c80 0 142 -14 185 -43s65 -72 65 -129c0 -105 -85 -182 -256 -230z" />
    <glyph glyph-name="three" unicode="3" horiz-adv-x="543" 
d="M443 373l-106 -50c69 -3 118 -17 148 -42s45 -61 45 -108c0 -125 -91 -188 -273 -188c-75 0 -134 12 -178 35s-66 59 -66 107c0 41 15 73 44 95c49 -35 103 -52 162 -52c49 0 73 14 73 42c0 14 -7 24 -22 29s-41 8 -78 8c-24 0 -36 10 -36 31v14c0 18 11 32 32 41l125 55
h-164c-33 0 -59 11 -78 34s-29 50 -29 81c0 35 12 64 36 87c27 -10 67 -15 120 -15h245c48 0 71 -26 69 -78l-1 -18c-2 -28 -7 -50 -16 -66s-26 -30 -52 -42z" />
    <glyph glyph-name="four" unicode="4" horiz-adv-x="607" 
d="M516 506l-1 -249l65 4c10 -18 15 -36 15 -54c0 -17 -6 -32 -17 -45s-27 -19 -48 -19h-15v-131c-34 -13 -71 -19 -110 -19c-85 0 -127 29 -127 88v62h-79c-51 0 -107 -1 -167 -3c-19 22 -28 47 -28 74s9 51 28 72l218 243c35 37 71 56 108 56h88c25 0 43 -6 54 -19
s16 -33 16 -60zM278 257v146l-126 -146h126z" />
    <glyph glyph-name="five" unicode="5" horiz-adv-x="544" 
d="M196 256h-77c-21 0 -38 6 -52 19s-20 33 -18 60l25 166c8 52 31 78 68 78h218c53 0 93 5 120 15c25 -25 37 -54 37 -87c0 -29 -10 -53 -29 -73s-45 -30 -78 -30h-190l-9 -56c33 17 70 25 111 25c64 0 114 -15 151 -45s55 -72 55 -127c0 -67 -23 -119 -69 -156
s-117 -55 -212 -55c-27 0 -53 2 -78 6s-50 11 -75 20s-45 23 -60 42s-23 42 -23 69c0 44 14 76 43 97c45 -33 104 -50 176 -50c40 0 60 15 60 44c0 9 -1 17 -4 23s-9 10 -18 12s-17 3 -25 3h-39h-8z" />
    <glyph glyph-name="six" unicode="6" horiz-adv-x="562" 
d="M252 325l-2 -3c24 33 63 49 117 49c58 0 103 -16 134 -48s47 -74 47 -126c0 -66 -23 -118 -70 -155s-114 -56 -201 -56c-177 0 -265 88 -265 264c0 47 5 90 16 129s28 75 50 107s53 57 93 75s87 27 140 27c38 0 72 -3 102 -9s56 -18 77 -36s32 -40 32 -67
c0 -37 -15 -64 -45 -81c-37 19 -74 29 -112 29c-75 0 -113 -33 -113 -99zM230 262l-1 -22c0 -69 20 -104 60 -104c15 0 28 5 39 14s17 23 17 42c0 24 -8 42 -24 53s-46 17 -91 17z" />
    <glyph glyph-name="seven" unicode="7" horiz-adv-x="507" 
d="M499 494l1 -49c0 -57 -16 -100 -49 -129c-45 -40 -77 -76 -97 -108s-30 -67 -30 -106c0 -29 7 -49 21 -61c-21 -33 -66 -50 -135 -50c-39 0 -71 12 -96 35s-38 56 -38 99c0 95 75 184 224 267h-178c-35 0 -62 10 -81 30s-29 45 -29 75c0 40 12 72 36 96
c25 -9 65 -14 120 -14h255c28 0 48 -7 59 -20s17 -35 17 -65z" />
    <glyph glyph-name="eight" unicode="8" horiz-adv-x="579" 
d="M288 121c18 0 33 4 46 11s19 18 19 32c0 25 -24 49 -72 71c-21 -8 -37 -17 -48 -26s-16 -21 -16 -35c0 -35 24 -53 71 -53zM241 430l-1 1c0 -21 19 -41 58 -59c33 15 49 34 49 58c0 11 -5 20 -14 27s-23 11 -41 11c-14 0 -26 -3 -36 -9s-15 -16 -15 -29zM12 160l-1 2
c0 37 10 68 31 92s48 42 81 53c-56 27 -84 67 -84 120s24 94 73 122s108 42 177 42c79 0 140 -14 184 -41s66 -66 66 -117c0 -57 -30 -98 -90 -123c77 -25 116 -72 116 -142c0 -61 -26 -106 -78 -135s-119 -43 -201 -43c-81 0 -147 14 -198 42s-76 71 -76 128z" />
    <glyph glyph-name="nine" unicode="9" horiz-adv-x="559" 
d="M307 250l-1 1c-28 -33 -68 -49 -119 -49c-55 0 -98 16 -129 48s-47 73 -47 123c0 68 24 121 73 159s118 57 207 57c170 0 255 -86 255 -259c0 -228 -98 -342 -294 -342c-135 0 -203 37 -203 111c0 32 12 58 35 79c36 -19 75 -28 118 -28c67 0 102 33 105 100zM326 311v20
c0 71 -18 106 -54 106c-16 0 -30 -5 -42 -15s-18 -24 -18 -43c0 -23 8 -40 24 -51s46 -17 90 -17z" />
    <glyph glyph-name="colon" unicode=":" horiz-adv-x="255" 
d="M118 -12v-3c-35 0 -61 9 -79 26s-27 40 -27 68c0 29 11 55 34 78s53 35 91 35c35 0 61 -8 79 -25s27 -39 27 -67c0 -29 -11 -55 -34 -78s-53 -34 -91 -34zM118 323v-3c-35 0 -61 9 -79 26s-27 40 -27 68c0 29 11 55 34 78s53 35 91 35c35 0 61 -8 79 -25s27 -39 27 -67
c0 -29 -11 -55 -34 -78s-53 -34 -91 -34z" />
    <glyph glyph-name="semicolon" unicode=";" horiz-adv-x="286" 
d="M9 -62v-2c45 21 67 50 67 87c0 12 -4 27 -13 45s-13 32 -13 42c0 24 11 44 33 59s47 23 74 23c37 0 65 -13 84 -38s29 -54 29 -87c0 -48 -16 -90 -49 -126s-74 -54 -123 -54c-44 0 -74 17 -89 51zM149 324v-3c-35 0 -61 9 -79 26s-27 40 -27 68c0 29 11 55 34 78
s53 35 91 35c35 0 61 -8 79 -25s27 -39 27 -67c0 -29 -11 -55 -34 -78s-53 -34 -91 -34z" />
    <glyph glyph-name="less" unicode="&#x3c;" horiz-adv-x="392" 
d="M344 335l-142 -68l141 -70c23 -13 35 -34 35 -63c0 -25 -9 -48 -28 -69s-42 -35 -69 -41l-235 158c-27 19 -41 45 -41 79c0 35 13 61 38 78l241 167c27 -7 49 -21 66 -42s26 -44 26 -69c0 -26 -11 -46 -32 -60z" />
    <glyph glyph-name="equal" unicode="=" horiz-adv-x="494" 
d="M367 297l-223 -1c-47 0 -83 -6 -108 -18c-15 37 -23 71 -23 101c0 27 8 48 24 62s46 21 89 21h222c47 0 83 6 108 18c15 -37 23 -71 23 -101c0 -27 -8 -47 -24 -61s-45 -21 -88 -21zM366 86l-223 -1c-47 0 -83 -6 -108 -18c-15 37 -23 71 -23 101c0 27 8 48 24 62
s46 21 89 21h222c47 0 83 6 108 18c15 -37 23 -71 23 -101c0 -27 -8 -47 -24 -61s-45 -21 -88 -21z" />
    <glyph glyph-name="greater" unicode="&#x3e;" horiz-adv-x="392" 
d="M190 267l-142 68c-21 14 -32 34 -32 60c0 25 9 48 26 69s39 35 66 42l241 -167c25 -17 38 -43 38 -78c0 -34 -14 -60 -41 -79l-235 -158c-27 6 -50 20 -69 41s-28 44 -28 69c0 29 12 50 35 63z" />
    <glyph glyph-name="question" unicode="?" horiz-adv-x="493" 
d="M224 674h-3c30 0 59 -2 86 -7s55 -13 83 -24s50 -28 67 -51s26 -51 27 -84c0 -27 -5 -52 -16 -74s-24 -40 -40 -54s-32 -27 -48 -40s-29 -27 -40 -43s-16 -33 -16 -52c-25 -18 -61 -27 -108 -27c-32 0 -59 7 -81 21s-33 35 -33 63c0 22 8 42 23 60s32 32 50 42
s35 20 50 30s23 19 23 26c0 13 -17 19 -51 19c-43 0 -85 -9 -127 -27c-41 24 -61 56 -61 95c0 41 19 72 56 94s90 33 159 33zM218 -12v-3c-35 0 -61 9 -79 26s-27 40 -27 68c0 29 11 55 34 78s53 35 91 35c35 0 61 -8 79 -25s27 -39 27 -67c0 -29 -11 -55 -34 -78
s-53 -34 -91 -34z" />
    <glyph glyph-name="at" unicode="@" horiz-adv-x="910" 
d="M522 63l-1 -4c-31 -47 -78 -71 -141 -71c-40 0 -73 11 -99 32s-39 50 -39 87c0 40 16 71 49 92s72 32 117 32c41 0 75 -6 102 -17v15c0 15 -6 27 -18 36s-24 15 -37 18s-26 4 -39 4c-36 0 -73 -8 -111 -25c-19 21 -28 41 -28 60c0 28 18 50 54 66s79 24 128 24
c68 0 119 -14 154 -41s52 -66 52 -117v-126c0 -22 9 -33 27 -33c40 0 60 52 60 155c0 82 -27 143 -80 183s-122 60 -206 60c-93 0 -167 -23 -221 -70s-81 -116 -81 -207c0 -187 82 -281 246 -281c53 0 92 7 118 22c18 -18 27 -38 27 -59c0 -61 -57 -91 -171 -91
c-119 0 -211 37 -276 110s-98 167 -98 281c0 72 12 136 36 192s57 101 100 135s92 60 148 78s117 27 183 27c131 0 234 -35 309 -106s112 -163 112 -276c0 -72 -19 -133 -57 -184s-93 -76 -166 -76c-37 0 -68 5 -93 15s-45 30 -60 60zM511 149l1 15c-12 2 -26 3 -42 3
c-24 0 -41 -4 -51 -12s-15 -17 -15 -28c0 -9 3 -16 9 -22s14 -9 24 -9c15 0 30 5 45 14s25 22 29 39z" />
    <glyph glyph-name="A" unicode="A" horiz-adv-x="670" 
d="M210 505l-1 -3c-31 -1 -55 -3 -73 -5c-17 35 -25 66 -25 94c0 57 46 85 139 85h180c34 0 61 -7 80 -21s35 -39 47 -74l148 -445c13 -42 27 -78 42 -109c-77 -25 -133 -37 -168 -37c-24 0 -43 7 -58 20s-28 36 -39 69l-13 40h-219l-46 -120h-110c-24 0 -41 7 -52 21
s-16 30 -15 48s6 36 14 55l127 303c15 34 29 60 42 79zM368 430l-57 -147c-3 -11 1 -17 12 -17h96z" />
    <glyph glyph-name="B" unicode="B" horiz-adv-x="679" 
d="M393 502h-40v-114h34c49 0 73 21 73 62c0 35 -22 52 -67 52zM266 -3l-1 -3c-25 0 -45 1 -60 3s-30 6 -46 13s-27 18 -34 33s-11 35 -11 60v396c-26 0 -51 -2 -76 -5c-21 31 -32 62 -32 94c0 19 4 35 12 48s19 22 34 27s30 9 44 11s31 3 50 3h235c191 0 286 -59 286 -176
c0 -29 -7 -56 -21 -80s-34 -42 -61 -54c39 -9 69 -27 89 -54s30 -59 30 -95c0 -30 -6 -57 -17 -81s-25 -43 -42 -58s-39 -28 -66 -39s-52 -19 -75 -25s-51 -10 -84 -13s-60 -5 -80 -5h-74zM398 272h-45v-118c9 -1 20 -2 33 -2c57 0 86 21 86 63c0 38 -25 57 -74 57z" />
    <glyph glyph-name="C" unicode="C" horiz-adv-x="639" 
d="M384 -12l1 -4c-113 1 -198 30 -254 87s-84 137 -84 239c0 111 29 200 87 268s146 102 265 102c31 0 61 -2 89 -7s54 -13 78 -24s43 -27 57 -47s21 -44 21 -71c0 -25 -7 -47 -21 -67s-33 -34 -58 -43c-59 33 -112 50 -159 50c-79 0 -118 -45 -118 -136
c0 -40 10 -71 30 -93s51 -33 92 -33c59 0 118 19 178 56c19 -11 34 -26 44 -46s15 -41 15 -64c0 -30 -8 -56 -25 -79s-39 -40 -66 -52s-55 -21 -84 -27s-58 -9 -88 -9z" />
    <glyph glyph-name="D" unicode="D" horiz-adv-x="721" 
d="M373 162l-1 1c45 0 79 18 102 53s34 77 34 126c0 53 -11 93 -34 120s-54 40 -94 40h-22v-340h15zM119 150l-4 350c-25 0 -50 -2 -75 -5c-21 31 -32 62 -32 94c0 19 4 35 12 48s19 22 34 27s30 9 44 11s31 3 50 3h209c129 0 225 -28 288 -84s94 -134 94 -235
c0 -124 -36 -215 -108 -274s-171 -88 -298 -88h-94c-21 0 -39 3 -54 9s-27 13 -35 22s-14 21 -19 36s-8 29 -9 41s-2 27 -3 45z" />
    <glyph glyph-name="E" unicode="E" horiz-adv-x="639" 
d="M370 177l122 -3c37 0 72 4 105 13c21 -28 31 -62 31 -102c0 -20 -4 -36 -12 -49s-19 -22 -34 -27s-28 -8 -40 -9s-27 -2 -46 -2h-271c-36 0 -63 7 -82 21s-28 43 -28 86v395c-26 0 -51 -2 -76 -5c-21 31 -32 62 -32 94c0 26 9 47 27 63s44 24 78 24h375c44 0 79 3 105 10
c21 -28 31 -61 31 -99c0 -20 -4 -36 -12 -49s-19 -22 -34 -27s-28 -8 -40 -9s-27 -2 -46 -2h-136v-63c0 -7 1 -12 3 -14s6 -3 12 -3h173c9 -22 13 -44 13 -67c0 -63 -42 -94 -125 -94h-76v-65c0 -7 1 -12 3 -14s6 -3 12 -3z" />
    <glyph glyph-name="F" unicode="F" horiz-adv-x="634" 
d="M371 400l162 -1c9 -21 13 -44 13 -69c0 -63 -42 -94 -125 -94h-65v-63c3 -51 12 -98 27 -141c-109 -27 -172 -41 -188 -41c-17 0 -31 4 -42 12s-19 20 -24 36s-8 32 -10 47s-3 34 -4 57v358c-26 0 -51 -2 -76 -5c-21 31 -32 62 -32 94c0 26 9 47 27 63s44 24 78 24h378
c44 0 79 3 105 10c21 -28 31 -61 31 -99c0 -20 -4 -36 -12 -49s-19 -22 -34 -27s-28 -8 -40 -9s-27 -2 -46 -2h-138v-84c0 -7 1 -12 3 -14s6 -3 12 -3z" />
    <glyph glyph-name="G" unicode="G" horiz-adv-x="702" 
d="M502 229l-6 -2c-63 0 -94 26 -94 77c0 19 4 41 13 65h184c41 0 69 -7 84 -22s22 -47 22 -96v-243c-23 -14 -49 -21 -79 -21c-23 0 -44 6 -62 18s-30 30 -37 54c-45 -49 -108 -73 -189 -73c-51 0 -96 9 -135 27s-69 42 -91 73s-38 65 -49 103s-16 79 -16 123
c0 111 29 200 87 268s146 102 265 102c45 0 86 -4 123 -12s69 -23 96 -46s41 -51 41 -85c0 -23 -7 -44 -21 -64s-32 -34 -55 -43c-47 27 -103 41 -168 41c-85 0 -128 -47 -128 -140c0 -102 43 -153 128 -153c58 0 87 10 87 29v20z" />
    <glyph glyph-name="H" unicode="H" horiz-adv-x="777" 
d="M505 424l-1 71c-3 51 -12 98 -27 141c109 27 173 41 191 41c17 0 31 -4 42 -12s19 -20 24 -36s9 -31 11 -46s3 -34 4 -57v-354c3 -51 12 -98 27 -141c-109 -27 -173 -41 -191 -41c-17 0 -31 4 -42 12s-19 20 -24 36s-8 32 -10 47s-3 34 -4 57v86c0 7 -1 12 -3 15
s-6 4 -11 4h-151v-76c3 -51 12 -98 27 -141c-109 -27 -172 -41 -188 -41c-17 0 -31 4 -42 12s-19 20 -24 36s-8 32 -10 47s-3 34 -4 57v341c-31 5 -54 20 -69 45s-22 54 -22 87c0 12 1 24 3 35c32 2 62 5 90 8s58 7 90 11s59 7 80 9c13 0 24 -3 33 -9s16 -12 20 -19
s8 -17 11 -30s5 -24 5 -33v-36v-109c0 -7 1 -12 3 -14s6 -3 12 -3h150z" />
    <glyph glyph-name="I" unicode="I" horiz-adv-x="482" 
d="M135 180l2 333c-26 0 -51 -2 -76 -5c-21 31 -32 59 -32 84c0 26 9 47 27 63s44 24 78 24h197c44 0 79 3 105 10c21 -28 31 -61 31 -99c0 -49 -26 -75 -78 -78c-7 -1 -11 -5 -11 -13v-332c25 0 50 2 75 5c21 -31 32 -61 32 -90c0 -25 -9 -45 -27 -60s-44 -22 -79 -22h-302
c-21 28 -31 58 -31 89c0 49 26 75 78 78c7 1 11 5 11 13z" />
    <glyph glyph-name="J" unicode="J" horiz-adv-x="396" 
d="M381 551l-2 -419c0 -41 -4 -78 -12 -112s-21 -65 -38 -93s-40 -50 -69 -66s-63 -24 -102 -24c-42 0 -77 12 -105 37s-42 57 -42 96c0 16 2 31 7 45c11 -1 19 -2 24 -2c35 0 60 11 74 34s22 54 24 94v342c-31 5 -54 20 -69 45s-22 54 -22 87c0 12 1 24 3 35
c32 2 62 5 90 8s58 7 90 11s59 7 80 9c13 0 24 -3 33 -9s16 -12 20 -19s8 -17 11 -30s5 -24 5 -33v-36z" />
    <glyph glyph-name="K" unicode="K" horiz-adv-x="725" 
d="M340 303l-3 -132c3 -51 12 -98 27 -141c-109 -27 -172 -41 -188 -41c-17 0 -31 4 -42 12s-19 20 -24 36s-8 32 -10 47s-3 34 -4 57v341c-31 5 -54 20 -69 45s-22 54 -22 87c0 12 1 24 3 35c32 2 62 5 90 8s58 7 90 11s59 7 80 9c13 0 24 -3 33 -9s16 -12 20 -19
s8 -17 11 -30s5 -24 5 -33v-36v-153h29c33 0 56 12 69 36s20 52 20 83c0 34 -9 68 -27 103c37 39 83 59 138 59c45 0 79 -14 101 -43s33 -63 33 -102c0 -79 -36 -142 -108 -190c18 -48 44 -91 77 -128s66 -59 98 -66c-2 -53 -18 -92 -49 -117s-68 -37 -111 -37
c-31 0 -57 4 -78 12s-41 23 -60 45s-35 53 -49 94s-26 93 -37 157h-43z" />
    <glyph glyph-name="L" unicode="L" horiz-adv-x="578" 
d="M99 144l-1 338c-31 5 -54 20 -69 45s-22 54 -22 87c0 12 1 24 3 35c32 2 62 5 90 8s58 7 90 11s59 7 80 9c13 0 24 -3 33 -9s16 -12 20 -19s8 -17 11 -30s5 -24 5 -33v-36v-323c0 -12 3 -18 10 -18h49h48c67 0 121 10 162 29c13 -17 23 -37 30 -60s11 -41 11 -55
c0 -27 -5 -49 -14 -66s-23 -29 -42 -37s-39 -13 -60 -16s-48 -4 -81 -4h-263c-15 0 -28 3 -39 8s-20 12 -26 20s-11 19 -15 33s-6 27 -7 39s-2 27 -3 44z" />
    <glyph glyph-name="M" unicode="M" horiz-adv-x="892" 
d="M320 390l9 -216c3 -62 12 -110 26 -145l-52 -13c-24 -6 -42 -11 -55 -14s-27 -6 -42 -9s-27 -4 -35 -4c-16 0 -29 4 -40 12s-19 20 -24 36s-8 32 -10 48s-3 35 -3 56l14 343c-31 5 -53 20 -67 44s-21 53 -21 86c0 13 1 25 3 36c29 2 75 7 138 15s111 12 143 12
c28 0 50 -7 66 -21s29 -36 40 -67l77 -223l67 223c12 35 28 59 48 72s47 18 80 15l76 -11c38 -5 63 -15 74 -30s18 -45 20 -89l18 -369c3 -62 12 -110 26 -145l-53 -13l-56 -14c-12 -3 -26 -6 -42 -9s-28 -4 -36 -4c-16 0 -29 4 -40 12s-19 20 -24 36s-8 32 -10 48
s-3 35 -3 56l6 246l-51 -140c-9 -23 -19 -40 -30 -52s-26 -18 -45 -18h-52c-17 0 -31 6 -42 18s-22 29 -33 52z" />
    <glyph glyph-name="N" unicode="N" horiz-adv-x="745" 
d="M724 527l-9 -512c-24 -13 -55 -20 -92 -20c-28 0 -49 2 -63 6s-26 11 -37 22l-239 318c2 -11 4 -68 6 -171c1 -69 10 -122 26 -159c-57 -14 -96 -21 -117 -21s-38 4 -51 11s-22 18 -28 33s-10 31 -12 47s-3 37 -3 62v368c-22 0 -44 -2 -66 -5c-21 31 -32 59 -32 84
c0 26 9 47 27 63s44 24 78 24h100c32 -1 60 -7 84 -18s48 -31 71 -60l173 -244l-1 142c-3 72 -12 125 -27 160c57 14 96 21 117 21s38 -3 51 -10s23 -18 29 -33s10 -30 12 -46s3 -37 3 -62z" />
    <glyph glyph-name="O" unicode="O" horiz-adv-x="731" 
d="M287 335v-1c0 -88 34 -132 103 -132c71 0 106 44 106 133c0 42 -9 75 -27 99s-43 36 -75 36c-71 0 -107 -45 -107 -135zM393 -13l-2 2c-231 0 -347 109 -347 327c0 51 7 98 21 141s35 82 63 116s65 61 111 80s99 29 159 29c226 0 339 -108 339 -325
c0 -51 -7 -98 -20 -141s-33 -82 -60 -117s-63 -62 -108 -82s-97 -30 -156 -30z" />
    <glyph glyph-name="P" unicode="P" horiz-adv-x="689" 
d="M356 208l-2 -37c3 -51 12 -98 27 -141c-109 -27 -172 -41 -188 -41c-17 0 -31 4 -42 12s-19 20 -24 36s-8 32 -10 47s-3 34 -4 57v358c-26 0 -51 -2 -76 -5c-21 31 -32 62 -32 94c0 19 4 35 12 48s19 22 34 27s30 9 44 11s31 3 50 3h229c219 -3 329 -81 329 -235
c0 -73 -23 -131 -68 -174s-117 -64 -215 -64c-7 0 -19 1 -35 2s-26 2 -29 2zM382 346c56 0 84 27 84 82c0 48 -25 72 -75 72h-37v-153c5 -1 14 -1 28 -1z" />
    <glyph glyph-name="Q" unicode="Q" horiz-adv-x="732" 
d="M679 -16l1 -3c37 0 68 4 93 11c23 -23 34 -51 34 -84c0 -40 -14 -70 -42 -90s-63 -30 -104 -30c-41 1 -96 14 -166 39s-123 38 -160 39c-5 17 -7 31 -7 43c0 42 16 68 48 79c-108 1 -190 29 -246 84s-84 136 -84 242c0 107 30 195 89 264s147 104 263 104
c225 0 338 -108 338 -325c0 -57 -8 -109 -24 -156s-42 -88 -78 -124s-79 -60 -130 -73c3 0 27 -3 73 -10s80 -10 102 -10zM288 332v-1c0 -88 34 -132 102 -132c70 0 105 44 105 133c0 42 -9 75 -27 99s-43 36 -74 36c-71 0 -106 -45 -106 -135z" />
    <glyph glyph-name="R" unicode="R" horiz-adv-x="712" 
d="M353 208l-1 -38c3 -48 12 -95 27 -140l-53 -13l-56 -14c-12 -3 -26 -6 -42 -9s-28 -4 -36 -4c-17 0 -31 4 -42 12s-19 20 -24 36s-8 32 -10 47s-3 34 -4 57v358c-26 0 -51 -2 -76 -5c-21 31 -32 62 -32 94c0 19 4 35 12 48s19 22 34 27s30 9 44 11s31 3 50 3h218
c117 0 203 -19 258 -58s82 -96 82 -172c0 -97 -30 -161 -90 -192c34 -57 75 -91 123 -102c-2 -57 -17 -98 -45 -124s-63 -39 -106 -39c-14 0 -27 1 -39 3s-22 5 -31 9s-18 9 -26 16s-15 13 -21 18s-12 13 -18 24s-11 20 -14 27s-7 17 -11 30s-7 23 -9 30l-9 32
c-4 14 -7 24 -8 30c-7 -1 -22 -2 -45 -2zM383 345c56 0 84 27 84 82c0 48 -25 72 -75 72h-40v-153c5 -1 15 -1 31 -1z" />
    <glyph glyph-name="S" unicode="S" horiz-adv-x="589" 
d="M573 218l-1 -2c-3 -76 -29 -133 -78 -172s-126 -58 -230 -58c-168 0 -252 48 -252 145c0 48 19 84 56 107c24 -19 53 -34 86 -46s66 -18 98 -18c11 0 20 0 27 1s15 2 23 4s14 5 18 10s6 12 6 20c0 11 -7 19 -22 25s-34 11 -56 14s-46 9 -72 17s-50 19 -73 32
s-42 33 -57 61s-23 62 -24 101c0 69 27 124 80 164s130 60 230 60c78 0 138 -12 179 -36s62 -58 62 -102c0 -21 -6 -41 -19 -59s-32 -32 -57 -41c-54 38 -119 57 -195 57c-44 0 -66 -9 -66 -27c0 -11 12 -20 35 -28s51 -16 84 -25s66 -20 99 -34s61 -35 84 -64
s35 -64 35 -106z" />
    <glyph glyph-name="T" unicode="T" horiz-adv-x="637" 
d="M428 439l2 -267c3 -51 12 -98 27 -141c-109 -27 -172 -41 -188 -41c-17 0 -31 4 -42 12s-19 20 -24 36s-8 32 -10 47s-3 34 -4 57v322c-7 1 -17 1 -30 1c-45 0 -88 -11 -129 -33c-29 51 -43 96 -43 135c0 40 11 69 33 87s62 27 119 27c27 0 77 -2 151 -6s124 -6 150 -6
c51 0 98 8 141 24c29 -50 44 -92 44 -127c0 -37 -12 -65 -35 -84s-66 -28 -129 -28h-22c-7 -1 -11 -6 -11 -15z" />
    <glyph glyph-name="U" unicode="U" horiz-adv-x="736" 
d="M721 527l1 -243c0 -52 -7 -97 -20 -135s-29 -67 -49 -88s-45 -37 -75 -49s-57 -20 -82 -23s-53 -5 -84 -5s-59 2 -84 5s-52 11 -82 23s-55 28 -75 49s-37 51 -50 89s-20 83 -20 135v196c-31 5 -54 20 -69 45s-22 54 -22 87c0 12 1 24 3 35c32 2 62 5 90 8s58 7 90 11
s59 7 80 9c13 0 24 -3 33 -9s16 -12 20 -19s8 -17 11 -30s5 -24 5 -33v-36v-290c0 -59 23 -89 70 -89c46 0 69 30 69 89v237c-3 51 -12 98 -27 141c109 27 171 41 186 41c17 0 31 -4 42 -12s19 -20 24 -36s9 -31 11 -46s3 -34 4 -57z" />
    <glyph glyph-name="V" unicode="V" horiz-adv-x="707" 
d="M167 118l-5 -1c-4 14 -12 49 -25 105s-25 105 -36 146s-26 81 -45 119s-39 59 -60 63c21 84 67 126 138 126c22 0 42 -3 59 -10s31 -15 42 -24s22 -23 32 -42s18 -36 24 -52s14 -38 23 -67c12 -37 27 -98 46 -183l10 -53c62 127 93 218 93 273c0 41 -10 72 -31 93
c13 20 31 36 55 48s49 18 74 18c37 0 69 -13 96 -38s40 -62 40 -110c0 -33 -10 -73 -29 -121s-40 -93 -63 -134s-44 -84 -63 -129s-29 -80 -29 -106c0 -12 0 -21 1 -27c-60 -17 -115 -26 -164 -26c-46 0 -84 10 -114 30s-53 54 -69 102z" />
    <glyph glyph-name="W" unicode="W" horiz-adv-x="936" 
d="M411 18l-6 -7c-42 -20 -87 -30 -134 -30c-59 0 -99 21 -120 63s-40 130 -57 265c-7 61 -17 112 -31 152s-36 69 -66 86c6 39 22 70 48 92s57 33 92 33c27 0 50 -5 70 -16s36 -25 49 -43s24 -44 34 -78s18 -68 24 -102s12 -78 19 -133l61 176c7 21 13 35 17 43
s10 16 18 24s18 12 30 12h56c17 0 30 -6 38 -18s17 -32 26 -61l60 -201c39 99 58 175 58 228c0 43 -10 76 -31 99c11 23 28 41 51 54s48 19 75 19c37 0 69 -13 95 -38s39 -63 39 -114c0 -56 -21 -143 -63 -260l-14 -42c-8 -24 -13 -40 -15 -48l-11 -39
c-5 -18 -8 -33 -10 -46s-3 -26 -3 -39c0 -11 1 -22 3 -33c-52 -19 -97 -29 -136 -30c-35 -1 -65 10 -91 33s-45 56 -57 99l-49 210l-62 -196c-13 -39 -15 -77 -7 -114z" />
    <glyph glyph-name="X" unicode="X" horiz-adv-x="664" 
d="M30 525v-3c2 53 16 91 42 115s58 36 97 36c41 0 75 -13 103 -39s66 -78 113 -157c49 69 74 133 75 191c21 5 45 7 71 7c37 0 67 -10 90 -30s35 -51 35 -93c0 -38 -14 -75 -43 -110l-117 -143c27 -47 54 -80 80 -99s62 -28 108 -28c1 -7 2 -18 2 -32
c0 -45 -12 -82 -36 -110s-59 -42 -104 -42c-44 0 -83 13 -117 39s-67 65 -99 117l-26 40c-35 -45 -59 -81 -72 -108s-21 -55 -24 -84c-27 -6 -48 -9 -64 -9c-37 0 -67 10 -89 29s-33 49 -33 90c0 40 14 78 43 113l128 144l-19 30c-27 42 -52 74 -74 95s-45 35 -70 41z" />
    <glyph glyph-name="Y" unicode="Y" horiz-adv-x="689" 
d="M144 679c23 0 44 -5 63 -15s35 -22 49 -36s28 -35 43 -63s27 -53 37 -76s23 -55 38 -96c1 3 7 14 18 34s19 35 24 46s11 26 17 44s9 34 9 48c0 21 -6 38 -17 52c27 41 69 62 126 62c42 0 74 -11 96 -33s33 -50 33 -83c0 -28 -8 -58 -25 -89s-36 -59 -58 -84l-73 -88
c-27 -34 -48 -64 -62 -90c-11 -21 -16 -42 -16 -63c0 -39 7 -78 21 -117c-108 -27 -170 -40 -187 -40s-31 4 -42 12s-19 20 -24 36s-8 32 -10 47s-3 34 -4 57v55c0 26 -6 50 -17 73l-96 194c-31 57 -62 85 -92 85c7 48 23 81 49 100s59 28 100 28z" />
    <glyph glyph-name="Z" unicode="Z" horiz-adv-x="618" 
d="M486 360l-202 -149c13 -1 47 -6 101 -15s96 -14 125 -14c30 0 58 4 85 12c19 -32 29 -66 29 -103c0 -38 -13 -69 -39 -93s-62 -36 -109 -36c-44 0 -106 9 -186 27s-138 27 -175 27c-26 0 -46 -4 -60 -11c-29 31 -43 68 -43 111c0 55 21 100 64 135l291 215h-181
c-48 0 -92 -7 -132 -20l-7 19l-7 19l-6 16c-3 7 -5 12 -6 15l-4 14c-2 6 -3 11 -4 15s-2 8 -3 13s-1 9 -1 13c0 35 14 63 41 84s69 31 126 31l255 -13c73 0 119 4 138 11c21 -36 31 -79 31 -128c0 -27 -6 -53 -19 -78s-26 -45 -40 -60s-35 -34 -62 -57z" />
    <glyph glyph-name="bracketleft" unicode="[" horiz-adv-x="369" 
d="M17 -21l2 676c0 29 7 52 20 68s33 24 60 24h222c22 -20 33 -47 33 -81c0 -21 -6 -39 -18 -54s-29 -22 -52 -22h-61c-7 -1 -11 -5 -11 -13v-521c0 -8 4 -12 11 -13h61c22 0 39 -7 51 -22s18 -33 18 -54c0 -27 -11 -57 -34 -90c-26 7 -61 10 -105 10h-117
c-27 0 -47 8 -60 24s-20 39 -20 68z" />
    <glyph glyph-name="backslash" unicode="\" horiz-adv-x="431" 
d="M252 31l-211 515c-17 39 -29 66 -36 81c7 11 20 20 38 27s35 11 50 11c41 0 70 -20 87 -61l213 -516c17 -39 29 -66 36 -81c-7 -11 -20 -20 -39 -27s-36 -10 -51 -10c-41 0 -70 20 -87 61z" />
    <glyph glyph-name="bracketright" unicode="]" horiz-adv-x="369" 
d="M352 646l-2 -679c0 -29 -7 -51 -20 -67s-33 -24 -60 -24h-222c-22 20 -33 47 -33 81c0 21 6 39 18 54s29 22 52 22h61c7 1 11 5 11 13v521c0 8 -4 12 -11 13h-61c-22 0 -39 8 -51 23s-18 33 -18 54c0 27 11 57 34 90c26 -7 61 -10 105 -10h117c27 0 47 -8 60 -24
s20 -38 20 -67z" />
    <glyph glyph-name="asciicircum" unicode="^" horiz-adv-x="480" 
d="M276 382l-54 126l-68 -115c-9 -15 -18 -34 -27 -57c-12 -3 -22 -4 -30 -4c-23 0 -43 5 -60 16s-26 27 -26 48c0 13 2 25 6 36s14 30 29 57l85 137c15 27 30 45 45 55s36 15 63 15c47 0 82 -8 106 -23l124 -269c-5 -21 -18 -38 -39 -51s-44 -19 -69 -19
c-43 0 -71 16 -85 48z" />
    <glyph glyph-name="underscore" unicode="_" horiz-adv-x="500" 
d="M376 0l-235 -2c-45 0 -81 -6 -107 -18c-15 37 -22 75 -22 114c0 33 9 56 27 68s47 19 86 20h232c45 0 81 6 107 18c15 -37 22 -75 22 -114c0 -33 -9 -55 -26 -67s-45 -18 -84 -19z" />
    <glyph glyph-name="grave" unicode="`" horiz-adv-x="293" 
d="M219 556l-164 132c-25 19 -31 48 -18 87c9 21 24 39 45 54s43 24 66 27l145 -180c9 -10 14 -21 14 -34c0 -19 -9 -36 -28 -52s-39 -27 -60 -34z" />
    <glyph glyph-name="a" unicode="a" 
d="M596 310l-2 -104c0 -28 11 -42 33 -42c6 0 15 2 27 6c9 -23 13 -45 13 -66c0 -35 -12 -63 -37 -84s-58 -32 -99 -32c-37 0 -68 7 -92 21s-43 40 -56 77c-35 -63 -96 -96 -183 -98c-56 0 -102 13 -138 40s-54 67 -54 120c0 39 12 72 35 98s51 44 84 54s71 15 113 15
c39 0 75 -5 109 -16c-3 43 -34 64 -93 64c-70 0 -122 -14 -157 -43c-35 20 -52 49 -52 88c0 38 23 68 70 90s110 33 189 33c35 0 67 -2 95 -6s54 -11 79 -21s46 -23 62 -39s29 -37 39 -63s15 -57 15 -92zM349 211l-1 25c-15 0 -29 -2 -43 -5s-27 -10 -40 -21
s-19 -25 -19 -42c0 -14 4 -25 12 -33s19 -12 32 -12c39 0 59 29 59 88z" />
    <glyph glyph-name="b" unicode="b" horiz-adv-x="685" 
d="M309 609l-1 -206c35 85 92 128 171 128c60 0 107 -22 140 -66s50 -99 50 -165c0 -96 -28 -172 -84 -229s-134 -85 -234 -85c-40 0 -76 5 -109 15s-63 25 -90 45s-48 49 -63 86s-23 80 -23 130v256c0 71 -15 127 -44 169c21 5 59 16 114 34s88 27 99 27
c48 0 73 -46 74 -139zM312 330v-46c0 -73 21 -110 64 -110c18 0 32 7 42 21s15 30 15 49c0 27 -8 49 -25 66s-37 26 -61 26c-11 0 -23 -2 -35 -6z" />
    <glyph glyph-name="c" unicode="c" horiz-adv-x="617" 
d="M347 -12h-2c-101 0 -177 23 -229 69s-78 109 -78 189c0 87 27 157 80 209s131 78 233 78c67 0 125 -17 174 -50s74 -73 74 -120c0 -27 -9 -50 -27 -68s-44 -27 -78 -27c-16 0 -31 2 -46 7c-1 25 -10 44 -27 56s-37 18 -60 18c-29 0 -50 -8 -63 -24s-20 -36 -20 -60
c0 -57 36 -85 107 -85c62 0 110 17 143 50c17 -11 30 -26 39 -45s14 -38 14 -58c0 -43 -20 -77 -60 -102s-98 -37 -174 -37z" />
    <glyph glyph-name="d" unicode="d" horiz-adv-x="685" 
d="M640 613l3 -471c3 -35 11 -72 25 -111c-25 -4 -58 -12 -99 -23s-68 -17 -81 -17c-15 0 -27 3 -37 10s-17 17 -22 29s-8 24 -10 36s-3 26 -3 43c-40 -81 -99 -122 -178 -122c-69 0 -121 24 -156 72s-52 110 -52 187c0 83 21 151 62 205s99 81 174 81c53 0 96 -16 129 -49
v82c-2 55 -14 100 -35 135c33 7 66 15 99 23l73 19c16 4 27 6 34 6c30 0 50 -11 59 -33s14 -56 15 -102zM398 201l-2 42c0 73 -22 109 -67 109c-19 0 -34 -6 -45 -19s-17 -29 -17 -48c0 -28 9 -50 26 -66s39 -24 65 -24c13 0 26 2 40 6z" />
    <glyph glyph-name="e" unicode="e" horiz-adv-x="641" 
d="M45 245h-1c0 89 27 159 82 210s131 77 228 77c85 0 152 -15 201 -45s73 -72 73 -127c0 -27 -7 -50 -22 -70s-35 -35 -61 -46s-53 -19 -82 -24s-60 -7 -93 -7c-28 0 -56 3 -84 8c9 -31 46 -47 110 -47c65 0 120 14 164 43c14 -9 25 -22 33 -40s12 -35 12 -52
c0 -46 -24 -80 -72 -103s-108 -34 -180 -34c-205 0 -308 86 -308 257zM294 289l-1 1c40 1 71 7 92 18s32 25 32 42c0 24 -13 36 -40 36c-26 0 -46 -9 -60 -28s-22 -42 -23 -69z" />
    <glyph glyph-name="f" unicode="f" horiz-adv-x="523" 
d="M110 523l23 -2c-6 24 -9 43 -9 58c0 57 19 101 57 131s90 45 157 45c43 0 77 -10 102 -30s38 -49 38 -87c0 -16 -3 -33 -9 -52c-13 2 -26 3 -39 3c-51 0 -81 -23 -89 -68h10l129 10c11 -28 17 -55 17 -80c0 -33 -9 -60 -28 -81s-47 -32 -84 -32c-1 0 -10 1 -28 2v-200
c3 -37 11 -73 25 -108c-16 -3 -39 -8 -69 -15l-78 -17c-22 -5 -38 -7 -49 -7c-15 0 -28 3 -38 9s-17 16 -22 29s-8 25 -10 36s-3 26 -4 44v241l-79 -10c-15 29 -23 57 -23 83c0 65 33 98 100 98z" />
    <glyph glyph-name="g" unicode="g" horiz-adv-x="656" 
d="M332 532l2 1c57 -1 104 -8 142 -20c1 8 2 14 2 19c0 31 -10 55 -29 72c9 17 23 31 43 41s40 15 61 15c31 0 55 -9 71 -27s24 -39 24 -64c0 -47 -24 -85 -73 -115c27 -35 40 -74 40 -118c0 -69 -28 -124 -85 -165s-127 -61 -211 -61c-36 0 -68 2 -95 7c-1 -3 -2 -7 -2 -12
c0 -14 15 -23 44 -28s65 -9 107 -12s84 -8 125 -15s76 -23 105 -49s44 -61 44 -106c-5 -129 -118 -193 -339 -193c-44 0 -84 4 -120 11s-66 20 -91 39s-37 43 -37 71c0 40 20 66 60 78c-51 16 -77 50 -77 102c0 30 9 57 27 80s42 41 72 54c-75 32 -112 89 -112 171
c0 69 29 124 86 164s129 60 216 60zM394 -147h-2c0 9 -11 15 -34 18s-51 5 -85 6s-58 3 -71 6c-3 -6 -5 -12 -5 -19c1 -30 38 -45 111 -45c23 0 43 3 60 9s26 14 26 25zM324 380c-23 0 -41 -6 -53 -19s-18 -28 -18 -45c0 -37 23 -55 68 -55c22 0 39 7 51 20s18 28 18 44
c0 37 -22 55 -66 55z" />
    <glyph glyph-name="h" unicode="h" horiz-adv-x="699" 
d="M654 332l1 -163c1 -25 6 -42 15 -52s26 -16 50 -19c-17 -73 -68 -109 -154 -109c-106 0 -159 50 -159 149v170c0 28 -9 42 -28 42c-18 0 -34 -13 -48 -38s-21 -57 -21 -96v-77c3 -37 11 -73 25 -108c-16 -3 -40 -8 -71 -15s-57 -13 -78 -17s-36 -6 -45 -6
c-16 0 -29 3 -39 9s-17 16 -22 29s-8 25 -10 36s-3 26 -4 44v408c0 71 -15 127 -44 169c21 5 59 16 114 34s88 27 99 27c15 0 28 -4 38 -12s18 -20 23 -36s8 -30 10 -43s3 -29 4 -48v-209c45 88 109 132 192 132c47 0 84 -17 111 -51s41 -84 41 -150z" />
    <glyph glyph-name="i" unicode="i" horiz-adv-x="392" 
d="M342 141l-3 290v29s-1 16 -3 26s-5 18 -10 24s-12 11 -21 15s-20 6 -33 6c-25 -2 -67 -7 -127 -15s-109 -13 -147 -14c0 -13 0 -25 1 -35s3 -22 7 -35s9 -24 15 -33s15 -16 27 -22s27 -9 44 -10v-255c1 -18 2 -33 4 -44s5 -23 10 -36s12 -23 22 -29s23 -9 39 -9
c10 0 26 2 48 6s49 10 81 17l71 16c-14 35 -22 71 -25 108zM329 668l-1 1c0 -34 -11 -61 -34 -81s-56 -30 -100 -30c-83 0 -125 32 -125 97c0 34 13 61 38 82s59 31 101 31c39 0 69 -9 90 -27s31 -42 31 -73z" />
    <glyph glyph-name="j" unicode="j" horiz-adv-x="384" 
d="M349 69v361v29s-1 16 -3 26s-5 18 -10 24s-12 11 -21 15s-20 6 -33 6c-25 -2 -67 -7 -127 -15s-109 -13 -146 -14c0 -13 0 -25 1 -35s3 -22 7 -35s9 -24 15 -33s15 -16 27 -22s27 -9 44 -10v-265c0 -25 0 -46 -1 -62s-3 -36 -6 -60s-8 -43 -14 -57s-15 -26 -28 -36
s-28 -15 -45 -15c-13 0 -26 3 -39 10c-7 -19 -11 -37 -11 -54c0 -35 13 -64 39 -87s60 -35 102 -35c38 0 72 8 102 23s54 34 72 58s33 52 45 85s20 65 24 97s6 66 6 101zM334 667l-1 1c0 -34 -11 -61 -34 -81s-56 -30 -100 -30c-83 0 -125 32 -125 97c0 34 13 61 38 82
s59 31 101 31c39 0 69 -9 90 -27s31 -42 31 -73z" />
    <glyph glyph-name="k" unicode="k" horiz-adv-x="689" 
d="M64 111l2 402c0 71 -15 127 -44 169c21 5 59 16 114 34s88 27 99 27c15 0 28 -4 38 -12s18 -20 23 -36s8 -30 10 -43s3 -29 4 -48v-241c57 109 133 164 228 164c43 0 75 -12 96 -35s32 -52 32 -87c0 -39 -12 -72 -36 -98s-60 -39 -108 -40c21 -26 48 -39 82 -39
c19 0 36 5 51 14c18 -27 27 -58 27 -93c0 -46 -14 -85 -41 -117s-65 -48 -114 -48c-34 0 -64 7 -90 22s-46 35 -60 60s-24 51 -31 78s-10 56 -10 86c31 4 56 13 76 27s30 29 30 46c0 9 -3 17 -9 23s-14 9 -24 9c-36 0 -70 -25 -101 -76v-120c3 -37 11 -73 25 -108
c-16 -3 -40 -8 -71 -15s-57 -13 -78 -17s-36 -6 -45 -6c-16 0 -29 3 -39 9s-17 16 -22 29s-8 25 -10 36s-3 26 -4 44z" />
    <glyph glyph-name="l" unicode="l" horiz-adv-x="380" 
d="M312 609v-394c3 -31 11 -52 25 -63s35 -17 63 -17c-1 -45 -15 -80 -43 -105s-62 -37 -102 -37c-56 0 -102 15 -137 45s-53 76 -53 138v343c0 71 -15 127 -44 169c21 4 60 15 116 33s90 27 101 27c49 0 74 -46 74 -139z" />
    <glyph glyph-name="m" unicode="m" horiz-adv-x="1011" 
d="M654 308l-1 -170c3 -39 11 -75 24 -108c-14 -3 -37 -8 -68 -16s-57 -14 -78 -18s-37 -6 -48 -6c-16 0 -29 3 -39 9s-17 16 -22 29s-8 25 -10 36s-3 26 -4 44v200c0 28 -9 42 -27 42c-20 0 -36 -15 -49 -45v-167c3 -37 11 -73 25 -108l-70 -16c-32 -7 -58 -13 -79 -17
s-37 -6 -47 -6c-16 0 -29 3 -39 9s-17 16 -22 29s-8 25 -10 36s-3 26 -4 44v255c-17 1 -31 5 -43 11s-21 14 -27 23s-11 20 -15 33s-6 25 -7 35s-1 22 -1 35c37 1 86 6 146 14s102 13 127 15c13 0 24 -2 33 -6s16 -9 21 -15s9 -14 11 -24s3 -19 3 -26v-28v-24
c19 39 43 69 72 91s60 33 93 33c36 0 67 -11 93 -33s44 -55 54 -98c19 41 43 73 72 96s61 35 95 35c45 0 82 -17 111 -51s43 -84 43 -149v-159c1 -25 6 -42 15 -52s25 -16 48 -19c-16 -73 -68 -109 -156 -109c-46 0 -82 11 -109 33s-40 61 -40 116v170c0 28 -9 42 -26 42
c-19 0 -34 -15 -45 -45z" />
    <glyph glyph-name="n" unicode="n" horiz-adv-x="727" 
d="M337 224l2 -86c3 -37 11 -73 25 -108l-71 -16c-32 -7 -59 -13 -81 -17s-38 -6 -48 -6c-16 0 -29 3 -39 9s-17 16 -22 29s-8 25 -10 36s-3 26 -4 44v255c-17 1 -31 5 -43 11s-21 14 -27 23s-11 20 -15 33s-6 25 -7 35s-1 22 -1 35c38 1 87 6 147 14s103 13 128 15
c13 0 24 -2 33 -6s16 -9 21 -15s9 -14 11 -24s3 -19 3 -26v-28v-32c45 88 109 132 192 132c47 0 84 -17 111 -51s41 -84 41 -150v-159c1 -25 6 -42 15 -52s26 -16 50 -19c-17 -73 -68 -109 -154 -109c-106 0 -159 50 -159 149v170c0 28 -9 42 -28 42c-18 0 -34 -12 -48 -36
s-21 -55 -22 -92z" />
    <glyph glyph-name="o" unicode="o" 
d="M273 260l-2 -3c0 -21 6 -40 18 -56s30 -24 53 -24c20 0 37 7 51 22s21 35 21 60c0 26 -6 46 -19 61s-29 22 -49 22c-21 0 -38 -7 -52 -22s-21 -35 -21 -60zM346 -15l1 2c-107 0 -186 23 -237 68s-76 108 -76 189c0 83 27 151 81 205s131 81 232 81c104 0 181 -23 231 -69
s75 -109 75 -190c0 -82 -26 -150 -79 -204s-129 -81 -228 -82z" />
    <glyph glyph-name="p" unicode="p" horiz-adv-x="709" 
d="M87 -73l-1 442c-61 1 -92 46 -92 135c35 1 80 6 136 14s96 13 119 15c14 0 26 -3 35 -8s15 -13 18 -25s5 -22 6 -31s2 -21 2 -36v-31c19 43 46 76 81 98s74 33 116 33c60 0 107 -21 141 -64s51 -102 51 -178c0 -93 -21 -167 -62 -221s-93 -81 -156 -81
c-59 0 -108 21 -147 62v-154c1 -26 6 -45 15 -58s25 -21 48 -24c-17 -72 -65 -108 -144 -108c-51 0 -91 18 -121 54s-45 91 -45 166zM331 333v-52c0 -28 6 -51 18 -70s30 -28 55 -28c19 0 34 7 44 20s15 29 15 47c0 28 -9 50 -27 66s-40 24 -66 24c-14 0 -27 -2 -39 -7z" />
    <glyph glyph-name="q" unicode="q" horiz-adv-x="672" 
d="M388 287l1 53c-9 5 -20 7 -33 7c-24 0 -45 -9 -63 -27s-27 -42 -27 -71c0 -40 17 -60 51 -60c21 0 38 9 51 26s20 41 20 72zM634 381l-1 -530c3 -37 11 -73 25 -108c-16 -3 -39 -8 -70 -15s-57 -13 -78 -17s-37 -6 -47 -6c-16 0 -29 3 -39 9s-17 16 -22 29s-8 25 -10 36
s-3 26 -4 44v244c-39 -54 -96 -81 -170 -81c-59 0 -105 20 -138 60s-49 92 -49 156c0 99 31 179 92 239s146 90 254 90c66 0 125 -13 176 -39s78 -63 81 -111z" />
    <glyph glyph-name="r" unicode="r" horiz-adv-x="614" 
d="M337 273l-3 -101c1 -25 6 -42 15 -52s26 -16 50 -19c-16 -73 -67 -109 -154 -109c-105 0 -158 50 -158 149v225c-17 1 -31 5 -43 11s-21 14 -27 23s-11 20 -15 33s-6 25 -7 35s-1 22 -1 35c38 1 87 6 147 14s103 13 128 15c13 0 24 -2 33 -6s16 -9 21 -15s9 -14 11 -24
s3 -19 3 -26v-28v-41c23 49 47 85 72 107s55 33 90 33c33 0 59 -11 77 -33s27 -51 27 -86c-2 -51 -28 -91 -79 -120c-33 18 -64 27 -94 27c-41 0 -72 -16 -93 -47z" />
    <glyph glyph-name="s" unicode="s" horiz-adv-x="592" 
d="M270 362l-4 3c0 -6 10 -12 30 -17l74 -19c29 -7 58 -16 87 -27s54 -28 74 -51s30 -51 30 -83c0 -117 -95 -176 -284 -176c-157 0 -236 40 -236 120c0 20 6 39 17 56s27 30 47 39c54 -34 114 -51 180 -51c21 0 32 6 32 18c0 7 -9 13 -27 17s-40 9 -66 14s-52 12 -78 21
s-48 25 -66 47s-27 50 -27 83c0 55 25 99 74 131s120 48 213 48c73 0 129 -10 168 -30s59 -48 59 -85c0 -19 -7 -37 -21 -54s-35 -30 -64 -39c-19 15 -45 27 -78 37s-65 15 -96 15c-25 0 -38 -6 -38 -17z" />
    <glyph glyph-name="t" unicode="t" horiz-adv-x="473" 
d="M295 561l-1 -27c42 0 85 7 129 22c2 -13 6 -31 11 -54s10 -43 14 -60s6 -30 6 -39c0 -37 -30 -55 -90 -55h-69v-66c0 -85 43 -131 130 -139c-5 -57 -22 -96 -52 -118s-71 -33 -124 -33c-25 0 -48 4 -70 12s-43 20 -63 36s-36 39 -48 69s-18 65 -19 104v306
c-3 47 -11 86 -24 118c106 27 172 40 197 40c49 0 73 -39 73 -116z" />
    <glyph glyph-name="u" unicode="u" horiz-adv-x="711" 
d="M423 268l-3 114c-3 37 -11 73 -24 108c116 27 182 40 199 40c13 0 24 -2 33 -7s16 -11 21 -18s9 -16 12 -27s5 -21 6 -30s2 -20 3 -34v-275c3 -37 11 -73 25 -108l-71 -16c-32 -7 -59 -13 -81 -17s-38 -6 -48 -6c-16 0 -29 3 -39 9s-17 16 -22 29s-8 25 -10 36
s-3 26 -4 44v11c-23 -47 -49 -81 -78 -102s-64 -32 -105 -32c-47 0 -84 16 -111 47s-40 79 -40 144v187c-17 1 -31 5 -43 11s-21 14 -27 23s-11 20 -15 33s-6 25 -7 35s-1 22 -1 35c38 1 87 6 147 14s103 13 128 15c13 0 24 -2 33 -6s16 -9 21 -15s9 -14 11 -24s3 -19 3 -26
v-28v-223c0 -28 12 -42 35 -42c15 0 27 9 37 27s15 43 15 74z" />
    <glyph glyph-name="v" unicode="v" 
d="M468 12l-4 -1c-58 -16 -112 -24 -163 -24c-89 0 -148 36 -177 107c-9 23 -19 54 -29 93l-24 97c-6 25 -17 48 -33 68s-36 30 -60 30c11 100 59 150 144 150c20 0 38 -3 54 -9s30 -13 41 -22s21 -21 30 -36s17 -29 23 -43s12 -31 18 -51s10 -38 13 -53l11 -57
c4 -23 8 -41 11 -55c1 1 6 11 15 30l20 43c4 9 9 22 16 39s12 32 15 45s5 25 5 36c0 31 -11 53 -32 66c10 20 27 36 52 48s52 18 81 18c37 0 69 -10 95 -31s39 -52 39 -93c0 -32 -14 -73 -41 -123l-82 -143c-27 -46 -41 -80 -41 -102c0 -11 1 -20 3 -27z" />
    <glyph glyph-name="w" unicode="w" horiz-adv-x="888" 
d="M598 467l-3 -4c9 21 26 37 51 48s52 17 81 17c38 0 70 -10 96 -31s39 -52 39 -93c0 -35 -9 -76 -27 -122l-55 -134c-18 -43 -27 -79 -27 -107c0 -4 2 -14 5 -29c-57 -18 -104 -27 -142 -27c-79 0 -128 36 -147 107l-35 159l-47 -150c-5 -16 -8 -33 -8 -52
c0 -14 1 -26 4 -37c-57 -18 -104 -27 -141 -27c-75 0 -123 32 -144 96c-5 16 -12 54 -22 114s-22 109 -36 147s-33 57 -58 57c7 88 54 132 140 132c33 0 61 -6 83 -18s39 -32 52 -60s22 -58 28 -90s11 -74 16 -126l48 136c9 25 18 43 27 53s23 15 42 15h54
c19 0 34 -5 44 -16s19 -28 26 -51l46 -152l11 34c6 18 11 33 14 45s7 27 11 45s6 33 6 46c0 37 -11 62 -32 75z" />
    <glyph glyph-name="x" unicode="x" horiz-adv-x="644" 
d="M637 166h-4c5 -15 7 -30 7 -46c0 -39 -13 -71 -39 -96s-60 -37 -103 -37c-75 0 -141 41 -198 124l-14 18l-28 -37c-23 -34 -35 -67 -36 -98c-29 -7 -51 -11 -65 -11c-37 0 -67 9 -90 26s-34 44 -34 81c0 32 12 62 37 91l102 101l-5 8c-28 38 -50 64 -67 79s-37 23 -60 24
c0 29 5 54 15 74s23 34 39 43s31 15 44 18s27 5 41 5c38 0 72 -9 101 -28s62 -56 98 -111l20 29c17 25 26 52 26 80c0 7 -1 13 -4 18c31 7 56 11 76 11c37 0 67 -9 90 -26s35 -44 35 -81c0 -34 -12 -64 -37 -91l-92 -99c19 -28 37 -47 53 -57s37 -15 62 -16c11 0 21 1 30 4z
" />
    <glyph glyph-name="y" unicode="y" horiz-adv-x="688" 
d="M425 127l-5 -5c-24 -51 -50 -87 -79 -108s-64 -31 -105 -31c-101 0 -152 64 -152 191v187c-17 1 -31 5 -43 11s-21 14 -27 23s-11 20 -15 33s-6 25 -7 35s-1 22 -1 35c38 1 87 6 147 14s103 13 128 15c13 0 24 -2 33 -6s16 -9 21 -15s9 -14 11 -24s3 -19 3 -26v-28v-223
c0 -28 12 -42 35 -42c15 0 28 9 38 27s15 43 15 74v116c-3 39 -11 75 -24 108c116 27 180 40 193 40s24 -2 33 -7s16 -11 21 -18s9 -16 12 -27s5 -21 6 -30s2 -20 3 -34v-128c0 -52 -2 -100 -5 -143s-9 -88 -18 -134s-21 -86 -37 -121s-36 -66 -60 -94s-54 -50 -91 -65
s-79 -22 -126 -22c-55 0 -98 14 -129 41s-46 61 -46 101c0 46 20 79 59 98c22 -19 49 -29 82 -29c21 0 39 5 55 15s29 22 38 36s16 31 22 51s10 39 12 56s3 35 3 53z" />
    <glyph glyph-name="z" unicode="z" horiz-adv-x="601" 
d="M94 205l241 133h-153c-41 0 -80 -5 -117 -16c-26 53 -39 88 -39 105c0 69 52 103 156 103l231 -11h23h21h17c8 0 14 0 17 1s7 2 13 3s11 2 14 3l12 4c4 1 8 3 12 5c23 -41 34 -80 34 -117c0 -18 -3 -34 -8 -48s-14 -27 -26 -39s-23 -22 -33 -30s-25 -18 -44 -30l-142 -78
c10 0 30 -1 59 -2s51 -2 66 -2c40 0 78 4 113 11c23 -48 35 -86 35 -114c0 -63 -46 -94 -139 -94c-34 0 -82 1 -144 4s-106 4 -133 4c-43 0 -77 -2 -102 -6c-25 41 -38 78 -38 112c0 41 18 74 54 99z" />
    <glyph glyph-name="braceleft" unicode="{" horiz-adv-x="405" 
d="M30 262l-1 -4c-8 0 -14 3 -18 8s-6 12 -6 20c0 19 8 29 25 29c13 0 24 2 33 5s16 7 20 11s7 11 9 20s3 16 3 21v25v138c0 57 15 102 46 135s75 50 132 50c32 0 59 -8 81 -23s33 -39 33 -71c0 -9 -1 -19 -3 -30c-23 0 -41 -7 -55 -21s-21 -34 -21 -61v-65
c0 -92 -43 -146 -129 -162c41 -7 73 -24 95 -51s33 -63 33 -108v-65c0 -27 7 -47 21 -61s33 -21 56 -21c2 -11 3 -21 3 -30c0 -32 -11 -56 -33 -71s-49 -23 -81 -23c-57 0 -101 17 -132 50s-46 78 -46 135v138v25s-1 12 -3 21s-5 16 -9 20s-11 8 -20 11s-20 5 -33 5z" />
    <glyph glyph-name="bar" unicode="|" horiz-adv-x="219" 
d="M29 -25v628c0 39 -6 73 -17 102c39 19 72 29 100 29c52 0 78 -36 78 -108v-628c0 -39 6 -73 17 -102c-39 -19 -72 -29 -100 -29c-52 0 -78 36 -78 108z" />
    <glyph glyph-name="braceright" unicode="}" horiz-adv-x="405" 
d="M375 262l-1 -3c-13 0 -24 -2 -33 -5s-16 -6 -20 -10s-7 -10 -9 -19s-3 -16 -3 -21v-25v-138c0 -57 -15 -102 -46 -135s-75 -49 -132 -49c-32 0 -59 8 -81 23s-33 39 -33 71c0 9 1 19 3 30c23 0 42 7 56 21s21 34 21 61v65c0 45 11 81 33 108s54 44 95 51
c-86 16 -129 70 -129 162v65c0 27 -7 48 -21 62s-32 21 -55 21c-2 11 -3 21 -3 30c0 32 11 56 33 71s49 23 81 23c57 0 101 -16 132 -49s46 -78 46 -135v-138v-25s1 -12 3 -21s5 -15 9 -19s11 -7 20 -10s20 -5 33 -5c17 0 25 -10 25 -29c0 -8 -2 -15 -6 -20s-10 -8 -18 -8z
" />
    <glyph glyph-name="asciitilde" unicode="~" horiz-adv-x="637" 
d="M112 132l1 -1c-30 7 -54 22 -72 45s-27 50 -27 81c0 44 14 79 42 104s67 38 117 38c35 0 83 -11 143 -32s103 -32 128 -32c41 0 68 19 81 57c29 -7 53 -22 71 -45s27 -50 27 -81c0 -43 -14 -77 -42 -103s-67 -39 -117 -39c-36 0 -84 11 -144 32s-102 32 -127 32
c-41 0 -68 -19 -81 -56z" />
    <glyph glyph-name="exclamdown" unicode="&#xa1;" horiz-adv-x="271" 
d="M11 -114v-1c7 14 13 41 17 82s10 107 17 199c1 24 2 43 3 56c5 49 33 73 84 73c23 0 56 -6 99 -19c-1 -19 3 -71 11 -156s12 -135 12 -149c0 -73 -40 -109 -120 -109c-39 0 -80 8 -123 24zM151 536l-1 -3c35 0 62 -8 80 -25s27 -39 27 -67c0 -29 -11 -55 -34 -78
s-53 -34 -91 -34c-35 0 -61 9 -79 26s-27 40 -27 68c0 29 11 55 34 78s53 35 91 35z" />
    <glyph glyph-name="cent" unicode="&#xa2;" horiz-adv-x="598" 
d="M267 499v3c0 37 -2 62 -5 75c19 15 40 22 63 22c41 0 61 -27 61 -80v-18c47 -3 86 -13 116 -31s45 -44 45 -79c0 -41 -22 -69 -65 -85c-43 26 -85 39 -126 39c-66 0 -99 -34 -99 -102c0 -29 8 -52 25 -69s42 -25 76 -25c21 0 42 3 63 8s35 10 42 14l40 21
c33 -15 49 -42 49 -82c0 -37 -16 -65 -49 -84s-73 -31 -121 -36c0 -33 1 -57 4 -72c-19 -15 -40 -22 -63 -22c-40 0 -60 27 -60 81v17c-129 21 -193 100 -193 236c0 154 66 244 197 269z" />
    <glyph glyph-name="currency" unicode="&#xa4;" horiz-adv-x="709" 
d="M418 214l-252 -1c-34 0 -55 -1 -64 -4c-14 20 -21 40 -21 60c0 40 25 60 76 60h9v128c-28 0 -49 -1 -64 -4c-14 21 -21 47 -21 78c0 43 26 65 77 65h261c96 0 165 -19 207 -57s63 -86 63 -144c0 -57 -24 -101 -71 -133s-114 -48 -200 -48zM157 185l293 1c38 0 62 1 72 4
c14 -20 21 -40 21 -60c0 -18 -5 -32 -16 -42s-31 -15 -60 -15h-104v-19c0 -25 -5 -40 -15 -46s-30 -9 -61 -9h-43c-32 0 -53 3 -63 9s-15 21 -15 46v19c-34 0 -55 -1 -64 -4c-14 20 -21 39 -21 56c0 40 25 60 76 60zM363 330h36c57 0 86 22 86 65c0 42 -29 63 -86 63h-36
v-128z" />
    <glyph glyph-name="yen" unicode="&#xa5;" horiz-adv-x="687" 
d="M180 321l35 -2l-71 102c-28 43 -54 70 -79 81c5 35 19 61 42 78s49 26 78 26c18 0 34 -2 48 -5s27 -9 39 -19s22 -19 30 -28s17 -23 27 -43s18 -37 24 -52s15 -37 26 -66l80 146c12 23 18 45 18 66c12 2 41 3 87 3c56 0 84 -25 84 -75c0 -31 -12 -61 -36 -90l-92 -122h22
c39 0 63 1 73 4c14 -22 21 -41 21 -57c0 -36 -24 -54 -73 -54h-360c-39 0 -64 -1 -75 -4c-13 21 -20 40 -20 57c0 36 24 54 72 54zM260 73h-57c-39 0 -64 -1 -75 -4c-13 21 -20 40 -20 57c0 36 24 54 72 54h361c39 0 63 1 73 4c14 -22 21 -41 21 -57c0 -36 -24 -54 -73 -54
h-103v-19c0 -25 -5 -41 -15 -47s-30 -9 -61 -9h-44c-33 0 -54 3 -64 9s-15 22 -15 47v19z" />
    <glyph glyph-name="section" unicode="&#xa7;" horiz-adv-x="516" 
d="M199 327l1 -2c0 -10 5 -19 15 -28s20 -16 30 -21s26 -13 49 -23c15 9 22 23 22 42c0 7 -2 14 -6 20s-12 13 -24 20s-22 12 -29 16s-20 10 -39 18c-13 -10 -19 -24 -19 -42zM95 124l-3 -9c40 -33 86 -50 137 -50c16 0 28 2 35 5s11 9 11 18c0 7 -6 13 -19 18s-29 9 -49 13
s-41 10 -64 18s-44 17 -64 28s-36 27 -49 48s-19 46 -19 75c0 33 8 62 24 87s39 43 68 54c-34 29 -51 64 -51 105c0 57 22 100 66 129s98 44 161 44c61 0 109 -11 143 -33s51 -50 51 -85c0 -43 -20 -74 -59 -93c-42 29 -85 44 -130 44c-15 0 -26 -1 -34 -4s-12 -8 -11 -16
s10 -15 28 -20s40 -11 66 -17s52 -14 78 -24s48 -27 66 -50s27 -51 27 -84s-8 -62 -24 -87s-39 -43 -68 -54c34 -27 51 -62 51 -105c0 -40 -12 -73 -35 -100s-52 -46 -86 -57s-72 -16 -115 -16c-61 0 -108 12 -142 36s-51 54 -51 89c0 19 5 37 16 54s26 30 45 39z" />
    <glyph glyph-name="dieresis" unicode="&#xa8;" horiz-adv-x="499" 
d="M114 487c-33 0 -58 8 -75 24s-25 37 -25 64s11 51 32 72s50 32 86 32c33 0 58 -8 75 -23s25 -36 25 -63s-11 -51 -32 -73s-50 -33 -86 -33zM366 487c-33 0 -58 8 -75 24s-25 37 -25 64s11 51 32 72s50 32 86 32c33 0 58 -8 75 -23s25 -36 25 -63s-11 -51 -32 -73
s-50 -33 -86 -33z" />
    <glyph glyph-name="copyright" unicode="&#xa9;" horiz-adv-x="746" 
d="M377 -24l-1 -2c-130 0 -223 28 -279 83s-84 134 -84 237c0 49 7 94 21 135s35 78 63 111s66 59 114 77s103 27 166 27c127 0 218 -27 273 -82s83 -133 83 -234c0 -49 -7 -94 -21 -135s-34 -78 -61 -111s-64 -59 -111 -78s-101 -28 -163 -28zM386 99l-3 1
c51 0 90 8 117 24s41 38 41 66c0 31 -10 53 -30 66c-22 -11 -52 -17 -89 -17c-53 0 -80 22 -80 67c0 18 6 33 17 45s25 18 42 18c25 0 47 -11 66 -32c25 0 45 6 60 18s22 28 22 47c0 29 -14 53 -42 73s-63 30 -106 30c-71 0 -125 -19 -163 -58s-57 -92 -57 -159
c0 -58 17 -104 52 -138s86 -51 153 -51z" />
    <glyph glyph-name="guillemotleft" unicode="&#xab;" horiz-adv-x="730" 
d="M293 22l-250 182c-23 17 -35 40 -35 69c0 25 12 47 35 66l250 188c2 -4 6 -10 13 -18s11 -14 13 -17c34 -46 51 -81 51 -105c0 -23 -14 -44 -41 -62l-85 -53l84 -47c14 -9 25 -19 32 -31s11 -22 11 -31c0 -23 -16 -56 -49 -99c-16 -21 -26 -35 -29 -42zM636 21l-250 183
c-24 17 -36 40 -36 69c0 25 12 47 36 66l249 188c3 -4 8 -10 14 -18s11 -14 14 -18c34 -48 51 -83 51 -105c0 -23 -14 -44 -42 -62l-85 -53l84 -47c15 -9 26 -19 33 -31s11 -22 11 -31c0 -21 -16 -54 -49 -99c-15 -20 -25 -34 -30 -42z" />
    <glyph glyph-name="logicalnot" unicode="&#xac;" horiz-adv-x="507" 
d="M343 74v93c0 7 -1 12 -4 15s-8 4 -15 4h-305c-1 8 -3 18 -6 31s-5 24 -6 33s-2 17 -2 25c0 53 35 79 104 79h293c31 0 54 -9 68 -26s21 -46 21 -87v-81c0 -39 -7 -65 -20 -79s-33 -21 -59 -21c-20 0 -43 5 -69 14z" />
    <glyph glyph-name="registered" unicode="&#xae;" horiz-adv-x="501" 
d="M221 396l1 11h11h12c6 -31 15 -52 26 -63s27 -16 48 -16c36 0 55 20 58 60c-20 7 -35 20 -44 39c24 11 36 35 36 72c-1 29 -12 50 -34 64s-57 21 -106 21h-54c-21 0 -34 -5 -40 -16s-9 -27 -9 -48v-136c0 -22 3 -37 8 -45s15 -12 30 -12c14 0 35 4 64 12
c-5 21 -7 40 -7 57zM240 460c-9 0 -15 0 -18 1v58h23c19 0 29 -9 29 -28c0 -21 -11 -31 -34 -31zM255 236c-87 0 -149 18 -186 54s-55 88 -55 156s20 124 60 167s100 65 181 65c83 0 143 -18 179 -54s54 -87 54 -154c0 -69 -19 -125 -57 -168s-97 -65 -176 -66z" />
    <glyph glyph-name="macron" unicode="&#xaf;" horiz-adv-x="400" 
d="M302 668l-3 1c27 0 48 3 63 9c14 -23 21 -47 21 -72s-7 -45 -22 -60s-36 -23 -64 -24c-19 0 -55 2 -108 5s-84 5 -92 5c-27 0 -48 -3 -63 -9c-14 25 -21 49 -21 73c0 25 8 45 24 60s39 22 69 22c17 0 52 -2 105 -5s83 -5 91 -5z" />
    <glyph glyph-name="degree" unicode="&#xb0;" horiz-adv-x="455" 
d="M240 679l2 -1c63 0 112 -17 148 -50s54 -82 54 -146s-19 -115 -57 -153s-92 -57 -163 -57c-69 0 -121 17 -157 51s-54 81 -54 140c0 60 20 111 59 153s95 63 168 63zM284 475l-2 -1c0 39 -15 59 -46 59c-14 0 -26 -6 -36 -18s-15 -27 -15 -46s5 -33 14 -43s21 -15 36 -15
c13 0 24 6 34 17s15 27 15 47z" />
    <glyph glyph-name="plusminus" unicode="&#xb1;" horiz-adv-x="539" 
d="M414 39l-271 -1c-47 0 -83 -6 -108 -18c-15 37 -23 70 -23 98c0 27 8 48 24 62s46 21 89 21h270c47 0 83 6 108 18c15 -37 23 -70 23 -98c0 -27 -8 -47 -24 -61s-45 -21 -88 -21zM416 345l-38 -3c-7 0 -12 -1 -15 -4s-4 -8 -4 -15v-15c0 -15 2 -37 7 -66
c-49 -11 -86 -17 -111 -17c-51 0 -77 18 -77 54v64h-38c-47 0 -83 -6 -108 -18c-15 37 -23 70 -23 98c0 27 8 48 24 62s46 21 89 21h36c7 0 12 1 15 4s4 8 4 15v18c0 51 -2 86 -7 105c30 19 63 29 98 29c28 0 50 -8 66 -24s24 -44 24 -85v-61h39c47 0 83 6 108 18
c15 -37 23 -70 23 -98c0 -27 -8 -47 -24 -61s-45 -21 -88 -21z" />
    <glyph glyph-name="acute" unicode="&#xb4;" horiz-adv-x="293" 
d="M259 687l-164 -132c-21 7 -41 18 -60 34s-28 33 -28 52c0 12 4 23 13 34l145 180c23 -4 45 -13 66 -28s36 -33 44 -54c6 -14 8 -29 6 -46s-9 -30 -22 -40z" />
    <glyph glyph-name="mu" unicode="&#xb5;" horiz-adv-x="755" 
d="M467 96l-1 -4c-10 -37 -24 -64 -41 -80s-41 -24 -71 -24c-32 0 -54 13 -66 38v-80c0 -40 10 -71 29 -94s41 -35 66 -37c-3 -37 -16 -65 -39 -84s-51 -28 -84 -28c-107 0 -161 68 -161 204v455c-21 1 -39 6 -54 15s-26 21 -33 36s-12 29 -15 43s-4 29 -4 44
c38 1 89 6 153 14s108 13 132 15c13 0 24 -2 33 -6s16 -9 21 -15s9 -14 11 -24s3 -19 3 -26v-28v-253c0 -35 12 -52 37 -52c23 0 43 12 59 36s24 59 24 105v116c-3 37 -11 73 -24 108c116 27 182 40 199 40c13 0 24 -2 33 -7s16 -11 21 -18s9 -16 12 -27s5 -21 6 -30
s2 -20 3 -34v-275c3 -37 11 -73 25 -108l-71 -16c-32 -7 -59 -13 -81 -17s-38 -6 -48 -6c-49 0 -74 32 -74 96v8z" />
    <glyph glyph-name="mu" unicode="&#x3bc;" horiz-adv-x="755" 
d="M467 96l-1 -4c-10 -37 -24 -64 -41 -80s-41 -24 -71 -24c-32 0 -54 13 -66 38v-80c0 -40 10 -71 29 -94s41 -35 66 -37c-3 -37 -16 -65 -39 -84s-51 -28 -84 -28c-107 0 -161 68 -161 204v455c-21 1 -39 6 -54 15s-26 21 -33 36s-12 29 -15 43s-4 29 -4 44
c38 1 89 6 153 14s108 13 132 15c13 0 24 -2 33 -6s16 -9 21 -15s9 -14 11 -24s3 -19 3 -26v-28v-253c0 -35 12 -52 37 -52c23 0 43 12 59 36s24 59 24 105v116c-3 37 -11 73 -24 108c116 27 182 40 199 40c13 0 24 -2 33 -7s16 -11 21 -18s9 -16 12 -27s5 -21 6 -30
s2 -20 3 -34v-275c3 -37 11 -73 25 -108l-71 -16c-32 -7 -59 -13 -81 -17s-38 -6 -48 -6c-49 0 -74 32 -74 96v8z" />
    <glyph glyph-name="paragraph" unicode="&#xb6;" horiz-adv-x="683" 
d="M583 378l-1 -573c-8 -4 -21 -6 -38 -6c-27 0 -47 6 -60 19s-19 35 -19 66v490h-43v-568c-9 -4 -22 -6 -39 -6c-27 0 -47 6 -60 19s-19 35 -19 66v156c-24 -15 -55 -23 -92 -23c-67 0 -118 21 -152 63s-51 94 -51 156c0 93 29 164 87 214s142 75 251 75h226c9 0 34 1 74 3
c16 -23 24 -46 24 -68c0 -23 -8 -42 -24 -58s-37 -24 -64 -25zM303 199v174c-31 -2 -55 -13 -71 -34s-24 -48 -24 -81c0 -21 5 -38 14 -52s23 -21 42 -21c15 0 28 5 39 14z" />
    <glyph glyph-name="cedilla" unicode="&#xb8;" horiz-adv-x="333" 
d="M55 -64l19 87h129l-13 -63c42 -5 75 -19 98 -42s35 -50 35 -82c0 -47 -18 -82 -54 -104s-82 -33 -137 -33c-81 0 -121 30 -121 90c0 23 6 43 19 60c26 -15 61 -22 104 -22c28 0 42 6 42 17c0 7 -6 11 -19 13s-27 3 -43 3s-30 4 -43 12s-19 21 -19 38c0 7 1 16 3 26z" />
    <glyph glyph-name="guillemotright" unicode="&#xbb;" horiz-adv-x="730" 
d="M437 528l248 -182c23 -18 35 -41 35 -70c0 -25 -12 -47 -35 -66l-250 -188l-12 18s-10 15 -13 18c-34 45 -51 80 -51 105c0 23 14 44 41 62l86 52l-86 48c-28 18 -42 38 -42 61c0 22 16 55 49 100c17 23 27 37 30 42zM92 529l250 -185c24 -17 36 -40 36 -69
c0 -25 -12 -47 -36 -66l-249 -188c-2 3 -6 9 -13 17s-12 15 -15 20c-34 47 -51 82 -51 105s14 44 42 62l85 52l-85 48c-14 9 -25 19 -32 31s-11 22 -11 31c0 20 16 53 49 100c17 23 27 37 30 42z" />
    <glyph glyph-name="onequarter" unicode="&#xbc;" horiz-adv-x="1115" 
d="M793 526l-334 -493c-21 -30 -48 -45 -81 -45c-43 0 -74 19 -93 57c19 14 36 32 51 54l334 493c21 30 48 45 81 45c43 0 74 -19 93 -57c-19 -14 -36 -32 -51 -54zM327 377l88 -1c11 -20 16 -40 16 -59c0 -39 -22 -58 -67 -58h-329c-11 19 -16 39 -16 60c0 38 23 57 68 57
h42v157c-34 0 -61 6 -81 17s-33 31 -40 59c19 5 45 13 77 23s61 19 86 26s46 10 63 10h35c21 0 36 -4 45 -13s13 -23 13 -42v-236zM1037 351l-2 -175l54 3c9 -12 13 -25 13 -38c0 -12 -5 -23 -14 -32s-22 -14 -39 -14h-13v-91c-28 -9 -58 -14 -90 -14c-70 0 -105 21 -105 62
v43h-64c-59 0 -105 -1 -138 -2c-15 16 -22 33 -22 52s7 36 22 51l180 170c27 27 57 40 90 40h72c37 0 56 -18 56 -55zM840 176v102l-103 -102h103z" />
    <glyph glyph-name="onehalf" unicode="&#xbd;" horiz-adv-x="1157" 
d="M793 526l-334 -493c-21 -30 -48 -45 -81 -45c-43 0 -74 19 -93 57c19 14 36 32 51 54l334 493c21 30 48 45 81 45c43 0 74 -19 93 -57c-19 -14 -36 -32 -51 -54zM327 377l88 -1c11 -20 16 -40 16 -59c0 -39 -22 -58 -67 -58h-329c-11 19 -16 39 -16 60c0 38 23 57 68 57
h42v157c-34 0 -61 6 -81 17s-33 31 -40 59c19 5 45 13 77 23s61 19 86 26s46 10 63 10h35c21 0 36 -4 45 -13s13 -23 13 -42v-236zM900 129l69 -5c50 0 87 11 110 32c19 -8 34 -20 46 -35s18 -31 18 -48c0 -22 -9 -40 -28 -55s-48 -22 -88 -22h-299c-15 24 -22 46 -22 66
c0 39 25 68 76 87c30 11 50 19 60 23s23 10 38 18s25 15 29 22s6 15 6 24c0 11 -5 20 -14 27s-23 11 -42 11c-34 0 -68 -9 -102 -28c-34 22 -51 46 -51 73c0 29 18 51 54 67s84 24 144 24c66 0 117 -10 153 -30s54 -50 54 -90c0 -74 -70 -128 -211 -161z" />
    <glyph glyph-name="threequarters" unicode="&#xbe;" horiz-adv-x="1119" 
d="M163 665l202 -2c20 0 35 -5 44 -14s13 -23 12 -41l-2 -38c-2 -19 -16 -34 -42 -45l-99 -39c56 -2 96 -12 121 -29s37 -42 37 -75c0 -87 -75 -131 -224 -131c-62 0 -111 8 -147 24s-54 41 -54 74c0 29 12 51 37 67c40 -25 84 -37 133 -37c40 0 60 10 60 30
c0 10 -6 17 -18 20s-33 5 -64 5c-20 0 -30 7 -30 21v10c0 13 9 23 26 30l103 38h-135c-29 0 -51 8 -66 24s-23 35 -23 57c0 25 10 45 30 61c21 -7 54 -10 99 -10zM798 524l-334 -493c-21 -30 -48 -45 -81 -45c-43 0 -74 19 -93 57c19 14 36 32 51 54l334 493
c21 30 48 45 81 45c43 0 74 -19 93 -57c-19 -14 -36 -32 -51 -54zM1044 350l-2 -175l54 3c9 -12 13 -25 13 -38c0 -12 -5 -23 -14 -32s-22 -14 -39 -14h-13v-91c-28 -9 -58 -14 -90 -14c-70 0 -105 21 -105 62v43h-64c-59 0 -105 -1 -138 -2c-15 16 -22 33 -22 52
s7 36 22 51l180 170c27 27 57 40 90 40h72c37 0 56 -18 56 -55zM847 175v102l-103 -102h103z" />
    <glyph glyph-name="questiondown" unicode="&#xbf;" horiz-adv-x="493" 
d="M269 -149c-30 0 -59 2 -86 7s-54 13 -82 24s-50 28 -67 51s-26 51 -27 84c0 27 6 52 17 74s24 40 40 54s32 27 48 40s29 27 40 43s17 33 17 52c25 18 61 27 108 27c32 0 59 -7 81 -21s33 -35 33 -63c0 -22 -8 -42 -23 -60s-32 -32 -50 -42s-35 -20 -50 -30
s-23 -19 -23 -26c0 -13 17 -19 51 -19c43 0 85 9 127 27c41 -24 61 -56 61 -95c0 -41 -19 -72 -56 -94s-90 -33 -159 -33zM272 537l-1 -3c35 0 62 -8 80 -25s27 -39 27 -67c0 -29 -11 -55 -34 -78s-53 -34 -91 -34c-35 0 -61 9 -79 26s-27 40 -27 68c0 29 11 55 34 78
s53 35 91 35z" />
    <glyph glyph-name="Agrave" unicode="&#xc0;" horiz-adv-x="670" 
d="M210 505l-1 -3c-31 -1 -55 -3 -73 -5c-17 35 -25 66 -25 94c0 57 46 85 139 85h180c34 0 61 -7 80 -21s35 -39 47 -74l148 -445c13 -42 27 -78 42 -109c-77 -25 -133 -37 -168 -37c-24 0 -43 7 -58 20s-28 36 -39 69l-13 40h-219l-46 -120h-110c-24 0 -41 7 -52 21
s-16 30 -15 48s6 36 14 55l127 303c15 34 29 60 42 79zM368 430l-57 -147c-3 -11 1 -17 12 -17h96zM359 702l-164 132c-25 19 -31 48 -18 87c9 21 24 39 45 54s43 24 66 27l145 -180c9 -10 14 -21 14 -34c0 -19 -9 -36 -28 -52s-39 -27 -60 -34z" />
    <glyph glyph-name="Aacute" unicode="&#xc1;" horiz-adv-x="669" 
d="M210 505l-1 -3c-31 -1 -55 -3 -73 -5c-17 35 -25 66 -25 94c0 57 46 85 139 85h180c34 0 61 -7 80 -21s35 -39 47 -74l148 -445c13 -42 27 -78 42 -109c-77 -25 -133 -37 -168 -37c-24 0 -43 7 -58 20s-28 36 -39 69l-13 40h-219l-46 -120h-110c-24 0 -41 7 -52 21
s-16 30 -15 48s6 36 14 55l127 303c15 34 29 60 42 79zM368 430l-57 -147c-3 -11 1 -17 12 -17h96zM526 833l-164 -132c-21 7 -41 18 -60 34s-28 33 -28 52c0 12 4 23 13 34l145 180c23 -4 45 -13 66 -28s36 -33 44 -54c6 -14 8 -29 6 -46s-9 -30 -22 -40z" />
    <glyph glyph-name="Acircumflex" unicode="&#xc2;" horiz-adv-x="670" 
d="M210 505l-3 2c-13 -19 -27 -45 -42 -79l-127 -303c-8 -19 -13 -37 -14 -55s4 -34 15 -48s29 -21 53 -21h110l46 120h219l13 -40c11 -33 24 -56 39 -69s35 -19 59 -19c35 0 91 12 168 37c-15 31 -29 67 -42 109l-148 445c-12 35 -27 60 -46 74s-45 21 -79 21h-180
c-93 0 -139 -28 -139 -85c0 -28 8 -59 25 -94c18 2 42 4 73 5zM310 288l57 147l51 -164h-96c-11 0 -15 6 -12 17zM433 926l124 -157c-5 -21 -17 -37 -37 -49s-42 -18 -65 -18c-31 0 -54 10 -69 30l-48 83l-38 -61c-9 -13 -19 -31 -30 -54c-30 0 -56 5 -78 15s-36 25 -42 44
s2 43 24 72l54 66c16 20 31 34 44 41s31 11 53 11c48 0 84 -8 108 -23z" />
    <glyph glyph-name="Atilde" unicode="&#xc3;" horiz-adv-x="670" 
d="M210 505l-3 2c-13 -19 -27 -45 -42 -79l-127 -303c-8 -19 -13 -37 -14 -55s4 -34 15 -48s29 -21 53 -21h110l46 120h219l13 -40c11 -33 24 -56 39 -69s35 -19 59 -19c35 0 91 12 168 37c-15 31 -29 67 -42 109l-148 445c-12 35 -27 60 -46 74s-45 21 -79 21h-180
c-93 0 -139 -28 -139 -85c0 -28 8 -59 25 -94c18 2 42 4 73 5zM310 288l57 147l51 -164h-96c-11 0 -15 6 -12 17zM562 826v-2c0 -31 -10 -55 -31 -71s-49 -24 -84 -24c-18 0 -45 3 -80 8s-61 8 -78 8c-37 0 -62 -13 -75 -38c-25 3 -45 12 -61 28s-24 36 -24 60
c0 60 35 91 105 94c21 0 52 -3 93 -8s68 -8 80 -8c35 0 58 14 69 42c26 -3 47 -12 62 -28s23 -36 24 -61z" />
    <glyph glyph-name="Adieresis" unicode="&#xc4;" horiz-adv-x="670" 
d="M210 505l-3 2c-13 -19 -27 -45 -42 -79l-127 -303c-8 -19 -13 -37 -14 -55s4 -34 15 -48s29 -21 53 -21h110l46 120h219l13 -40c11 -33 24 -56 39 -69s35 -19 59 -19c35 0 91 12 168 37c-15 31 -29 67 -42 109l-148 445c-12 35 -27 60 -46 74s-45 21 -79 21h-180
c-93 0 -139 -28 -139 -85c0 -28 8 -59 25 -94c18 2 42 4 73 5zM310 288l57 147l51 -164h-96c-11 0 -15 6 -12 17zM219 712c-33 0 -58 8 -75 24s-25 37 -25 64s11 51 32 72s50 32 86 32c33 0 58 -8 75 -23s25 -36 25 -63s-11 -51 -32 -73s-50 -33 -86 -33zM471 712
c-33 0 -58 8 -75 24s-25 37 -25 64s11 51 32 72s50 32 86 32c33 0 58 -8 75 -23s25 -36 25 -63s-11 -51 -32 -73s-50 -33 -86 -33z" />
    <glyph glyph-name="Aring" unicode="&#xc5;" horiz-adv-x="670" 
d="M210 505l-3 2c-13 -19 -27 -45 -42 -79l-127 -303c-8 -19 -13 -37 -14 -55s4 -34 15 -48s29 -21 53 -21h110l46 120h219l13 -40c11 -33 24 -56 39 -69s35 -19 59 -19c35 0 91 12 168 37c-15 31 -29 67 -42 109l-148 445c-12 35 -27 60 -46 74s-45 21 -79 21h-180
c-93 0 -139 -28 -139 -85c0 -28 8 -59 25 -94c18 2 42 4 73 5zM310 288l57 147l51 -164h-96c-11 0 -15 6 -12 17zM358 969l2 -1c43 0 77 -10 102 -31s37 -51 37 -91s-13 -72 -39 -95s-64 -35 -114 -35c-48 0 -84 11 -109 32s-37 50 -37 87s14 69 41 95s66 39 117 39z
M388 842l-1 -2c0 24 -11 36 -32 36c-9 0 -17 -3 -24 -10s-11 -16 -11 -28c0 -24 11 -36 34 -36c9 0 17 4 24 11s10 17 10 29z" />
    <glyph glyph-name="AE" unicode="&#xc6;" horiz-adv-x="937" 
d="M664 177l128 -4c37 0 72 4 105 13c21 -28 31 -62 31 -102c0 -20 -4 -36 -12 -49s-19 -22 -34 -27s-28 -8 -40 -9s-27 -2 -46 -2h-270c-36 0 -63 7 -82 21s-28 43 -28 86v13h-163l-52 -120h-110c-24 0 -41 7 -51 21s-14 30 -12 48s8 36 17 55l142 303c14 30 29 56 45 79
c-31 -1 -55 -3 -73 -5c-15 27 -22 56 -22 87c0 61 48 91 145 91h506c44 0 79 3 105 10c21 -28 31 -61 31 -99c0 -20 -4 -36 -12 -49s-19 -22 -34 -27s-28 -8 -40 -9s-27 -2 -46 -2h-143v-63c0 -7 1 -12 3 -14s6 -3 12 -3h180c9 -22 13 -44 13 -67c0 -63 -42 -94 -125 -94
h-83v-65c0 -7 1 -12 3 -14s6 -3 12 -3zM335 265h79v233l-91 -216c-3 -11 1 -17 12 -17z" />
    <glyph glyph-name="Ccedilla" unicode="&#xc7;" horiz-adv-x="639" 
d="M46 313l-2 -3c0 111 29 200 87 268s146 102 265 102c31 0 61 -2 89 -7s54 -13 78 -24s43 -27 57 -47s21 -44 21 -71c0 -25 -7 -47 -21 -67s-33 -34 -58 -43c-59 33 -112 50 -159 50c-79 0 -118 -45 -118 -136c0 -40 10 -71 30 -93s51 -33 92 -33c59 0 118 19 178 56
c19 -11 34 -26 44 -46s15 -41 15 -64c0 -49 -20 -87 -61 -113s-91 -42 -150 -49l-6 -32c42 -5 75 -19 98 -42s35 -50 35 -82c0 -47 -18 -82 -54 -104s-82 -33 -137 -33c-81 0 -121 30 -121 90c0 23 6 43 19 60c26 -15 61 -22 104 -22c28 0 42 6 42 17c0 7 -6 11 -19 13
s-27 3 -43 3s-30 4 -43 12s-19 21 -19 38c0 7 1 16 3 26l13 58c-87 13 -152 47 -195 102s-64 127 -64 216z" />
    <glyph glyph-name="Egrave" unicode="&#xc8;" horiz-adv-x="639" 
d="M370 177l122 -3c37 0 72 4 105 13c21 -28 31 -62 31 -102c0 -20 -4 -36 -12 -49s-19 -22 -34 -27s-28 -8 -40 -9s-27 -2 -46 -2h-271c-36 0 -63 7 -82 21s-28 43 -28 86v395c-26 0 -51 -2 -76 -5c-21 31 -32 62 -32 94c0 26 9 47 27 63s44 24 78 24h375c44 0 79 3 105 10
c21 -28 31 -61 31 -99c0 -20 -4 -36 -12 -49s-19 -22 -34 -27s-28 -8 -40 -9s-27 -2 -46 -2h-136v-63c0 -7 1 -12 3 -14s6 -3 12 -3h173c9 -22 13 -44 13 -67c0 -63 -42 -94 -125 -94h-76v-65c0 -7 1 -12 3 -14s6 -3 12 -3zM348 702l-164 132c-25 19 -31 48 -18 87
c9 21 24 39 45 54s43 24 66 27l145 -180c9 -10 14 -21 14 -34c0 -19 -9 -36 -28 -52s-39 -27 -60 -34z" />
    <glyph glyph-name="Eacute" unicode="&#xc9;" horiz-adv-x="639" 
d="M370 177l122 -3c37 0 72 4 105 13c21 -28 31 -62 31 -102c0 -20 -4 -36 -12 -49s-19 -22 -34 -27s-28 -8 -40 -9s-27 -2 -46 -2h-271c-36 0 -63 7 -82 21s-28 43 -28 86v395c-26 0 -51 -2 -76 -5c-21 31 -32 62 -32 94c0 26 9 47 27 63s44 24 78 24h375c44 0 79 3 105 10
c21 -28 31 -61 31 -99c0 -20 -4 -36 -12 -49s-19 -22 -34 -27s-28 -8 -40 -9s-27 -2 -46 -2h-136v-63c0 -7 1 -12 3 -14s6 -3 12 -3h173c9 -22 13 -44 13 -67c0 -63 -42 -94 -125 -94h-76v-65c0 -7 1 -12 3 -14s6 -3 12 -3zM463 833l-164 -132c-21 7 -41 18 -60 34
s-28 33 -28 52c0 12 4 23 13 34l145 180c23 -4 45 -13 66 -28s36 -33 44 -54c6 -14 8 -29 6 -46s-9 -30 -22 -40z" />
    <glyph glyph-name="Ecircumflex" unicode="&#xca;" horiz-adv-x="639" 
d="M493 177l-127 2c-6 0 -10 1 -12 3s-3 7 -3 14v65h76c83 0 125 31 125 94c0 23 -4 45 -13 67h-173c-6 0 -10 1 -12 3s-3 7 -3 14v63h136c19 0 34 1 46 2s26 4 41 9s26 14 34 27s12 29 12 49c0 38 -10 71 -31 99c-26 -7 -61 -10 -105 -10h-375c-34 0 -60 -8 -78 -24
s-27 -37 -27 -63c0 -32 11 -63 32 -94c25 3 50 5 76 5v-395c0 -43 10 -71 29 -85s47 -21 83 -21h271c19 0 35 1 47 2s26 4 41 9s26 14 34 27s12 29 12 49c0 40 -10 74 -31 102c-33 -9 -68 -13 -105 -13zM419 937l124 -157c-5 -21 -17 -37 -37 -49s-42 -18 -65 -18
c-31 0 -54 10 -69 30l-48 83l-38 -61c-9 -13 -19 -31 -30 -54c-30 0 -56 5 -78 15s-36 25 -42 44s2 43 24 72l54 66c16 20 31 34 44 41s31 11 53 11c48 0 84 -8 108 -23z" />
    <glyph glyph-name="Edieresis" unicode="&#xcb;" horiz-adv-x="639" 
d="M493 177l-127 2c-6 0 -10 1 -12 3s-3 7 -3 14v65h76c83 0 125 31 125 94c0 23 -4 45 -13 67h-173c-6 0 -10 1 -12 3s-3 7 -3 14v63h136c19 0 34 1 46 2s26 4 41 9s26 14 34 27s12 29 12 49c0 38 -10 71 -31 99c-26 -7 -61 -10 -105 -10h-375c-34 0 -60 -8 -78 -24
s-27 -37 -27 -63c0 -32 11 -63 32 -94c25 3 50 5 76 5v-395c0 -43 10 -71 29 -85s47 -21 83 -21h271c19 0 35 1 47 2s26 4 41 9s26 14 34 27s12 29 12 49c0 40 -10 74 -31 102c-33 -9 -68 -13 -105 -13zM183 712c-33 0 -58 8 -75 24s-25 37 -25 64s11 51 32 72s50 32 86 32
c33 0 58 -8 75 -23s25 -36 25 -63s-11 -51 -32 -73s-50 -33 -86 -33zM435 712c-33 0 -58 8 -75 24s-25 37 -25 64s11 51 32 72s50 32 86 32c33 0 58 -8 75 -23s25 -36 25 -63s-11 -51 -32 -73s-50 -33 -86 -33z" />
    <glyph glyph-name="Igrave" unicode="&#xcc;" horiz-adv-x="482" 
d="M135 180l2 333c-26 0 -51 -2 -76 -5c-21 31 -32 59 -32 84c0 26 9 47 27 63s44 24 78 24h197c44 0 79 3 105 10c21 -28 31 -61 31 -99c0 -49 -26 -75 -78 -78c-7 -1 -11 -5 -11 -13v-332c25 0 50 2 75 5c21 -31 32 -61 32 -90c0 -25 -9 -45 -27 -60s-44 -22 -79 -22h-302
c-21 28 -31 58 -31 89c0 49 26 75 78 78c7 1 11 5 11 13zM291 706l-164 132c-25 19 -31 48 -18 87c9 21 24 39 45 54s43 24 66 27l145 -180c9 -10 14 -21 14 -34c0 -19 -9 -36 -28 -52s-39 -27 -60 -34z" />
    <glyph glyph-name="Iacute" unicode="&#xcd;" horiz-adv-x="482" 
d="M135 180l2 333c-26 0 -51 -2 -76 -5c-21 31 -32 59 -32 84c0 26 9 47 27 63s44 24 78 24h197c44 0 79 3 105 10c21 -28 31 -61 31 -99c0 -49 -26 -75 -78 -78c-7 -1 -11 -5 -11 -13v-332c25 0 50 2 75 5c21 -31 32 -61 32 -90c0 -25 -9 -45 -27 -60s-44 -22 -79 -22h-302
c-21 28 -31 58 -31 89c0 49 26 75 78 78c7 1 11 5 11 13zM401 837l-164 -132c-21 7 -41 18 -60 34s-28 33 -28 52c0 12 4 23 13 34l145 180c23 -4 45 -13 66 -28s36 -33 44 -54c6 -14 8 -29 6 -46s-9 -30 -22 -40z" />
    <glyph glyph-name="Icircumflex" unicode="&#xce;" horiz-adv-x="482" 
d="M135 512l-1 -334c0 -8 -4 -12 -11 -13c-52 -3 -78 -29 -78 -78c0 -31 10 -61 31 -89h302c35 0 61 8 79 23s27 35 27 60c0 29 -11 59 -32 90c-25 -3 -50 -5 -75 -5v332c0 8 4 12 11 13c52 3 78 29 78 78c0 38 -10 71 -31 99c-26 -7 -61 -10 -105 -10h-197
c-34 0 -60 -8 -78 -24s-27 -37 -27 -63c0 -25 11 -53 32 -84c25 3 50 5 75 5zM339 930l124 -157c-5 -21 -17 -37 -37 -49s-42 -18 -65 -18c-31 0 -54 10 -69 30l-48 83l-38 -61c-9 -13 -19 -31 -30 -54c-30 0 -56 5 -78 15s-36 25 -42 44s2 43 24 72l54 66
c16 20 31 34 44 41s31 11 53 11c48 0 84 -8 108 -23z" />
    <glyph glyph-name="Idieresis" unicode="&#xcf;" horiz-adv-x="494" 
d="M142 512l-1 -334c0 -8 -4 -12 -11 -13c-52 -3 -78 -29 -78 -78c0 -31 10 -61 31 -89h302c35 0 61 8 79 23s27 35 27 60c0 29 -11 59 -32 90c-25 -3 -50 -5 -75 -5v332c0 8 4 12 11 13c52 3 78 29 78 78c0 38 -10 71 -31 99c-26 -7 -61 -10 -105 -10h-197
c-34 0 -60 -8 -78 -24s-27 -37 -27 -63c0 -25 11 -53 32 -84c25 3 50 5 75 5zM125 708c-33 0 -58 8 -75 24s-25 37 -25 64s11 51 32 72s50 32 86 32c33 0 58 -8 75 -23s25 -36 25 -63s-11 -51 -32 -73s-50 -33 -86 -33zM377 708c-33 0 -58 8 -75 24s-25 37 -25 64
s11 51 32 72s50 32 86 32c33 0 58 -8 75 -23s25 -36 25 -63s-11 -51 -32 -73s-50 -33 -86 -33z" />
    <glyph glyph-name="Eth" unicode="&#xd0;" horiz-adv-x="721" 
d="M120 388l-4 111c-25 0 -50 -2 -75 -5c-21 31 -32 62 -32 94c0 19 4 35 12 48s19 22 34 27s30 9 44 11s31 3 50 3h209c129 0 225 -28 288 -84s94 -134 94 -235c0 -124 -36 -215 -108 -274s-171 -88 -298 -88h-94c-21 0 -39 3 -54 9s-27 13 -35 22s-14 21 -19 36
s-8 29 -9 41s-2 27 -3 45v127h-26c-15 0 -33 -2 -53 -7c-16 19 -24 40 -24 62c0 38 27 57 81 57h22zM354 385l22 1c15 0 33 2 53 7c16 -19 24 -40 24 -62c0 -38 -27 -57 -81 -57h-19v-114h15c45 0 79 18 102 53s34 77 34 126c0 53 -11 93 -34 120s-54 40 -94 40h-22v-114z
" />
    <glyph glyph-name="Ntilde" unicode="&#xd1;" horiz-adv-x="745" 
d="M724 527l-9 -512c-24 -13 -55 -20 -92 -20c-28 0 -49 2 -63 6s-26 11 -37 22l-239 318c2 -11 4 -68 6 -171c1 -69 10 -122 26 -159c-57 -14 -96 -21 -117 -21s-38 4 -51 11s-22 18 -28 33s-10 31 -12 47s-3 37 -3 62v368c-22 0 -44 -2 -66 -5c-21 31 -32 59 -32 84
c0 26 9 47 27 63s44 24 78 24h100c32 -1 60 -7 84 -18s48 -31 71 -60l173 -244l-1 142c-3 72 -12 125 -27 160c57 14 96 21 117 21s38 -3 51 -10s23 -18 29 -33s10 -30 12 -46s3 -37 3 -62zM609 813v-2c0 -31 -10 -55 -31 -71s-49 -24 -84 -24c-18 0 -45 3 -80 8
s-61 8 -78 8c-37 0 -62 -13 -75 -38c-25 3 -45 12 -61 28s-24 36 -24 60c0 60 35 91 105 94c21 0 52 -3 93 -8s68 -8 80 -8c35 0 58 14 69 42c26 -3 47 -12 62 -28s23 -36 24 -61z" />
    <glyph glyph-name="Ograve" unicode="&#xd2;" horiz-adv-x="731" 
d="M287 335v-1c0 -88 34 -132 103 -132c71 0 106 44 106 133c0 42 -9 75 -27 99s-43 36 -75 36c-71 0 -107 -45 -107 -135zM393 -13l-2 2c-231 0 -347 109 -347 327c0 51 7 98 21 141s35 82 63 116s65 61 111 80s99 29 159 29c226 0 339 -108 339 -325
c0 -51 -7 -98 -20 -141s-33 -82 -60 -117s-63 -62 -108 -82s-97 -30 -156 -30zM412 707l-164 132c-25 19 -31 48 -18 87c9 21 24 39 45 54s43 24 66 27l145 -180c9 -10 14 -21 14 -34c0 -19 -9 -36 -28 -52s-39 -27 -60 -34z" />
    <glyph glyph-name="Oacute" unicode="&#xd3;" horiz-adv-x="731" 
d="M287 335v-1c0 -88 34 -132 103 -132c71 0 106 44 106 133c0 42 -9 75 -27 99s-43 36 -75 36c-71 0 -107 -45 -107 -135zM393 -13l-2 2c-231 0 -347 109 -347 327c0 51 7 98 21 141s35 82 63 116s65 61 111 80s99 29 159 29c226 0 339 -108 339 -325
c0 -51 -7 -98 -20 -141s-33 -82 -60 -117s-63 -62 -108 -82s-97 -30 -156 -30zM502 838l-164 -132c-21 7 -41 18 -60 34s-28 33 -28 52c0 12 4 23 13 34l145 180c23 -4 45 -13 66 -28s36 -33 44 -54c6 -14 8 -29 6 -46s-9 -30 -22 -40z" />
    <glyph glyph-name="Ocircumflex" unicode="&#xd4;" horiz-adv-x="731" 
d="M287 335v1c0 90 36 135 107 135c32 0 57 -12 75 -36s27 -57 27 -99c0 -89 -35 -133 -106 -133c-69 0 -103 44 -103 132zM393 -11l2 -2c59 0 111 10 156 30s81 47 108 82s47 74 60 117s20 90 20 141c0 217 -113 325 -339 325c-60 0 -113 -10 -159 -29s-83 -46 -111 -80
s-49 -73 -63 -116s-21 -90 -21 -141c0 -218 116 -327 347 -327zM488 935l124 -157c-5 -21 -17 -37 -37 -49s-42 -18 -65 -18c-31 0 -54 10 -69 30l-48 83l-38 -61c-9 -13 -19 -31 -30 -54c-30 0 -56 5 -78 15s-36 25 -42 44s2 43 24 72l54 66c16 20 31 34 44 41s31 11 53 11
c48 0 84 -8 108 -23z" />
    <glyph glyph-name="Otilde" unicode="&#xd5;" horiz-adv-x="731" 
d="M287 335v1c0 90 36 135 107 135c32 0 57 -12 75 -36s27 -57 27 -99c0 -89 -35 -133 -106 -133c-69 0 -103 44 -103 132zM393 -11l2 -2c59 0 111 10 156 30s81 47 108 82s47 74 60 117s20 90 20 141c0 217 -113 325 -339 325c-60 0 -113 -10 -159 -29s-83 -46 -111 -80
s-49 -73 -63 -116s-21 -90 -21 -141c0 -218 116 -327 347 -327zM602 832v-2c0 -31 -10 -55 -31 -71s-49 -24 -84 -24c-18 0 -45 3 -80 8s-61 8 -78 8c-37 0 -62 -13 -75 -38c-25 3 -45 12 -61 28s-24 36 -24 60c0 60 35 91 105 94c21 0 52 -3 93 -8s68 -8 80 -8
c35 0 58 14 69 42c26 -3 47 -12 62 -28s23 -36 24 -61z" />
    <glyph glyph-name="Odieresis" unicode="&#xd6;" horiz-adv-x="731" 
d="M287 335v1c0 90 36 135 107 135c32 0 57 -12 75 -36s27 -57 27 -99c0 -89 -35 -133 -106 -133c-69 0 -103 44 -103 132zM393 -11l2 -2c59 0 111 10 156 30s81 47 108 82s47 74 60 117s20 90 20 141c0 217 -113 325 -339 325c-60 0 -113 -10 -159 -29s-83 -46 -111 -80
s-49 -73 -63 -116s-21 -90 -21 -141c0 -218 116 -327 347 -327zM261 705c-33 0 -58 8 -75 24s-25 37 -25 64s11 51 32 72s50 32 86 32c33 0 58 -8 75 -23s25 -36 25 -63s-11 -51 -32 -73s-50 -33 -86 -33zM513 705c-33 0 -58 8 -75 24s-25 37 -25 64s11 51 32 72
s50 32 86 32c33 0 58 -8 75 -23s25 -36 25 -63s-11 -51 -32 -73s-50 -33 -86 -33z" />
    <glyph glyph-name="multiply" unicode="&#xd7;" horiz-adv-x="554" 
d="M167 302l-89 84c-26 23 -48 39 -65 47c30 57 67 85 111 85c34 0 72 -21 115 -62l41 -39l74 74c17 17 39 26 66 26c25 0 48 -7 70 -22s37 -33 45 -55l-144 -128l86 -82c23 -23 44 -39 64 -49c-31 -55 -69 -83 -114 -83c-33 1 -71 22 -114 64l-38 35l-73 -74
c-17 -17 -39 -26 -66 -26c-26 0 -50 7 -72 21s-36 33 -42 56z" />
    <glyph glyph-name="Oslash" unicode="&#xd8;" horiz-adv-x="731" 
d="M359 -11l-16 -37c-20 -53 -53 -80 -99 -80c-17 0 -36 5 -56 14s-34 21 -42 36l12 29l15 41c6 16 11 29 15 39c-96 49 -144 144 -144 285c0 51 7 98 21 141s35 82 63 116s65 61 111 80s99 29 159 29c11 0 20 0 26 -1l12 35c19 54 52 81 99 81c17 0 36 -5 56 -14
s34 -21 42 -36c-1 -3 -14 -37 -39 -103c95 -49 143 -144 143 -285c0 -51 -7 -98 -20 -141s-33 -82 -60 -117s-63 -62 -108 -82s-97 -30 -156 -30h-18h-16zM284 336v-1c0 -88 34 -132 103 -132c71 0 106 44 106 133c0 42 -9 75 -27 99s-43 36 -75 36
c-71 0 -107 -45 -107 -135z" />
    <glyph glyph-name="Ugrave" unicode="&#xd9;" horiz-adv-x="736" 
d="M721 527l1 -243c0 -52 -7 -97 -20 -135s-29 -67 -49 -88s-45 -37 -75 -49s-57 -20 -82 -23s-53 -5 -84 -5s-59 2 -84 5s-52 11 -82 23s-55 28 -75 49s-37 51 -50 89s-20 83 -20 135v196c-31 5 -54 20 -69 45s-22 54 -22 87c0 12 1 24 3 35c32 2 62 5 90 8s58 7 90 11
s59 7 80 9c13 0 24 -3 33 -9s16 -12 20 -19s8 -17 11 -30s5 -24 5 -33v-36v-290c0 -59 23 -89 70 -89c46 0 69 30 69 89v237c-3 51 -12 98 -27 141c109 27 171 41 186 41c17 0 31 -4 42 -12s19 -20 24 -36s9 -31 11 -46s3 -34 4 -57zM393 648l-164 132c-25 19 -31 48 -18 87
c9 21 24 39 45 54s43 24 66 27l145 -180c9 -10 14 -21 14 -34c0 -19 -9 -36 -28 -52s-39 -27 -60 -34z" />
    <glyph glyph-name="Uacute" unicode="&#xda;" horiz-adv-x="736" 
d="M721 527l1 -243c0 -52 -7 -97 -20 -135s-29 -67 -49 -88s-45 -37 -75 -49s-57 -20 -82 -23s-53 -5 -84 -5s-59 2 -84 5s-52 11 -82 23s-55 28 -75 49s-37 51 -50 89s-20 83 -20 135v196c-31 5 -54 20 -69 45s-22 54 -22 87c0 12 1 24 3 35c32 2 62 5 90 8s58 7 90 11
s59 7 80 9c13 0 24 -3 33 -9s16 -12 20 -19s8 -17 11 -30s5 -24 5 -33v-36v-290c0 -59 23 -89 70 -89c46 0 69 30 69 89v237c-3 51 -12 98 -27 141c109 27 171 41 186 41c17 0 31 -4 42 -12s19 -20 24 -36s9 -31 11 -46s3 -34 4 -57zM574 779l-164 -132c-21 7 -41 18 -60 34
s-28 33 -28 52c0 12 4 23 13 34l145 180c23 -4 45 -13 66 -28s36 -33 44 -54c6 -14 8 -29 6 -46s-9 -30 -22 -40z" />
    <glyph glyph-name="Ucircumflex" unicode="&#xdb;" horiz-adv-x="736" 
d="M721 289l-6 239c-1 23 -2 42 -4 57s-5 31 -10 47s-13 28 -24 36s-25 12 -42 12c-15 0 -77 -14 -186 -41c15 -43 24 -90 27 -141v-237c0 -59 -23 -89 -69 -89c-47 0 -70 30 -70 89v290v36s-1 20 -4 33s-6 23 -10 30s-11 13 -20 19s-20 9 -33 9c-21 -2 -48 -5 -80 -9
s-62 -8 -90 -11s-58 -5 -90 -7c-2 -11 -3 -23 -3 -35c0 -33 8 -62 23 -87s38 -40 69 -45v-196c0 -52 7 -97 20 -135s30 -67 50 -88s45 -37 75 -49s57 -20 82 -23s53 -5 84 -5s59 2 84 5s52 11 82 23s55 28 75 49s37 51 50 89s20 83 20 135zM483 927l124 -157
c-5 -21 -17 -37 -37 -49s-42 -18 -65 -18c-31 0 -54 10 -69 30l-48 83l-38 -61c-9 -13 -19 -31 -30 -54c-30 0 -56 5 -78 15s-36 25 -42 44s2 43 24 72l54 66c16 20 31 34 44 41s31 11 53 11c48 0 84 -8 108 -23z" />
    <glyph glyph-name="Udieresis" unicode="&#xdc;" horiz-adv-x="736" 
d="M721 289l-6 239c-1 23 -2 42 -4 57s-5 31 -10 47s-13 28 -24 36s-25 12 -42 12c-15 0 -77 -14 -186 -41c15 -43 24 -90 27 -141v-237c0 -59 -23 -89 -69 -89c-47 0 -70 30 -70 89v290v36s-1 20 -4 33s-6 23 -10 30s-11 13 -20 19s-20 9 -33 9c-21 -2 -48 -5 -80 -9
s-62 -8 -90 -11s-58 -5 -90 -7c-2 -11 -3 -23 -3 -35c0 -33 8 -62 23 -87s38 -40 69 -45v-196c0 -52 7 -97 20 -135s30 -67 50 -88s45 -37 75 -49s57 -20 82 -23s53 -5 84 -5s59 2 84 5s52 11 82 23s55 28 75 49s37 51 50 89s20 83 20 135zM254 708c-33 0 -58 8 -75 24
s-25 37 -25 64s11 51 32 72s50 32 86 32c33 0 58 -8 75 -23s25 -36 25 -63s-11 -51 -32 -73s-50 -33 -86 -33zM506 708c-33 0 -58 8 -75 24s-25 37 -25 64s11 51 32 72s50 32 86 32c33 0 58 -8 75 -23s25 -36 25 -63s-11 -51 -32 -73s-50 -33 -86 -33z" />
    <glyph glyph-name="Yacute" unicode="&#xdd;" horiz-adv-x="689" 
d="M144 679c23 0 44 -5 63 -15s35 -22 49 -36s28 -35 43 -63s27 -53 37 -76s23 -55 38 -96c1 3 7 14 18 34s19 35 24 46s11 26 17 44s9 34 9 48c0 21 -6 38 -17 52c27 41 69 62 126 62c42 0 74 -11 96 -33s33 -50 33 -83c0 -28 -8 -58 -25 -89s-36 -59 -58 -84l-73 -88
c-27 -34 -48 -64 -62 -90c-11 -21 -16 -42 -16 -63c0 -39 7 -78 21 -117c-108 -27 -170 -40 -187 -40s-31 4 -42 12s-19 20 -24 36s-8 32 -10 47s-3 34 -4 57v55c0 26 -6 50 -17 73l-96 194c-31 57 -62 85 -92 85c7 48 23 81 49 100s59 28 100 28zM516 754l-164 -132
c-21 7 -41 18 -60 34s-28 33 -28 52c0 12 4 23 13 34l145 180c23 -4 45 -13 66 -28s36 -33 44 -54c6 -14 8 -29 6 -46s-9 -30 -22 -40z" />
    <glyph glyph-name="Thorn" unicode="&#xde;" horiz-adv-x="674" 
d="M366 33v-1c-109 -27 -172 -41 -188 -41c-17 0 -31 4 -42 12s-19 20 -24 36s-8 32 -10 47s-3 34 -4 57v341c-31 5 -54 20 -69 45s-22 54 -22 87c0 12 1 24 3 35c32 2 62 5 90 8s58 7 90 11s59 7 80 9c35 0 57 -21 66 -62h36c211 -6 317 -84 317 -235
c0 -73 -23 -131 -68 -174s-117 -64 -215 -64c-15 0 -36 1 -64 3c4 -41 12 -79 24 -114zM369 285l-1 -1c56 0 84 27 84 82c0 48 -25 72 -75 72h-37c-1 3 -1 7 -1 12v-165h9h12h9z" />
    <glyph glyph-name="germandbls" unicode="&#xdf;" horiz-adv-x="713" 
d="M642 425l-6 -5c-44 0 -66 -16 -66 -47c0 -13 5 -25 16 -37s24 -24 39 -35s30 -23 45 -36s28 -30 39 -51s16 -45 16 -71c0 -42 -17 -79 -52 -111s-84 -48 -148 -48c-127 0 -190 34 -190 101c0 31 10 59 30 84c13 -8 37 -12 72 -12c20 0 34 2 42 7s12 13 12 24
s-5 22 -16 32s-24 19 -39 28s-30 18 -45 28s-28 24 -39 41s-16 37 -16 59c0 34 11 63 33 87s51 38 88 41c0 29 -5 50 -16 63s-28 20 -52 20c-31 0 -54 -10 -68 -30s-21 -54 -21 -103v-313c3 -47 10 -83 20 -108c-17 -3 -39 -8 -66 -15s-50 -13 -70 -18s-35 -7 -46 -7
c-15 0 -28 3 -38 9s-17 16 -22 29s-8 25 -10 36s-3 26 -4 44v369c0 49 9 92 26 129s41 66 72 87s65 37 102 47s78 15 123 15c86 0 156 -20 209 -60s80 -92 80 -156c0 -42 -11 -81 -34 -117z" />
    <glyph glyph-name="agrave" unicode="&#xe0;" 
d="M596 310l-2 -104c0 -28 11 -42 33 -42c6 0 15 2 27 6c9 -23 13 -45 13 -66c0 -35 -12 -63 -37 -84s-58 -32 -99 -32c-37 0 -68 7 -92 21s-43 40 -56 77c-35 -63 -96 -96 -183 -98c-56 0 -102 13 -138 40s-54 67 -54 120c0 39 12 72 35 98s51 44 84 54s71 15 113 15
c39 0 75 -5 109 -16c-3 43 -34 64 -93 64c-70 0 -122 -14 -157 -43c-35 20 -52 49 -52 88c0 38 23 68 70 90s110 33 189 33c35 0 67 -2 95 -6s54 -11 79 -21s46 -23 62 -39s29 -37 39 -63s15 -57 15 -92zM349 211l-1 25c-15 0 -29 -2 -43 -5s-27 -10 -40 -21
s-19 -25 -19 -42c0 -14 4 -25 12 -33s19 -12 32 -12c39 0 59 29 59 88zM358 558l-164 132c-25 19 -31 48 -18 87c9 21 24 39 45 54s43 24 66 27l145 -180c9 -10 14 -21 14 -34c0 -19 -9 -36 -28 -52s-39 -27 -60 -34z" />
    <glyph glyph-name="aacute" unicode="&#xe1;" 
d="M596 310l-2 -104c0 -28 11 -42 33 -42c6 0 15 2 27 6c9 -23 13 -45 13 -66c0 -35 -12 -63 -37 -84s-58 -32 -99 -32c-37 0 -68 7 -92 21s-43 40 -56 77c-35 -63 -96 -96 -183 -98c-56 0 -102 13 -138 40s-54 67 -54 120c0 39 12 72 35 98s51 44 84 54s71 15 113 15
c39 0 75 -5 109 -16c-3 43 -34 64 -93 64c-70 0 -122 -14 -157 -43c-35 20 -52 49 -52 88c0 38 23 68 70 90s110 33 189 33c35 0 67 -2 95 -6s54 -11 79 -21s46 -23 62 -39s29 -37 39 -63s15 -57 15 -92zM349 211l-1 25c-15 0 -29 -2 -43 -5s-27 -10 -40 -21
s-19 -25 -19 -42c0 -14 4 -25 12 -33s19 -12 32 -12c39 0 59 29 59 88zM448 688l-164 -132c-21 7 -41 18 -60 34s-28 33 -28 52c0 12 4 23 13 34l145 180c23 -4 45 -13 66 -28s36 -33 44 -54c6 -14 8 -29 6 -46s-9 -30 -22 -40z" />
    <glyph glyph-name="acircumflex" unicode="&#xe2;" 
d="M596 310l-2 -104c0 -28 11 -42 33 -42c6 0 15 2 27 6c9 -23 13 -45 13 -66c0 -35 -12 -63 -37 -84s-58 -32 -99 -32c-37 0 -68 7 -92 21s-43 40 -56 77c-35 -63 -96 -96 -183 -98c-56 0 -102 13 -138 40s-54 67 -54 120c0 39 12 72 35 98s51 44 84 54s71 15 113 15
c39 0 75 -5 109 -16c-3 43 -34 64 -93 64c-70 0 -122 -14 -157 -43c-35 20 -52 49 -52 88c0 38 23 68 70 90s110 33 189 33c35 0 67 -2 95 -6s54 -11 79 -21s46 -23 62 -39s29 -37 39 -63s15 -57 15 -92zM349 211l-1 25c-15 0 -29 -2 -43 -5s-27 -10 -40 -21
s-19 -25 -19 -42c0 -14 4 -25 12 -33s19 -12 32 -12c39 0 59 29 59 88zM407 782l124 -157c-5 -21 -17 -37 -37 -49s-42 -18 -65 -18c-31 0 -54 10 -69 30l-48 83l-38 -61c-9 -13 -19 -31 -30 -54c-30 0 -56 5 -78 15s-36 25 -42 44s2 43 24 72l54 66c16 20 31 34 44 41
s31 11 53 11c48 0 84 -8 108 -23z" />
    <glyph glyph-name="atilde" unicode="&#xe3;" 
d="M596 310l-2 -104c0 -28 11 -42 33 -42c6 0 15 2 27 6c9 -23 13 -45 13 -66c0 -35 -12 -63 -37 -84s-58 -32 -99 -32c-37 0 -68 7 -92 21s-43 40 -56 77c-35 -63 -96 -96 -183 -98c-56 0 -102 13 -138 40s-54 67 -54 120c0 39 12 72 35 98s51 44 84 54s71 15 113 15
c39 0 75 -5 109 -16c-3 43 -34 64 -93 64c-70 0 -122 -14 -157 -43c-35 20 -52 49 -52 88c0 38 23 68 70 90s110 33 189 33c35 0 67 -2 95 -6s54 -11 79 -21s46 -23 62 -39s29 -37 39 -63s15 -57 15 -92zM349 211l-1 25c-15 0 -29 -2 -43 -5s-27 -10 -40 -21
s-19 -25 -19 -42c0 -14 4 -25 12 -33s19 -12 32 -12c39 0 59 29 59 88zM533 670v-2c0 -31 -10 -55 -31 -71s-49 -24 -84 -24c-18 0 -45 3 -80 8s-61 8 -78 8c-37 0 -62 -13 -75 -38c-25 3 -45 12 -61 28s-24 36 -24 60c0 60 35 91 105 94c21 0 52 -3 93 -8s68 -8 80 -8
c35 0 58 14 69 42c26 -3 47 -12 62 -28s23 -36 24 -61z" />
    <glyph glyph-name="adieresis" unicode="&#xe4;" 
d="M596 310l-2 -104c0 -28 11 -42 33 -42c6 0 15 2 27 6c9 -23 13 -45 13 -66c0 -35 -12 -63 -37 -84s-58 -32 -99 -32c-37 0 -68 7 -92 21s-43 40 -56 77c-35 -63 -96 -96 -183 -98c-56 0 -102 13 -138 40s-54 67 -54 120c0 39 12 72 35 98s51 44 84 54s71 15 113 15
c39 0 75 -5 109 -16c-3 43 -34 64 -93 64c-70 0 -122 -14 -157 -43c-35 20 -52 49 -52 88c0 38 23 68 70 90s110 33 189 33c35 0 67 -2 95 -6s54 -11 79 -21s46 -23 62 -39s29 -37 39 -63s15 -57 15 -92zM349 211l-1 25c-15 0 -29 -2 -43 -5s-27 -10 -40 -21
s-19 -25 -19 -42c0 -14 4 -25 12 -33s19 -12 32 -12c39 0 59 29 59 88zM178 563c-33 0 -58 8 -75 24s-25 37 -25 64s11 51 32 72s50 32 86 32c33 0 58 -8 75 -23s25 -36 25 -63s-11 -51 -32 -73s-50 -33 -86 -33zM430 563c-33 0 -58 8 -75 24s-25 37 -25 64s11 51 32 72
s50 32 86 32c33 0 58 -8 75 -23s25 -36 25 -63s-11 -51 -32 -73s-50 -33 -86 -33z" />
    <glyph glyph-name="aring" unicode="&#xe5;" 
d="M596 310l-2 -104c0 -28 11 -42 33 -42c6 0 15 2 27 6c9 -23 13 -45 13 -66c0 -35 -12 -63 -37 -84s-58 -32 -99 -32c-37 0 -68 7 -92 21s-43 40 -56 77c-35 -63 -96 -96 -183 -98c-56 0 -102 13 -138 40s-54 67 -54 120c0 39 12 72 35 98s51 44 84 54s71 15 113 15
c39 0 75 -5 109 -16c-3 43 -34 64 -93 64c-70 0 -122 -14 -157 -43c-35 20 -52 49 -52 88c0 38 23 68 70 90s110 33 189 33c35 0 67 -2 95 -6s54 -11 79 -21s46 -23 62 -39s29 -37 39 -63s15 -57 15 -92zM349 211l-1 25c-15 0 -29 -2 -43 -5s-27 -10 -40 -21
s-19 -25 -19 -42c0 -14 4 -25 12 -33s19 -12 32 -12c39 0 59 29 59 88zM332 820l2 -1c43 0 77 -10 102 -31s37 -51 37 -91s-13 -72 -39 -95s-64 -35 -114 -35c-48 0 -84 11 -109 32s-37 50 -37 87s14 69 41 95s66 39 117 39zM362 693l-1 -2c0 24 -11 36 -32 36
c-9 0 -17 -3 -24 -10s-11 -16 -11 -28c0 -24 11 -36 34 -36c9 0 17 4 24 11s10 17 10 29z" />
    <glyph glyph-name="ae" unicode="&#xe6;" horiz-adv-x="930" 
d="M10 148h4c0 39 12 72 35 98s51 44 84 54s71 15 113 15c40 0 77 -5 111 -16c-3 43 -35 64 -95 64c-70 0 -122 -14 -157 -43c-35 20 -52 49 -52 88c0 38 23 68 70 90s110 33 189 33c92 0 155 -23 188 -70c38 47 97 70 177 70c66 0 123 -15 171 -45s72 -72 72 -125
c0 -27 -7 -50 -22 -70s-35 -35 -61 -46s-53 -19 -82 -24s-60 -7 -93 -7c-25 0 -52 3 -80 8c9 -31 44 -47 105 -47c65 0 120 14 164 43c14 -9 25 -22 33 -40s12 -35 12 -52c0 -46 -24 -80 -72 -103s-108 -34 -180 -34c-64 0 -116 8 -156 23s-71 44 -94 86
c-17 -37 -43 -64 -79 -82s-75 -27 -118 -27c-53 0 -97 14 -133 42s-54 67 -54 117zM252 167v2c0 -14 4 -25 12 -33s19 -12 32 -12c39 0 59 27 61 81c-1 15 -2 26 -2 34c-25 -1 -48 -7 -70 -18s-33 -29 -33 -54zM592 291l-1 -2c40 1 70 7 90 18s30 25 30 43
c0 24 -13 36 -40 36c-26 0 -45 -9 -58 -27s-20 -41 -21 -68z" />
    <glyph glyph-name="ccedilla" unicode="&#xe7;" horiz-adv-x="619" 
d="M41 242l-4 -3c0 89 28 160 83 212s135 78 239 78c66 0 123 -16 171 -49s72 -72 72 -118c0 -27 -9 -50 -27 -69s-44 -28 -79 -28c-16 0 -31 2 -46 7c-1 26 -9 45 -25 56s-35 17 -58 17c-29 0 -51 -8 -66 -23s-22 -35 -22 -59c0 -57 35 -86 106 -86c61 0 109 17 144 50
c34 -23 51 -56 51 -100c0 -39 -16 -70 -49 -94s-81 -38 -144 -43l-6 -31c42 -5 75 -19 98 -42s35 -50 35 -82c0 -47 -18 -82 -54 -104s-82 -33 -137 -33c-81 0 -121 30 -121 90c0 23 6 43 19 60c26 -15 61 -22 104 -22c28 0 42 6 42 17c0 7 -6 11 -19 13s-27 3 -43 3
s-30 4 -43 12s-19 21 -19 38c0 7 1 16 3 26l13 59c-72 12 -126 40 -163 83s-55 98 -55 165z" />
    <glyph glyph-name="egrave" unicode="&#xe8;" horiz-adv-x="641" 
d="M45 245h-1c0 89 27 159 82 210s131 77 228 77c85 0 152 -15 201 -45s73 -72 73 -127c0 -27 -7 -50 -22 -70s-35 -35 -61 -46s-53 -19 -82 -24s-60 -7 -93 -7c-28 0 -56 3 -84 8c9 -31 46 -47 110 -47c65 0 120 14 164 43c14 -9 25 -22 33 -40s12 -35 12 -52
c0 -46 -24 -80 -72 -103s-108 -34 -180 -34c-205 0 -308 86 -308 257zM294 289l-1 1c40 1 71 7 92 18s32 25 32 42c0 24 -13 36 -40 36c-26 0 -46 -9 -60 -28s-22 -42 -23 -69zM368 554l-164 132c-25 19 -31 48 -18 87c9 21 24 39 45 54s43 24 66 27l145 -180
c9 -10 14 -21 14 -34c0 -19 -9 -36 -28 -52s-39 -27 -60 -34z" />
    <glyph glyph-name="eacute" unicode="&#xe9;" horiz-adv-x="641" 
d="M45 245h-1c0 89 27 159 82 210s131 77 228 77c85 0 152 -15 201 -45s73 -72 73 -127c0 -27 -7 -50 -22 -70s-35 -35 -61 -46s-53 -19 -82 -24s-60 -7 -93 -7c-28 0 -56 3 -84 8c9 -31 46 -47 110 -47c65 0 120 14 164 43c14 -9 25 -22 33 -40s12 -35 12 -52
c0 -46 -24 -80 -72 -103s-108 -34 -180 -34c-205 0 -308 86 -308 257zM294 289l-1 1c40 1 71 7 92 18s32 25 32 42c0 24 -13 36 -40 36c-26 0 -46 -9 -60 -28s-22 -42 -23 -69zM489 683l-164 -132c-21 7 -41 18 -60 34s-28 33 -28 52c0 12 4 23 13 34l145 180
c23 -4 45 -13 66 -28s36 -33 44 -54c6 -14 8 -29 6 -46s-9 -30 -22 -40z" />
    <glyph glyph-name="ecircumflex" unicode="&#xea;" horiz-adv-x="641" 
d="M45 245l1 -5c0 -171 103 -257 308 -257c72 0 132 12 180 35s72 58 72 104c0 17 -4 34 -12 52s-19 31 -33 40c-44 -29 -99 -43 -164 -43c-64 0 -101 16 -110 47c28 -5 56 -8 84 -8c33 0 64 3 93 8s56 13 82 24s46 27 61 47s22 43 22 70c0 55 -24 97 -73 127
s-116 45 -201 45c-97 0 -173 -25 -228 -76s-82 -121 -82 -210zM296 284l1 -1c1 27 9 50 23 69s34 28 60 28c27 0 40 -12 40 -36c0 -17 -11 -31 -32 -42s-52 -17 -92 -18zM441 771l124 -157c-5 -21 -17 -37 -37 -49s-42 -18 -65 -18c-31 0 -54 10 -69 30l-48 83l-38 -61
c-9 -13 -19 -31 -30 -54c-30 0 -56 5 -78 15s-36 25 -42 44s2 43 24 72l54 66c16 20 31 34 44 41s31 11 53 11c48 0 84 -8 108 -23z" />
    <glyph glyph-name="edieresis" unicode="&#xeb;" horiz-adv-x="641" 
d="M45 245l1 -5c0 -171 103 -257 308 -257c72 0 132 12 180 35s72 58 72 104c0 17 -4 34 -12 52s-19 31 -33 40c-44 -29 -99 -43 -164 -43c-64 0 -101 16 -110 47c28 -5 56 -8 84 -8c33 0 64 3 93 8s56 13 82 24s46 27 61 47s22 43 22 70c0 55 -24 97 -73 127
s-116 45 -201 45c-97 0 -173 -25 -228 -76s-82 -121 -82 -210zM296 284l1 -1c1 27 9 50 23 69s34 28 60 28c27 0 40 -12 40 -36c0 -17 -11 -31 -32 -42s-52 -17 -92 -18zM223 547c-33 0 -58 8 -75 24s-25 37 -25 64s11 51 32 72s50 32 86 32c33 0 58 -8 75 -23
s25 -36 25 -63s-11 -51 -32 -73s-50 -33 -86 -33zM475 547c-33 0 -58 8 -75 24s-25 37 -25 64s11 51 32 72s50 32 86 32c33 0 58 -8 75 -23s25 -36 25 -63s-11 -51 -32 -73s-50 -33 -86 -33z" />
    <glyph glyph-name="igrave" unicode="&#xec;" horiz-adv-x="392" 
d="M342 432v-293c3 -37 11 -73 25 -108l-71 -16c-32 -7 -59 -13 -81 -17s-38 -6 -48 -6c-16 0 -29 3 -39 9s-17 16 -22 29s-8 25 -10 36s-3 26 -4 44v255c-17 1 -31 5 -43 11s-21 14 -27 23s-11 20 -15 33s-6 25 -7 35s-1 22 -1 35c38 1 87 6 147 14s103 13 128 15
c13 0 24 -2 33 -6s16 -9 21 -15s9 -14 11 -24s3 -19 3 -26v-28zM208 554l-164 132c-25 19 -31 48 -18 87c9 21 24 39 45 54s43 24 66 27l145 -180c9 -10 14 -21 14 -34c0 -19 -9 -36 -28 -52s-39 -27 -60 -34z" />
    <glyph glyph-name="iacute" unicode="&#xed;" horiz-adv-x="392" 
d="M342 432v-293c3 -37 11 -73 25 -108l-71 -16c-32 -7 -59 -13 -81 -17s-38 -6 -48 -6c-16 0 -29 3 -39 9s-17 16 -22 29s-8 25 -10 36s-3 26 -4 44v255c-17 1 -31 5 -43 11s-21 14 -27 23s-11 20 -15 33s-6 25 -7 35s-1 22 -1 35c38 1 87 6 147 14s103 13 128 15
c13 0 24 -2 33 -6s16 -9 21 -15s9 -14 11 -24s3 -19 3 -26v-28zM286 677l-164 -132c-21 7 -41 18 -60 34s-28 33 -28 52c0 12 4 23 13 34l145 180c23 -4 45 -13 66 -28s36 -33 44 -54c6 -14 8 -29 6 -46s-9 -30 -22 -40z" />
    <glyph glyph-name="icircumflex" unicode="&#xee;" horiz-adv-x="425" 
d="M360 141l-3 290v29s-1 16 -3 26s-5 18 -10 24s-12 11 -21 15s-20 6 -33 6c-25 -2 -67 -7 -127 -15s-109 -13 -147 -14c0 -13 0 -25 1 -35s3 -22 7 -35s9 -24 15 -33s15 -16 27 -22s27 -9 44 -10v-255c1 -18 2 -33 4 -44s5 -23 10 -36s12 -23 22 -29s23 -9 39 -9
c10 0 26 2 48 6s49 10 81 17l71 16c-14 35 -22 71 -25 108zM289 786l124 -157c-5 -21 -17 -37 -37 -49s-42 -18 -65 -18c-31 0 -54 10 -69 30l-48 83l-38 -61c-9 -13 -19 -31 -30 -54c-30 0 -56 5 -78 15s-36 25 -42 44s2 43 24 72l54 66c16 20 31 34 44 41s31 11 53 11
c48 0 84 -8 108 -23z" />
    <glyph glyph-name="idieresis" unicode="&#xef;" horiz-adv-x="494" 
d="M395 141l-3 290v29s-1 16 -3 26s-5 18 -10 24s-12 11 -21 15s-20 6 -33 6c-25 -2 -67 -7 -127 -15s-109 -13 -147 -14c0 -13 0 -25 1 -35s3 -22 7 -35s9 -24 15 -33s15 -16 27 -22s27 -9 44 -10v-255c1 -18 2 -33 4 -44s5 -23 10 -36s12 -23 22 -29s23 -9 39 -9
c10 0 26 2 48 6s49 10 81 17l71 16c-14 35 -22 71 -25 108zM96 565c-33 0 -58 8 -75 24s-25 37 -25 64s11 51 32 72s50 32 86 32c33 0 58 -8 75 -23s25 -36 25 -63s-11 -51 -32 -73s-50 -33 -86 -33zM348 565c-33 0 -58 8 -75 24s-25 37 -25 64s11 51 32 72s50 32 86 32
c33 0 58 -8 75 -23s25 -36 25 -63s-11 -51 -32 -73s-50 -33 -86 -33z" />
    <glyph glyph-name="eth" unicode="&#xf0;" horiz-adv-x="643" 
d="M354 422l-1 3c-1 49 -9 88 -23 116l-85 -45c-29 10 -44 29 -44 56c0 23 9 39 27 49l15 8c-16 4 -34 6 -54 6c-19 0 -42 -2 -69 -7c-15 20 -23 39 -23 56c0 32 17 56 51 72s75 24 122 24c74 0 136 -14 187 -43l51 26c13 7 24 17 33 30c17 -7 31 -16 41 -28s15 -24 15 -37
c0 -18 -11 -33 -34 -45l-28 -15c47 -65 71 -160 71 -284c0 -135 -27 -231 -82 -289s-138 -87 -249 -87c-91 0 -160 23 -208 69s-72 110 -72 192c0 71 17 127 50 168s81 61 144 61c80 0 135 -19 165 -56zM369 320l-1 29c-51 0 -86 -8 -106 -24s-30 -39 -30 -69
c0 -23 7 -41 20 -54s28 -19 45 -19c21 0 38 12 51 35s20 57 21 102z" />
    <glyph glyph-name="ntilde" unicode="&#xf1;" horiz-adv-x="727" 
d="M337 141l-5 81c1 37 8 68 22 92s30 36 48 36c19 0 28 -14 28 -42v-170c0 -99 53 -149 159 -149c86 0 137 36 154 109c-24 3 -41 10 -50 20s-14 28 -15 53v159c0 66 -14 116 -41 150s-64 51 -111 51c-83 0 -147 -44 -192 -132v32v29s-1 16 -3 26s-5 18 -10 24
s-12 11 -21 15s-20 6 -33 6c-25 -2 -67 -7 -127 -15s-109 -13 -147 -14c0 -13 0 -25 1 -35s3 -22 7 -35s9 -24 15 -33s15 -16 27 -22s27 -9 44 -10v-255c1 -18 2 -33 4 -44s5 -23 10 -36s12 -23 22 -29s23 -9 39 -9c10 0 26 2 48 6s49 10 81 17l71 16c-14 35 -22 71 -25 108
zM572 671v-2c0 -31 -10 -55 -31 -71s-49 -24 -84 -24c-18 0 -45 3 -80 8s-61 8 -78 8c-37 0 -62 -13 -75 -38c-25 3 -45 12 -61 28s-24 36 -24 60c0 60 35 91 105 94c21 0 52 -3 93 -8s68 -8 80 -8c35 0 58 14 69 42c26 -3 47 -12 62 -28s23 -36 24 -61z" />
    <glyph glyph-name="ograve" unicode="&#xf2;" 
d="M273 260l-2 -3c0 -21 6 -40 18 -56s30 -24 53 -24c20 0 37 7 51 22s21 35 21 60c0 26 -6 46 -19 61s-29 22 -49 22c-21 0 -38 -7 -52 -22s-21 -35 -21 -60zM346 -15l1 2c-107 0 -186 23 -237 68s-76 108 -76 189c0 83 27 151 81 205s131 81 232 81c104 0 181 -23 231 -69
s75 -109 75 -190c0 -82 -26 -150 -79 -204s-129 -81 -228 -82zM363 553l-164 132c-25 19 -31 48 -18 87c9 21 24 39 45 54s43 24 66 27l145 -180c9 -10 14 -21 14 -34c0 -19 -9 -36 -28 -52s-39 -27 -60 -34z" />
    <glyph glyph-name="oacute" unicode="&#xf3;" 
d="M273 260l-2 -3c0 -21 6 -40 18 -56s30 -24 53 -24c20 0 37 7 51 22s21 35 21 60c0 26 -6 46 -19 61s-29 22 -49 22c-21 0 -38 -7 -52 -22s-21 -35 -21 -60zM346 -15l1 2c-107 0 -186 23 -237 68s-76 108 -76 189c0 83 27 151 81 205s131 81 232 81c104 0 181 -23 231 -69
s75 -109 75 -190c0 -82 -26 -150 -79 -204s-129 -81 -228 -82zM467 683l-164 -132c-21 7 -41 18 -60 34s-28 33 -28 52c0 12 4 23 13 34l145 180c23 -4 45 -13 66 -28s36 -33 44 -54c6 -14 8 -29 6 -46s-9 -30 -22 -40z" />
    <glyph glyph-name="ocircumflex" unicode="&#xf4;" 
d="M273 260l-2 -3c0 -21 6 -40 18 -56s30 -24 53 -24c20 0 37 7 51 22s21 35 21 60c0 26 -6 46 -19 61s-29 22 -49 22c-21 0 -38 -7 -52 -22s-21 -35 -21 -60zM346 -15l1 2c-107 0 -186 23 -237 68s-76 108 -76 189c0 83 27 151 81 205s131 81 232 81c104 0 181 -23 231 -69
s75 -109 75 -190c0 -82 -26 -150 -79 -204s-129 -81 -228 -82zM428 779l124 -157c-5 -21 -17 -37 -37 -49s-42 -18 -65 -18c-31 0 -54 10 -69 30l-48 83l-38 -61c-9 -13 -19 -31 -30 -54c-30 0 -56 5 -78 15s-36 25 -42 44s2 43 24 72l54 66c16 20 31 34 44 41s31 11 53 11
c48 0 84 -8 108 -23z" />
    <glyph glyph-name="otilde" unicode="&#xf5;" 
d="M273 260l-2 -3c0 -21 6 -40 18 -56s30 -24 53 -24c20 0 37 7 51 22s21 35 21 60c0 26 -6 46 -19 61s-29 22 -49 22c-21 0 -38 -7 -52 -22s-21 -35 -21 -60zM346 -15l1 2c-107 0 -186 23 -237 68s-76 108 -76 189c0 83 27 151 81 205s131 81 232 81c104 0 181 -23 231 -69
s75 -109 75 -190c0 -82 -26 -150 -79 -204s-129 -81 -228 -82zM549 671v-2c0 -31 -10 -55 -31 -71s-49 -24 -84 -24c-18 0 -45 3 -80 8s-61 8 -78 8c-37 0 -62 -13 -75 -38c-25 3 -45 12 -61 28s-24 36 -24 60c0 60 35 91 105 94c21 0 52 -3 93 -8s68 -8 80 -8
c35 0 58 14 69 42c26 -3 47 -12 62 -28s23 -36 24 -61z" />
    <glyph glyph-name="odieresis" unicode="&#xf6;" 
d="M273 260l-2 -3c0 -21 6 -40 18 -56s30 -24 53 -24c20 0 37 7 51 22s21 35 21 60c0 26 -6 46 -19 61s-29 22 -49 22c-21 0 -38 -7 -52 -22s-21 -35 -21 -60zM346 -15l1 2c-107 0 -186 23 -237 68s-76 108 -76 189c0 83 27 151 81 205s131 81 232 81c104 0 181 -23 231 -69
s75 -109 75 -190c0 -82 -26 -150 -79 -204s-129 -81 -228 -82zM207 551c-33 0 -58 8 -75 24s-25 37 -25 64s11 51 32 72s50 32 86 32c33 0 58 -8 75 -23s25 -36 25 -63s-11 -51 -32 -73s-50 -33 -86 -33zM459 551c-33 0 -58 8 -75 24s-25 37 -25 64s11 51 32 72s50 32 86 32
c33 0 58 -8 75 -23s25 -36 25 -63s-11 -51 -32 -73s-50 -33 -86 -33z" />
    <glyph glyph-name="divide" unicode="&#xf7;" horiz-adv-x="478" 
d="M137 229h222c43 0 73 7 89 21s24 35 24 62c0 31 -8 65 -23 102c-25 -12 -61 -18 -108 -18h-222c-43 0 -72 -7 -88 -21s-24 -35 -24 -62c0 -30 8 -64 23 -101c23 11 59 17 107 17zM229 23h-2c-33 0 -57 7 -73 22s-24 35 -24 60s11 48 32 68s49 30 84 30c33 0 58 -7 74 -22
s24 -35 24 -60s-10 -48 -31 -68s-49 -30 -84 -30zM227 423h-2c-33 0 -57 7 -73 22s-24 35 -24 60s11 48 32 68s49 30 84 30c33 0 58 -7 74 -22s24 -35 24 -60s-10 -48 -31 -68s-49 -30 -84 -30z" />
    <glyph glyph-name="oslash" unicode="&#xf8;" 
d="M386 531l11 24c17 42 46 63 88 63c15 0 30 -4 46 -11s27 -17 34 -30c-5 -9 -17 -37 -36 -84c83 -41 125 -115 125 -222c0 -82 -26 -150 -79 -204s-129 -81 -228 -82h-7l-12 -35c-15 -42 -42 -63 -81 -63c-15 0 -32 4 -50 12s-30 18 -37 29c3 7 8 20 15 38l17 43
c-105 37 -158 116 -158 237c0 83 27 151 81 205s131 81 232 81c18 0 31 0 39 -1zM274 257l-2 -3c0 -21 6 -40 18 -56s30 -24 53 -24c20 0 37 7 51 22s21 35 21 60c0 26 -6 46 -19 61s-29 22 -49 22c-21 0 -38 -7 -52 -22s-21 -35 -21 -60z" />
    <glyph glyph-name="ugrave" unicode="&#xf9;" horiz-adv-x="711" 
d="M423 268l-3 114c-3 37 -11 73 -24 108c116 27 182 40 199 40c13 0 24 -2 33 -7s16 -11 21 -18s9 -16 12 -27s5 -21 6 -30s2 -20 3 -34v-275c3 -37 11 -73 25 -108l-71 -16c-32 -7 -59 -13 -81 -17s-38 -6 -48 -6c-16 0 -29 3 -39 9s-17 16 -22 29s-8 25 -10 36
s-3 26 -4 44v11c-23 -47 -49 -81 -78 -102s-64 -32 -105 -32c-47 0 -84 16 -111 47s-40 79 -40 144v187c-17 1 -31 5 -43 11s-21 14 -27 23s-11 20 -15 33s-6 25 -7 35s-1 22 -1 35c38 1 87 6 147 14s103 13 128 15c13 0 24 -2 33 -6s16 -9 21 -15s9 -14 11 -24s3 -19 3 -26
v-28v-223c0 -28 12 -42 35 -42c15 0 27 9 37 27s15 43 15 74zM365 525l-164 132c-25 19 -31 48 -18 87c9 21 24 39 45 54s43 24 66 27l145 -180c9 -10 14 -21 14 -34c0 -19 -9 -36 -28 -52s-39 -27 -60 -34z" />
    <glyph glyph-name="uacute" unicode="&#xfa;" horiz-adv-x="711" 
d="M423 268l-3 114c-3 37 -11 73 -24 108c116 27 182 40 199 40c13 0 24 -2 33 -7s16 -11 21 -18s9 -16 12 -27s5 -21 6 -30s2 -20 3 -34v-275c3 -37 11 -73 25 -108l-71 -16c-32 -7 -59 -13 -81 -17s-38 -6 -48 -6c-16 0 -29 3 -39 9s-17 16 -22 29s-8 25 -10 36
s-3 26 -4 44v11c-23 -47 -49 -81 -78 -102s-64 -32 -105 -32c-47 0 -84 16 -111 47s-40 79 -40 144v187c-17 1 -31 5 -43 11s-21 14 -27 23s-11 20 -15 33s-6 25 -7 35s-1 22 -1 35c38 1 87 6 147 14s103 13 128 15c13 0 24 -2 33 -6s16 -9 21 -15s9 -14 11 -24s3 -19 3 -26
v-28v-223c0 -28 12 -42 35 -42c15 0 27 9 37 27s15 43 15 74zM536 656l-164 -132c-21 7 -41 18 -60 34s-28 33 -28 52c0 12 4 23 13 34l145 180c23 -4 45 -13 66 -28s36 -33 44 -54c6 -14 8 -29 6 -46s-9 -30 -22 -40z" />
    <glyph glyph-name="ucircumflex" unicode="&#xfb;" horiz-adv-x="711" 
d="M423 384l-1 -119c0 -31 -5 -56 -15 -74s-22 -27 -37 -27c-23 0 -35 14 -35 42v223v29s-1 16 -3 26s-5 18 -10 24s-12 11 -21 15s-20 6 -33 6c-25 -2 -67 -7 -127 -15s-109 -13 -147 -14c0 -13 0 -25 1 -35s3 -22 7 -35s9 -24 15 -33s15 -16 27 -22s27 -9 44 -10v-187
c0 -65 14 -113 41 -144s64 -46 111 -46c41 0 76 11 105 32s55 55 78 102v-11c1 -18 2 -33 4 -44s5 -23 10 -36s12 -23 22 -29s23 -9 39 -9c10 0 26 2 48 6s49 10 81 17l71 16c-14 35 -22 71 -25 108v275c-1 14 -2 26 -3 35s-3 19 -6 30s-7 20 -12 27s-12 13 -21 18
s-20 7 -33 7c-17 0 -83 -13 -199 -40c13 -35 21 -71 24 -108zM446 784l124 -157c-5 -21 -17 -37 -37 -49s-42 -18 -65 -18c-31 0 -54 10 -69 30l-48 83l-38 -61c-9 -13 -19 -31 -30 -54c-30 0 -56 5 -78 15s-36 25 -42 44s2 43 24 72l54 66c16 20 31 34 44 41s31 11 53 11
c48 0 84 -8 108 -23z" />
    <glyph glyph-name="udieresis" unicode="&#xfc;" horiz-adv-x="711" 
d="M423 384l-1 -119c0 -31 -5 -56 -15 -74s-22 -27 -37 -27c-23 0 -35 14 -35 42v223v29s-1 16 -3 26s-5 18 -10 24s-12 11 -21 15s-20 6 -33 6c-25 -2 -67 -7 -127 -15s-109 -13 -147 -14c0 -13 0 -25 1 -35s3 -22 7 -35s9 -24 15 -33s15 -16 27 -22s27 -9 44 -10v-187
c0 -65 14 -113 41 -144s64 -46 111 -46c41 0 76 11 105 32s55 55 78 102v-11c1 -18 2 -33 4 -44s5 -23 10 -36s12 -23 22 -29s23 -9 39 -9c10 0 26 2 48 6s49 10 81 17l71 16c-14 35 -22 71 -25 108v275c-1 14 -2 26 -3 35s-3 19 -6 30s-7 20 -12 27s-12 13 -21 18
s-20 7 -33 7c-17 0 -83 -13 -199 -40c13 -35 21 -71 24 -108zM223 562c-33 0 -58 8 -75 24s-25 37 -25 64s11 51 32 72s50 32 86 32c33 0 58 -8 75 -23s25 -36 25 -63s-11 -51 -32 -73s-50 -33 -86 -33zM475 562c-33 0 -58 8 -75 24s-25 37 -25 64s11 51 32 72s50 32 86 32
c33 0 58 -8 75 -23s25 -36 25 -63s-11 -51 -32 -73s-50 -33 -86 -33z" />
    <glyph glyph-name="yacute" unicode="&#xfd;" horiz-adv-x="688" 
d="M425 127l-5 -5c-24 -51 -50 -87 -79 -108s-64 -31 -105 -31c-101 0 -152 64 -152 191v187c-17 1 -31 5 -43 11s-21 14 -27 23s-11 20 -15 33s-6 25 -7 35s-1 22 -1 35c38 1 87 6 147 14s103 13 128 15c13 0 24 -2 33 -6s16 -9 21 -15s9 -14 11 -24s3 -19 3 -26v-28v-223
c0 -28 12 -42 35 -42c15 0 28 9 38 27s15 43 15 74v116c-3 39 -11 75 -24 108c116 27 180 40 193 40s24 -2 33 -7s16 -11 21 -18s9 -16 12 -27s5 -21 6 -30s2 -20 3 -34v-128c0 -52 -2 -100 -5 -143s-9 -88 -18 -134s-21 -86 -37 -121s-36 -66 -60 -94s-54 -50 -91 -65
s-79 -22 -126 -22c-55 0 -98 14 -129 41s-46 61 -46 101c0 46 20 79 59 98c22 -19 49 -29 82 -29c21 0 39 5 55 15s29 22 38 36s16 31 22 51s10 39 12 56s3 35 3 53zM536 653l-164 -132c-21 7 -41 18 -60 34s-28 33 -28 52c0 12 4 23 13 34l145 180c23 -4 45 -13 66 -28
s36 -33 44 -54c6 -14 8 -29 6 -46s-9 -30 -22 -40z" />
    <glyph glyph-name="thorn" unicode="&#xfe;" horiz-adv-x="679" 
d="M309 26l4 -129c1 -26 6 -45 15 -58s25 -21 48 -24c-17 -72 -65 -108 -144 -108c-51 0 -91 18 -121 54s-45 91 -45 166v592c0 71 -15 127 -44 169c21 5 59 16 114 34s88 27 99 27c48 0 73 -46 74 -139v-204c35 85 92 128 171 128c65 0 113 -24 143 -72s45 -109 45 -183
c-2 -90 -23 -161 -64 -213s-92 -78 -154 -78c-67 0 -114 13 -141 38zM317 333v-46c0 -73 21 -110 64 -110c18 0 32 7 42 21s15 30 15 49c0 27 -8 49 -25 66s-37 26 -61 26c-11 0 -23 -2 -35 -6z" />
    <glyph glyph-name="ydieresis" unicode="&#xff;" horiz-adv-x="688" 
d="M425 127l-1 -7c0 -18 -1 -36 -3 -53s-6 -35 -12 -55s-13 -37 -22 -51s-21 -26 -37 -36s-34 -15 -55 -15c-33 0 -60 10 -82 29c-39 -19 -59 -52 -59 -98c0 -40 15 -73 46 -100s74 -40 129 -40c47 0 89 8 126 23s67 37 91 65s44 60 60 95s29 76 38 122s15 91 18 134
s5 91 5 143v128c-1 14 -2 26 -3 35s-3 19 -6 30s-7 20 -12 27s-12 13 -21 18s-20 7 -33 7s-77 -13 -193 -40c13 -33 21 -69 24 -108v-116c0 -31 -5 -55 -15 -73s-23 -27 -38 -27c-23 0 -35 14 -35 42v223v29s-1 16 -3 26s-5 18 -10 24s-12 11 -21 15s-20 6 -33 6
c-25 -2 -67 -7 -127 -15s-109 -13 -147 -14c0 -13 0 -25 1 -35s3 -22 7 -35s9 -24 15 -33s15 -16 27 -22s27 -9 44 -10v-187c0 -127 51 -191 152 -191c41 0 76 11 105 32s56 57 80 108zM225 560c-33 0 -58 8 -75 24s-25 37 -25 64s11 51 32 72s50 32 86 32
c33 0 58 -8 75 -23s25 -36 25 -63s-11 -51 -32 -73s-50 -33 -86 -33zM477 560c-33 0 -58 8 -75 24s-25 37 -25 64s11 51 32 72s50 32 86 32c33 0 58 -8 75 -23s25 -36 25 -63s-11 -51 -32 -73s-50 -33 -86 -33z" />
    <glyph glyph-name="Amacron" unicode="&#x100;" horiz-adv-x="670" 
d="M210 505l-1 -3c-31 -1 -55 -3 -73 -5c-17 35 -25 66 -25 94c0 57 46 85 139 85h180c34 0 61 -7 80 -21s35 -39 47 -74l148 -445c13 -42 27 -78 42 -109c-77 -25 -133 -37 -168 -37c-24 0 -43 7 -58 20s-28 36 -39 69l-13 40h-219l-46 -120h-110c-24 0 -41 7 -52 21
s-16 30 -15 48s6 36 14 55l127 303c15 34 29 60 42 79zM368 430l-57 -147c-3 -11 1 -17 12 -17h96zM455 878l-3 2c27 0 48 3 63 9c14 -23 21 -47 21 -72s-7 -45 -22 -60s-36 -23 -64 -24c-19 0 -55 2 -108 5s-84 5 -92 5c-27 0 -48 -3 -63 -9c-14 25 -21 49 -21 72
c0 25 8 45 24 60s39 22 69 22c17 0 52 -2 105 -5s83 -5 91 -5z" />
    <glyph glyph-name="amacron" unicode="&#x101;" 
d="M596 310l-2 -104c0 -28 11 -42 33 -42c6 0 15 2 27 6c9 -23 13 -45 13 -66c0 -35 -12 -63 -37 -84s-58 -32 -99 -32c-37 0 -68 7 -92 21s-43 40 -56 77c-35 -63 -96 -96 -183 -98c-56 0 -102 13 -138 40s-54 67 -54 120c0 39 12 72 35 98s51 44 84 54s71 15 113 15
c39 0 75 -5 109 -16c-3 43 -34 64 -93 64c-70 0 -122 -14 -157 -43c-35 20 -52 49 -52 88c0 38 23 68 70 90s110 33 189 33c35 0 67 -2 95 -6s54 -11 79 -21s46 -23 62 -39s29 -37 39 -63s15 -57 15 -92zM349 211l-1 25c-15 0 -29 -2 -43 -5s-27 -10 -40 -21
s-19 -25 -19 -42c0 -14 4 -25 12 -33s19 -12 32 -12c39 0 59 29 59 88zM431 723l-3 1c27 0 48 3 63 9c14 -23 21 -47 21 -72s-7 -45 -22 -60s-36 -23 -64 -24c-19 0 -55 2 -108 5s-84 5 -92 5c-27 0 -48 -3 -63 -9c-14 25 -21 49 -21 73c0 25 8 45 24 60s39 22 69 22
c17 0 52 -2 105 -5s83 -5 91 -5z" />
    <glyph glyph-name="Abreve" unicode="&#x102;" horiz-adv-x="670" 
d="M210 505l-3 2c-13 -19 -27 -45 -42 -79l-127 -303c-8 -19 -13 -37 -14 -55s4 -34 15 -48s29 -21 53 -21h110l46 120h219l13 -40c11 -33 24 -56 39 -69s35 -19 59 -19c35 0 91 12 168 37c-15 31 -29 67 -42 109l-148 445c-12 35 -27 60 -46 74s-45 21 -79 21h-180
c-93 0 -139 -28 -139 -85c0 -28 8 -59 25 -94c18 2 42 4 73 5zM310 288l57 147l51 -164h-96c-11 0 -15 6 -12 17zM360 712l2 -1c-58 1 -105 14 -142 39s-55 55 -55 91c0 22 7 41 21 57s36 25 65 28c32 -40 69 -60 110 -60s78 20 111 60c29 -3 50 -12 64 -28s21 -35 21 -56
c0 -36 -18 -66 -55 -91s-84 -38 -142 -39z" />
    <glyph glyph-name="abreve" unicode="&#x103;" 
d="M596 310l-2 -104c0 -28 11 -42 33 -42c6 0 15 2 27 6c9 -23 13 -45 13 -66c0 -35 -12 -63 -37 -84s-58 -32 -99 -32c-37 0 -68 7 -92 21s-43 40 -56 77c-35 -63 -96 -96 -183 -98c-56 0 -102 13 -138 40s-54 67 -54 120c0 39 12 72 35 98s51 44 84 54s71 15 113 15
c39 0 75 -5 109 -16c-3 43 -34 64 -93 64c-70 0 -122 -14 -157 -43c-35 20 -52 49 -52 88c0 38 23 68 70 90s110 33 189 33c35 0 67 -2 95 -6s54 -11 79 -21s46 -23 62 -39s29 -37 39 -63s15 -57 15 -92zM349 211l-1 25c-15 0 -29 -2 -43 -5s-27 -10 -40 -21
s-19 -25 -19 -42c0 -14 4 -25 12 -33s19 -12 32 -12c39 0 59 29 59 88zM326 563l1 -1c-58 1 -105 14 -142 39s-55 55 -55 91c0 22 7 41 21 57s36 25 65 28c32 -40 69 -60 110 -60s78 20 111 60c29 -3 51 -12 65 -28s21 -35 21 -56c0 -36 -18 -66 -55 -91s-84 -38 -142 -39z
" />
    <glyph glyph-name="Aogonek" unicode="&#x104;" horiz-adv-x="670" 
d="M718 -154l-2 -1c0 -31 -12 -55 -37 -73s-60 -27 -106 -27c-39 0 -69 10 -91 30s-33 46 -33 78c0 54 28 102 84 145c-23 12 -41 39 -54 80l-13 40h-219l-46 -120h-110c-45 0 -67 21 -67 63c0 18 5 38 14 60l127 303c15 34 29 60 42 79c-31 -1 -55 -3 -73 -5
c-17 35 -25 66 -25 94c0 57 46 85 139 85h180c34 0 61 -7 80 -21s35 -39 47 -74l148 -445c13 -42 27 -78 42 -109c-21 -6 -37 -11 -48 -15s-23 -10 -36 -17s-22 -16 -27 -26s-8 -22 -8 -37c0 -26 12 -39 37 -39c14 0 26 2 37 6c12 -19 18 -37 18 -54zM365 432l-57 -147
c-3 -11 1 -17 12 -17h96z" />
    <glyph glyph-name="aogonek" unicode="&#x105;" 
d="M663 -154l-1 2c0 -31 -12 -55 -37 -73s-60 -27 -106 -27c-39 0 -69 10 -91 30s-33 46 -33 78c0 52 25 99 76 140c-41 11 -71 41 -89 90c-35 -63 -96 -96 -183 -98c-56 0 -102 13 -138 40s-54 67 -54 120c0 39 12 72 35 98s51 44 84 54s71 15 113 15c39 0 75 -5 109 -16
c-3 43 -34 64 -93 64c-70 0 -122 -14 -157 -43c-35 20 -52 49 -52 88c0 38 23 68 70 90s110 33 189 33c35 0 67 -2 95 -6s54 -11 79 -21s46 -23 62 -39s29 -37 39 -63s15 -57 15 -92v-105c0 -28 11 -42 33 -42c6 0 15 2 27 6c9 -23 13 -45 13 -66s-5 -39 -15 -55
s-21 -28 -33 -37s-23 -20 -33 -34s-15 -29 -15 -46c0 -25 12 -37 37 -37c13 0 25 2 36 6c12 -19 18 -37 18 -54zM350 212l-1 25c-15 0 -29 -2 -43 -5s-27 -10 -40 -21s-19 -25 -19 -42c0 -14 4 -25 12 -33s19 -12 32 -12c39 0 59 29 59 88z" />
    <glyph glyph-name="Cacute" unicode="&#x106;" horiz-adv-x="639" 
d="M384 -12l1 -4c-113 1 -198 30 -254 87s-84 137 -84 239c0 111 29 200 87 268s146 102 265 102c31 0 61 -2 89 -7s54 -13 78 -24s43 -27 57 -47s21 -44 21 -71c0 -25 -7 -47 -21 -67s-33 -34 -58 -43c-59 33 -112 50 -159 50c-79 0 -118 -45 -118 -136
c0 -40 10 -71 30 -93s51 -33 92 -33c59 0 118 19 178 56c19 -11 34 -26 44 -46s15 -41 15 -64c0 -30 -8 -56 -25 -79s-39 -40 -66 -52s-55 -21 -84 -27s-58 -9 -88 -9zM527 830l-164 -132c-21 7 -41 18 -60 34s-28 33 -28 52c0 12 4 23 13 34l145 180c23 -4 45 -13 66 -28
s36 -33 44 -54c6 -14 8 -29 6 -46s-9 -30 -22 -40z" />
    <glyph glyph-name="cacute" unicode="&#x107;" horiz-adv-x="617" 
d="M347 -12h-2c-101 0 -177 23 -229 69s-78 109 -78 189c0 87 27 157 80 209s131 78 233 78c67 0 125 -17 174 -50s74 -73 74 -120c0 -27 -9 -50 -27 -68s-44 -27 -78 -27c-16 0 -31 2 -46 7c-1 25 -10 44 -27 56s-37 18 -60 18c-29 0 -50 -8 -63 -24s-20 -36 -20 -60
c0 -57 36 -85 107 -85c62 0 110 17 143 50c17 -11 30 -26 39 -45s14 -38 14 -58c0 -43 -20 -77 -60 -102s-98 -37 -174 -37zM479 684l-164 -132c-21 7 -41 18 -60 34s-28 33 -28 52c0 12 4 23 13 34l145 180c23 -4 45 -13 66 -28s36 -33 44 -54c6 -14 8 -29 6 -46
s-9 -30 -22 -40z" />
    <glyph glyph-name="Ccircumflex" unicode="&#x108;" horiz-adv-x="639" 
d="M384 -12l-4 -2c30 0 60 3 89 9s57 15 84 27s49 29 66 52s25 49 25 79c0 23 -5 45 -15 65s-25 36 -44 47c-60 -37 -119 -56 -178 -56c-41 0 -72 11 -92 33s-30 53 -30 93c0 91 39 136 118 136c47 0 100 -17 159 -50c25 9 44 24 58 44s21 43 21 68c0 36 -13 66 -38 90
s-55 40 -89 48s-73 12 -116 12c-119 0 -207 -34 -265 -102s-87 -157 -87 -268c0 -102 28 -181 84 -238s141 -86 254 -87zM459 924l124 -157c-5 -21 -17 -37 -37 -49s-42 -18 -65 -18c-31 0 -54 10 -69 30l-48 83l-38 -61c-9 -13 -19 -31 -30 -54c-30 0 -56 5 -78 15
s-36 25 -42 44s2 43 24 72l54 66c16 20 31 34 44 41s31 11 53 11c48 0 84 -8 108 -23z" />
    <glyph glyph-name="ccircumflex" unicode="&#x109;" horiz-adv-x="619" 
d="M347 -12l2 -1c76 0 134 12 174 37s60 59 60 102c0 20 -5 39 -14 58s-22 34 -39 45c-33 -33 -81 -50 -143 -50c-71 0 -107 28 -107 85c0 24 7 44 20 60s34 24 63 24c23 0 43 -6 60 -18s26 -30 27 -55c15 -5 30 -7 46 -7c34 0 60 9 78 27s27 41 27 68c0 47 -25 87 -74 120
s-107 50 -174 50c-102 0 -180 -26 -233 -78s-80 -122 -80 -209c0 -80 26 -143 78 -189s128 -69 229 -69zM421 775l124 -157c-5 -21 -17 -37 -37 -49s-42 -18 -65 -18c-31 0 -54 10 -69 30l-48 83l-38 -61c-9 -13 -19 -31 -30 -54c-30 0 -56 5 -78 15s-36 25 -42 44
s2 43 24 72l54 66c16 20 31 34 44 41s31 11 53 11c48 0 84 -8 108 -23z" />
    <glyph glyph-name="Cdotaccent" unicode="&#x10a;" horiz-adv-x="639" 
d="M384 -12l-4 -2c30 0 60 3 89 9s57 15 84 27s49 29 66 52s25 49 25 79c0 23 -5 45 -15 65s-25 36 -44 47c-60 -37 -119 -56 -178 -56c-41 0 -72 11 -92 33s-30 53 -30 93c0 91 39 136 118 136c47 0 100 -17 159 -50c25 9 44 24 58 44s21 43 21 68c0 36 -13 66 -38 90
s-55 40 -89 48s-73 12 -116 12c-119 0 -207 -34 -265 -102s-87 -157 -87 -268c0 -102 28 -181 84 -238s141 -86 254 -87zM362 713l-1 -1c-37 0 -65 9 -84 27s-28 42 -28 72c0 32 12 60 36 84s56 36 97 36c37 0 65 -9 84 -27s29 -42 29 -72c0 -31 -12 -59 -36 -83
s-56 -36 -97 -36z" />
    <glyph glyph-name="cdotaccent" unicode="&#x10b;" horiz-adv-x="617" 
d="M347 -12l2 -1c76 0 134 12 174 37s60 59 60 102c0 20 -5 39 -14 58s-22 34 -39 45c-33 -33 -81 -50 -143 -50c-71 0 -107 28 -107 85c0 24 7 44 20 60s34 24 63 24c23 0 43 -6 60 -18s26 -30 27 -55c15 -5 30 -7 46 -7c34 0 60 9 78 27s27 41 27 68c0 47 -25 87 -74 120
s-107 50 -174 50c-102 0 -180 -26 -233 -78s-80 -122 -80 -209c0 -80 26 -143 78 -189s128 -69 229 -69zM337 562l-1 -1c-37 0 -65 9 -84 27s-28 42 -28 72c0 32 12 60 36 84s56 36 97 36c37 0 65 -9 84 -27s29 -42 29 -72c0 -31 -12 -59 -36 -83s-56 -36 -97 -36z" />
    <glyph glyph-name="Ccaron" unicode="&#x10c;" horiz-adv-x="639" 
d="M384 -12l-4 -2c30 0 60 3 89 9s57 15 84 27s49 29 66 52s25 49 25 79c0 23 -5 45 -15 65s-25 36 -44 47c-60 -37 -119 -56 -178 -56c-41 0 -72 11 -92 33s-30 53 -30 93c0 91 39 136 118 136c47 0 100 -17 159 -50c25 9 44 24 58 44s21 43 21 68c0 36 -13 66 -38 90
s-55 40 -89 48s-73 12 -116 12c-119 0 -207 -34 -265 -102s-87 -157 -87 -268c0 -102 28 -181 84 -238s141 -86 254 -87zM286 736l-125 158c5 21 17 38 37 50s42 18 65 18c31 0 54 -10 69 -30l47 -87l40 61c9 13 19 31 30 54c30 0 56 -5 78 -15s36 -25 42 -44
s-2 -43 -24 -72l-56 -66c-17 -20 -32 -33 -44 -40s-29 -10 -51 -10c-48 0 -84 8 -108 23z" />
    <glyph glyph-name="ccaron" unicode="&#x10d;" horiz-adv-x="617" 
d="M347 -12l2 -1c76 0 134 12 174 37s60 59 60 102c0 20 -5 39 -14 58s-22 34 -39 45c-33 -33 -81 -50 -143 -50c-71 0 -107 28 -107 85c0 24 7 44 20 60s34 24 63 24c23 0 43 -6 60 -18s26 -30 27 -55c15 -5 30 -7 46 -7c34 0 60 9 78 27s27 41 27 68c0 47 -25 87 -74 120
s-107 50 -174 50c-102 0 -180 -26 -233 -78s-80 -122 -80 -209c0 -80 26 -143 78 -189s128 -69 229 -69zM251 581l-125 158c5 21 17 38 37 50s42 18 65 18c31 0 54 -10 69 -30l47 -87l40 61c9 13 19 31 30 54c30 0 56 -5 78 -15s36 -25 42 -44s-2 -43 -24 -72l-56 -66
c-17 -20 -32 -33 -44 -40s-29 -10 -51 -10c-48 0 -84 8 -108 23z" />
    <glyph glyph-name="Dcaron" unicode="&#x10e;" horiz-adv-x="721" 
d="M373 162l-1 1c45 0 79 18 102 53s34 77 34 126c0 53 -11 93 -34 120s-54 40 -94 40h-22v-340h15zM119 150l-4 350c-25 0 -50 -2 -75 -5c-21 31 -32 62 -32 94c0 19 4 35 12 48s19 22 34 27s30 9 44 11s31 3 50 3h209c129 0 225 -28 288 -84s94 -134 94 -235
c0 -124 -36 -215 -108 -274s-171 -88 -298 -88h-94c-21 0 -39 3 -54 9s-27 13 -35 22s-14 21 -19 36s-8 29 -9 41s-2 27 -3 45zM236 738l-125 158c5 21 17 38 37 50s42 18 65 18c31 0 54 -10 69 -30l47 -87l40 61c9 13 19 31 30 54c30 0 56 -5 78 -15s36 -25 42 -44
s-2 -43 -24 -72l-56 -66c-17 -20 -32 -33 -44 -40s-29 -10 -51 -10c-48 0 -84 8 -108 23z" />
    <glyph glyph-name="dcaron" unicode="&#x10f;" horiz-adv-x="788" 
d="M640 613l3 -471c3 -35 11 -72 25 -111c-25 -4 -58 -12 -99 -23s-68 -17 -81 -17c-15 0 -27 3 -37 10s-17 17 -22 29s-8 24 -10 36s-3 26 -3 43c-40 -81 -99 -122 -178 -122c-69 0 -121 24 -156 72s-52 110 -52 187c0 83 21 151 62 205s99 81 174 81c53 0 96 -16 129 -49
v82c-2 55 -14 100 -35 135c33 7 66 15 99 23l73 19c16 4 27 6 34 6c30 0 50 -11 59 -33s14 -56 15 -102zM398 201l-2 42c0 73 -22 109 -67 109c-19 0 -34 -6 -45 -19s-17 -29 -17 -48c0 -28 9 -50 26 -66s39 -24 65 -24c13 0 26 2 40 6zM660 493v-3c45 21 67 50 67 87
c0 11 -4 26 -13 45s-13 33 -13 43c0 24 11 44 33 59s47 23 74 23c37 0 65 -13 84 -38s29 -54 29 -87c0 -48 -16 -90 -49 -126s-74 -54 -123 -54c-44 0 -74 17 -89 51z" />
    <glyph glyph-name="Dcroat" unicode="&#x110;" horiz-adv-x="721" 
d="M120 388l-4 111c-25 0 -50 -2 -75 -5c-21 31 -32 62 -32 94c0 19 4 35 12 48s19 22 34 27s30 9 44 11s31 3 50 3h209c129 0 225 -28 288 -84s94 -134 94 -235c0 -124 -36 -215 -108 -274s-171 -88 -298 -88h-94c-21 0 -39 3 -54 9s-27 13 -35 22s-14 21 -19 36
s-8 29 -9 41s-2 27 -3 45v127h-26c-15 0 -33 -2 -53 -7c-16 19 -24 40 -24 62c0 38 27 57 81 57h22zM354 385l22 1c15 0 33 2 53 7c16 -19 24 -40 24 -62c0 -38 -27 -57 -81 -57h-19v-114h15c45 0 79 18 102 53s34 77 34 126c0 53 -11 93 -34 120s-54 40 -94 40h-22v-114z
" />
    <glyph glyph-name="dcroat" unicode="&#x111;" horiz-adv-x="749" 
d="M640 560l2 -417c3 -35 11 -72 25 -111c-25 -4 -58 -12 -99 -23s-68 -17 -81 -17c-15 0 -27 3 -37 10s-17 17 -22 29s-8 24 -10 36s-3 26 -3 43c-40 -81 -99 -122 -178 -122c-69 0 -121 24 -156 72s-52 110 -52 187c0 83 21 151 62 205s99 81 174 81c53 0 96 -16 129 -49
v77h-100c-15 0 -33 -2 -53 -7c-16 19 -24 38 -24 57c0 38 27 57 81 57h96v40c27 6 54 13 81 20l61 16c13 3 23 5 29 5c23 0 40 -7 51 -21s18 -34 21 -61h15c15 0 33 2 53 7c16 -19 24 -39 24 -60c0 -36 -27 -54 -81 -54h-8zM397 202l-2 42c0 73 -22 109 -67 109
c-19 0 -34 -6 -45 -19s-17 -29 -17 -48c0 -28 9 -50 26 -66s39 -24 65 -24c13 0 26 2 40 6z" />
    <glyph glyph-name="Emacron" unicode="&#x112;" horiz-adv-x="639" 
d="M370 177l122 -3c37 0 72 4 105 13c21 -28 31 -62 31 -102c0 -20 -4 -36 -12 -49s-19 -22 -34 -27s-28 -8 -40 -9s-27 -2 -46 -2h-271c-36 0 -63 7 -82 21s-28 43 -28 86v395c-26 0 -51 -2 -76 -5c-21 31 -32 62 -32 94c0 26 9 47 27 63s44 24 78 24h375c44 0 79 3 105 10
c21 -28 31 -61 31 -99c0 -20 -4 -36 -12 -49s-19 -22 -34 -27s-28 -8 -40 -9s-27 -2 -46 -2h-136v-63c0 -7 1 -12 3 -14s6 -3 12 -3h173c9 -22 13 -44 13 -67c0 -63 -42 -94 -125 -94h-76v-65c0 -7 1 -12 3 -14s6 -3 12 -3zM429 878l-3 2c27 0 48 3 63 9
c14 -23 21 -47 21 -72s-7 -45 -22 -60s-36 -23 -64 -24c-19 0 -55 2 -108 5s-84 5 -92 5c-27 0 -48 -3 -63 -9c-14 25 -21 49 -21 72c0 25 8 45 24 60s39 22 69 22c17 0 52 -2 105 -5s83 -5 91 -5z" />
    <glyph glyph-name="emacron" unicode="&#x113;" horiz-adv-x="641" 
d="M45 245h-1c0 89 27 159 82 210s131 77 228 77c85 0 152 -15 201 -45s73 -72 73 -127c0 -27 -7 -50 -22 -70s-35 -35 -61 -46s-53 -19 -82 -24s-60 -7 -93 -7c-28 0 -56 3 -84 8c9 -31 46 -47 110 -47c65 0 120 14 164 43c14 -9 25 -22 33 -40s12 -35 12 -52
c0 -46 -24 -80 -72 -103s-108 -34 -180 -34c-205 0 -308 86 -308 257zM294 289l-1 1c40 1 71 7 92 18s32 25 32 42c0 24 -13 36 -40 36c-26 0 -46 -9 -60 -28s-22 -42 -23 -69zM444 720l-3 2c27 0 48 3 63 9c14 -23 21 -47 21 -72s-7 -45 -22 -60s-36 -23 -64 -24
c-19 0 -55 2 -108 5s-84 5 -92 5c-27 0 -48 -3 -63 -9c-14 25 -21 49 -21 72c0 25 8 45 24 60s39 22 69 22c17 0 52 -2 105 -5s83 -5 91 -5z" />
    <glyph glyph-name="Ebreve" unicode="&#x114;" horiz-adv-x="639" 
d="M493 177l-127 2c-6 0 -10 1 -12 3s-3 7 -3 14v65h76c83 0 125 31 125 94c0 23 -4 45 -13 67h-173c-6 0 -10 1 -12 3s-3 7 -3 14v63h136c19 0 34 1 46 2s26 4 41 9s26 14 34 27s12 29 12 49c0 38 -10 71 -31 99c-26 -7 -61 -10 -105 -10h-375c-34 0 -60 -8 -78 -24
s-27 -37 -27 -63c0 -32 11 -63 32 -94c25 3 50 5 76 5v-395c0 -43 10 -71 29 -85s47 -21 83 -21h271c19 0 35 1 47 2s26 4 41 9s26 14 34 27s12 29 12 49c0 40 -10 74 -31 102c-33 -9 -68 -13 -105 -13zM329 711l1 -1c-58 1 -105 14 -142 39s-55 55 -55 91c0 22 7 41 21 57
s36 25 65 28c32 -40 69 -60 110 -60s78 20 111 60c29 -3 51 -12 65 -28s21 -35 21 -56c0 -36 -18 -66 -55 -91s-84 -38 -142 -39z" />
    <glyph glyph-name="ebreve" unicode="&#x115;" horiz-adv-x="641" 
d="M45 245l1 -5c0 -171 103 -257 308 -257c72 0 132 12 180 35s72 58 72 104c0 17 -4 34 -12 52s-19 31 -33 40c-44 -29 -99 -43 -164 -43c-64 0 -101 16 -110 47c28 -5 56 -8 84 -8c33 0 64 3 93 8s56 13 82 24s46 27 61 47s22 43 22 70c0 55 -24 97 -73 127
s-116 45 -201 45c-97 0 -173 -25 -228 -76s-82 -121 -82 -210zM296 284l1 -1c1 27 9 50 23 69s34 28 60 28c27 0 40 -12 40 -36c0 -17 -11 -31 -32 -42s-52 -17 -92 -18zM357 559l2 -1c-58 1 -105 14 -142 39s-55 55 -55 91c0 22 7 41 21 57s36 25 65 28
c32 -40 69 -60 110 -60s78 20 111 60c29 -3 50 -12 64 -28s21 -35 21 -56c0 -36 -18 -66 -55 -91s-84 -38 -142 -39z" />
    <glyph glyph-name="Edotaccent" unicode="&#x116;" horiz-adv-x="639" 
d="M493 177l-127 2c-6 0 -10 1 -12 3s-3 7 -3 14v65h76c83 0 125 31 125 94c0 23 -4 45 -13 67h-173c-6 0 -10 1 -12 3s-3 7 -3 14v63h136c19 0 34 1 46 2s26 4 41 9s26 14 34 27s12 29 12 49c0 38 -10 71 -31 99c-26 -7 -61 -10 -105 -10h-375c-34 0 -60 -8 -78 -24
s-27 -37 -27 -63c0 -32 11 -63 32 -94c25 3 50 5 76 5v-395c0 -43 10 -71 29 -85s47 -21 83 -21h271c19 0 35 1 47 2s26 4 41 9s26 14 34 27s12 29 12 49c0 40 -10 74 -31 102c-33 -9 -68 -13 -105 -13zM318 712l-1 -1c-37 0 -65 9 -84 27s-28 42 -28 72c0 32 12 60 36 84
s56 36 97 36c37 0 65 -9 84 -27s29 -42 29 -72c0 -31 -12 -59 -36 -83s-56 -36 -97 -36z" />
    <glyph glyph-name="edotaccent" unicode="&#x117;" horiz-adv-x="641" 
d="M45 245l1 -5c0 -171 103 -257 308 -257c72 0 132 12 180 35s72 58 72 104c0 17 -4 34 -12 52s-19 31 -33 40c-44 -29 -99 -43 -164 -43c-64 0 -101 16 -110 47c28 -5 56 -8 84 -8c33 0 64 3 93 8s56 13 82 24s46 27 61 47s22 43 22 70c0 55 -24 97 -73 127
s-116 45 -201 45c-97 0 -173 -25 -228 -76s-82 -121 -82 -210zM296 284l1 -1c1 27 9 50 23 69s34 28 60 28c27 0 40 -12 40 -36c0 -17 -11 -31 -32 -42s-52 -17 -92 -18zM353 555l-1 -1c-37 0 -65 9 -84 27s-28 42 -28 72c0 32 12 60 36 84s56 36 97 36c37 0 65 -9 84 -27
s29 -42 29 -72c0 -31 -12 -59 -36 -83s-56 -36 -97 -36z" />
    <glyph glyph-name="Eogonek" unicode="&#x118;" horiz-adv-x="639" 
d="M559 -154c0 -31 -12 -55 -37 -73s-60 -27 -106 -27c-39 0 -69 10 -91 30s-33 46 -33 78c0 53 28 101 83 144h-149c-36 0 -63 7 -82 21s-28 43 -28 86v395c-26 0 -51 -2 -76 -5c-21 31 -32 62 -32 94c0 26 9 47 27 63s44 24 78 24h375c44 0 79 3 105 10
c21 -28 31 -61 31 -99c0 -20 -4 -36 -12 -49s-19 -22 -34 -27s-28 -8 -40 -9s-27 -2 -46 -2h-136v-63c0 -7 1 -12 3 -14s6 -3 12 -3h173c9 -22 13 -44 13 -67c0 -63 -42 -94 -125 -94h-76v-65c0 -7 1 -12 3 -14s6 -3 12 -3h123c37 0 72 4 105 13c21 -28 31 -62 31 -102
c0 -34 -10 -57 -31 -69s-48 -18 -82 -19c-15 -1 -27 -9 -36 -24s-13 -30 -13 -45c0 -25 12 -37 37 -37c13 0 25 2 36 6c12 -19 18 -37 18 -54z" />
    <glyph glyph-name="eogonek" unicode="&#x119;" horiz-adv-x="641" 
d="M494 -154l-1 1c0 -31 -12 -55 -37 -73s-60 -27 -106 -27c-39 0 -69 10 -91 30s-33 46 -33 78c0 51 24 96 71 136c-169 14 -253 99 -253 254c0 89 27 159 82 210s131 77 228 77c85 0 152 -15 201 -45s73 -72 73 -127c0 -27 -7 -50 -22 -70s-35 -35 -61 -46
s-53 -19 -82 -24s-60 -7 -93 -7c-28 0 -56 3 -84 8c9 -31 46 -47 110 -47c65 0 120 14 164 43c14 -9 25 -22 33 -40s12 -35 12 -52c0 -37 -16 -67 -49 -89s-76 -36 -129 -43c-17 -20 -25 -41 -25 -62c0 -25 12 -37 37 -37c14 0 26 2 37 6c12 -19 18 -37 18 -54zM294 290
l-1 1c40 1 71 7 92 18s32 25 32 42c0 24 -13 36 -40 36c-26 0 -46 -9 -60 -28s-22 -42 -23 -69z" />
    <glyph glyph-name="Ecaron" unicode="&#x11a;" horiz-adv-x="639" 
d="M493 177l-127 2c-6 0 -10 1 -12 3s-3 7 -3 14v65h76c83 0 125 31 125 94c0 23 -4 45 -13 67h-173c-6 0 -10 1 -12 3s-3 7 -3 14v63h136c19 0 34 1 46 2s26 4 41 9s26 14 34 27s12 29 12 49c0 38 -10 71 -31 99c-26 -7 -61 -10 -105 -10h-375c-34 0 -60 -8 -78 -24
s-27 -37 -27 -63c0 -32 11 -63 32 -94c25 3 50 5 76 5v-395c0 -43 10 -71 29 -85s47 -21 83 -21h271c19 0 35 1 47 2s26 4 41 9s26 14 34 27s12 29 12 49c0 40 -10 74 -31 102c-33 -9 -68 -13 -105 -13zM242 731l-125 158c5 21 17 38 37 50s42 18 65 18c31 0 54 -10 69 -30
l47 -87l40 61c9 13 19 31 30 54c30 0 56 -5 78 -15s36 -25 42 -44s-2 -43 -24 -72l-56 -66c-17 -20 -32 -33 -44 -40s-29 -10 -51 -10c-48 0 -84 8 -108 23z" />
    <glyph glyph-name="ecaron" unicode="&#x11b;" horiz-adv-x="641" 
d="M45 245l1 -5c0 -171 103 -257 308 -257c72 0 132 12 180 35s72 58 72 104c0 17 -4 34 -12 52s-19 31 -33 40c-44 -29 -99 -43 -164 -43c-64 0 -101 16 -110 47c28 -5 56 -8 84 -8c33 0 64 3 93 8s56 13 82 24s46 27 61 47s22 43 22 70c0 55 -24 97 -73 127
s-116 45 -201 45c-97 0 -173 -25 -228 -76s-82 -121 -82 -210zM296 284l1 -1c1 27 9 50 23 69s34 28 60 28c27 0 40 -12 40 -36c0 -17 -11 -31 -32 -42s-52 -17 -92 -18zM268 578l-125 158c5 21 17 38 37 50s42 18 65 18c31 0 54 -10 69 -30l47 -87l40 61c9 13 19 31 30 54
c30 0 56 -5 78 -15s36 -25 42 -44s-2 -43 -24 -72l-56 -66c-17 -20 -32 -33 -44 -40s-29 -10 -51 -10c-48 0 -84 8 -108 23z" />
    <glyph glyph-name="Gcircumflex" unicode="&#x11c;" horiz-adv-x="702" 
d="M495 229h4v-20c0 -19 -29 -29 -87 -29c-85 0 -128 51 -128 153c0 93 43 140 128 140c65 0 121 -14 168 -41c23 9 41 23 55 43s21 41 21 64c0 34 -14 62 -41 85s-59 39 -96 47s-78 12 -123 12c-119 0 -207 -34 -265 -102s-87 -157 -87 -268c0 -44 6 -85 17 -123
s28 -72 50 -103s52 -55 91 -73s84 -27 135 -27c81 0 144 24 189 73c7 -24 19 -42 37 -54s39 -18 62 -18c30 0 56 7 79 21v243c0 49 -7 81 -22 96s-43 23 -84 23h-184c-9 -24 -13 -46 -13 -65c0 -51 31 -77 94 -77zM472 926l124 -157c-5 -21 -17 -37 -37 -49s-42 -18 -65 -18
c-31 0 -54 10 -69 30l-48 83l-38 -61c-9 -13 -19 -31 -30 -54c-30 0 -56 5 -78 15s-36 25 -42 44s2 43 24 72l54 66c16 20 31 34 44 41s31 11 53 11c48 0 84 -8 108 -23z" />
    <glyph glyph-name="gcircumflex" unicode="&#x11d;" horiz-adv-x="692" 
d="M613 332l-7 -7c0 33 -7 62 -20 87c29 6 51 17 66 34s23 35 23 54c0 23 -8 42 -24 58s-37 24 -64 24c-13 0 -27 -3 -41 -8v-10c0 -31 -13 -56 -40 -74c-46 24 -103 36 -170 36c-90 0 -164 -20 -223 -59s-88 -94 -88 -165c0 -82 37 -139 112 -171c-30 -13 -54 -31 -72 -54
s-27 -49 -27 -79c0 -52 26 -86 77 -102c-40 -12 -60 -38 -60 -78c0 -28 13 -51 38 -70s55 -32 91 -39s76 -11 120 -11c221 0 334 64 339 193c0 45 -15 80 -44 106s-64 42 -105 49s-82 12 -124 15s-77 7 -106 12s-44 14 -44 28c0 5 1 9 2 12c27 -5 59 -7 95 -7
c84 0 154 20 211 61s85 96 85 165zM317 372v-1c44 0 66 -18 66 -55c0 -16 -6 -31 -18 -44s-29 -20 -51 -20c-45 0 -68 18 -68 55c0 17 6 32 18 45s30 20 53 20zM385 -156h-1c0 -11 -8 -19 -25 -25s-37 -9 -60 -9c-73 0 -110 15 -111 45c0 7 2 13 5 19c13 -3 37 -5 71 -6
s63 -3 86 -6s35 -9 35 -18zM405 784l124 -157c-5 -21 -17 -37 -37 -49s-42 -18 -65 -18c-31 0 -54 10 -69 30l-48 83l-38 -61c-9 -13 -19 -31 -30 -54c-30 0 -56 5 -78 15s-36 25 -42 44s2 43 24 72l54 66c16 20 31 34 44 41s31 11 53 11c48 0 84 -8 108 -23z" />
    <glyph glyph-name="Gbreve" unicode="&#x11e;" horiz-adv-x="702" 
d="M495 229h4v-20c0 -19 -29 -29 -87 -29c-85 0 -128 51 -128 153c0 93 43 140 128 140c65 0 121 -14 168 -41c23 9 41 23 55 43s21 41 21 64c0 34 -14 62 -41 85s-59 39 -96 47s-78 12 -123 12c-119 0 -207 -34 -265 -102s-87 -157 -87 -268c0 -44 6 -85 17 -123
s28 -72 50 -103s52 -55 91 -73s84 -27 135 -27c81 0 144 24 189 73c7 -24 19 -42 37 -54s39 -18 62 -18c30 0 56 7 79 21v243c0 49 -7 81 -22 96s-43 23 -84 23h-184c-9 -24 -13 -46 -13 -65c0 -51 31 -77 94 -77zM370 716l1 -1c-58 1 -105 14 -142 39s-55 55 -55 91
c0 22 7 41 21 57s36 25 65 28c32 -40 69 -60 110 -60s78 20 111 60c29 -3 51 -12 65 -28s21 -35 21 -56c0 -36 -18 -66 -55 -91s-84 -38 -142 -39z" />
    <glyph glyph-name="gbreve" unicode="&#x11f;" horiz-adv-x="692" 
d="M613 332l-7 -7c0 33 -7 62 -20 87c29 6 51 17 66 34s23 35 23 54c0 23 -8 42 -24 58s-37 24 -64 24c-13 0 -27 -3 -41 -8v-10c0 -31 -13 -56 -40 -74c-46 24 -103 36 -170 36c-90 0 -164 -20 -223 -59s-88 -94 -88 -165c0 -82 37 -139 112 -171c-30 -13 -54 -31 -72 -54
s-27 -49 -27 -79c0 -52 26 -86 77 -102c-40 -12 -60 -38 -60 -78c0 -28 13 -51 38 -70s55 -32 91 -39s76 -11 120 -11c221 0 334 64 339 193c0 45 -15 80 -44 106s-64 42 -105 49s-82 12 -124 15s-77 7 -106 12s-44 14 -44 28c0 5 1 9 2 12c27 -5 59 -7 95 -7
c84 0 154 20 211 61s85 96 85 165zM317 372v-1c44 0 66 -18 66 -55c0 -16 -6 -31 -18 -44s-29 -20 -51 -20c-45 0 -68 18 -68 55c0 17 6 32 18 45s30 20 53 20zM385 -156h-1c0 -11 -8 -19 -25 -25s-37 -9 -60 -9c-73 0 -110 15 -111 45c0 7 2 13 5 19c13 -3 37 -5 71 -6
s63 -3 86 -6s35 -9 35 -18zM322 567l1 -1c-58 1 -105 14 -142 39s-55 55 -55 91c0 22 7 41 21 57s36 25 65 28c32 -40 69 -60 110 -60s78 20 111 60c29 -3 51 -12 65 -28s21 -35 21 -56c0 -36 -18 -66 -55 -91s-84 -38 -142 -39z" />
    <glyph glyph-name="Gdotaccent" unicode="&#x120;" horiz-adv-x="702" 
d="M495 229h4v-20c0 -19 -29 -29 -87 -29c-85 0 -128 51 -128 153c0 93 43 140 128 140c65 0 121 -14 168 -41c23 9 41 23 55 43s21 41 21 64c0 34 -14 62 -41 85s-59 39 -96 47s-78 12 -123 12c-119 0 -207 -34 -265 -102s-87 -157 -87 -268c0 -44 6 -85 17 -123
s28 -72 50 -103s52 -55 91 -73s84 -27 135 -27c81 0 144 24 189 73c7 -24 19 -42 37 -54s39 -18 62 -18c30 0 56 7 79 21v243c0 49 -7 81 -22 96s-43 23 -84 23h-184c-9 -24 -13 -46 -13 -65c0 -51 31 -77 94 -77zM373 715l-1 -1c-37 0 -65 9 -84 27s-28 42 -28 72
c0 32 12 60 36 84s56 36 97 36c37 0 65 -9 84 -27s29 -42 29 -72c0 -31 -12 -59 -36 -83s-56 -36 -97 -36z" />
    <glyph glyph-name="gdotaccent" unicode="&#x121;" horiz-adv-x="656" 
d="M332 532l-6 -5c-87 0 -159 -20 -216 -60s-86 -95 -86 -164c0 -82 37 -139 112 -171c-30 -13 -54 -31 -72 -54s-27 -49 -27 -79c0 -52 26 -86 77 -102c-40 -12 -60 -38 -60 -78c0 -28 13 -51 38 -70s55 -32 91 -39s76 -11 120 -11c221 0 334 64 339 193
c0 45 -15 80 -44 106s-64 42 -105 49s-82 12 -124 15s-77 7 -106 12s-44 14 -44 28c0 5 1 9 2 12c27 -5 59 -7 95 -7c84 0 154 20 211 61s85 96 85 165c0 44 -13 83 -40 118c49 30 73 68 73 115c0 25 -8 47 -24 65s-39 27 -70 27c-21 0 -41 -5 -61 -15s-34 -23 -43 -40
c19 -17 29 -41 29 -72c0 -5 -1 -11 -2 -19c-38 12 -85 19 -142 20zM386 -153h-1c0 -11 -8 -19 -25 -25s-37 -9 -60 -9c-73 0 -110 15 -111 45c0 7 2 13 5 19c13 -3 37 -5 71 -6s63 -3 86 -6s35 -9 35 -18zM317 374v-1c44 0 66 -18 66 -55c0 -16 -6 -31 -18 -44
s-29 -20 -51 -20c-45 0 -68 18 -68 55c0 17 6 32 18 45s30 20 53 20zM303 575l-1 -1c-37 0 -65 9 -84 27s-28 42 -28 72c0 32 12 60 36 84s56 36 97 36c37 0 65 -9 84 -27s29 -42 29 -72c0 -31 -12 -59 -36 -83s-56 -36 -97 -36z" />
    <glyph glyph-name="Gcommaaccent" unicode="&#x122;" horiz-adv-x="702" 
d="M502 229l-6 -2c-63 0 -94 26 -94 77c0 19 4 41 13 65h184c41 0 69 -7 84 -22s22 -47 22 -96v-243c-23 -14 -49 -21 -79 -21c-23 0 -44 6 -62 18s-30 30 -37 54c-45 -49 -108 -73 -189 -73c-51 0 -96 9 -135 27s-69 42 -91 73s-38 65 -49 103s-16 79 -16 123
c0 111 29 200 87 268s146 102 265 102c45 0 86 -4 123 -12s69 -23 96 -46s41 -51 41 -85c0 -23 -7 -44 -21 -64s-32 -34 -55 -43c-47 27 -103 41 -168 41c-85 0 -128 -47 -128 -140c0 -102 43 -153 128 -153c58 0 87 10 87 29v20zM320 -280v-3c45 21 67 50 67 87
c0 11 -4 26 -13 45s-13 33 -13 43c0 24 11 44 33 59s47 23 74 23c37 0 65 -13 84 -38s29 -54 29 -87c0 -48 -16 -90 -49 -126s-74 -54 -123 -54c-44 0 -74 17 -89 51z" />
    <glyph glyph-name="gcommaaccent" unicode="&#x123;" horiz-adv-x="656" 
d="M332 532l-6 -5c-87 0 -159 -20 -216 -60s-86 -95 -86 -164c0 -82 37 -139 112 -171c-30 -13 -54 -31 -72 -54s-27 -49 -27 -79c0 -52 26 -86 77 -102c-40 -12 -60 -38 -60 -78c0 -28 13 -51 38 -70s55 -32 91 -39s76 -11 120 -11c221 0 334 64 339 193
c0 45 -15 80 -44 106s-64 42 -105 49s-82 12 -124 15s-77 7 -106 12s-44 14 -44 28c0 5 1 9 2 12c27 -5 59 -7 95 -7c84 0 154 20 211 61s85 96 85 165c0 44 -13 83 -40 118c49 30 73 68 73 115c0 25 -8 47 -24 65s-39 27 -70 27c-21 0 -41 -5 -61 -15s-34 -23 -43 -40
c19 -17 29 -41 29 -72c0 -5 -1 -11 -2 -19c-38 12 -85 19 -142 20zM386 -153h-1c0 -11 -8 -19 -25 -25s-37 -9 -60 -9c-73 0 -110 15 -111 45c0 7 2 13 5 19c13 -3 37 -5 71 -6s63 -3 86 -6s35 -9 35 -18zM317 374v-1c44 0 66 -18 66 -55c0 -16 -6 -31 -18 -44
s-29 -20 -51 -20c-45 0 -68 18 -68 55c0 17 6 32 18 45s30 20 53 20zM454 817l-2 1c-45 -21 -67 -50 -67 -87c0 -12 4 -27 13 -46s13 -33 13 -42c0 -24 -11 -43 -33 -58s-46 -22 -73 -22c-37 0 -65 13 -84 38s-29 54 -29 87c0 48 17 90 50 126s74 54 123 54
c44 0 74 -17 89 -51z" />
    <glyph glyph-name="Hcircumflex" unicode="&#x124;" horiz-adv-x="777" 
d="M505 498l-5 -75h-150c-6 0 -10 1 -12 3s-3 7 -3 14v109v36s-1 20 -4 33s-6 23 -10 30s-11 13 -20 19s-20 9 -33 9c-21 -2 -48 -5 -80 -9s-62 -8 -90 -11s-58 -5 -90 -7c-2 -11 -3 -23 -3 -35c0 -33 8 -62 23 -87s38 -40 69 -45v-341c1 -23 2 -42 4 -57s6 -30 11 -46
s13 -28 24 -36s25 -12 42 -12c16 0 79 14 188 41c-15 43 -24 90 -27 141v76h151c5 0 9 -1 11 -4s3 -8 3 -15v-86c1 -23 2 -42 4 -57s6 -30 11 -46s13 -28 24 -36s25 -12 42 -12c18 0 82 14 191 41c-15 43 -24 90 -27 141v354c-1 23 -2 42 -4 57s-5 31 -10 47s-13 28 -24 36
s-25 12 -42 12c-18 0 -82 -14 -191 -41c15 -43 24 -90 27 -141zM512 920l124 -157c-5 -21 -17 -37 -37 -49s-42 -18 -65 -18c-31 0 -54 10 -69 30l-48 83l-38 -61c-9 -13 -19 -31 -30 -54c-30 0 -56 5 -78 15s-36 25 -42 44s2 43 24 72l54 66c16 20 31 34 44 41s31 11 53 11
c48 0 84 -8 108 -23z" />
    <glyph glyph-name="hcircumflex" unicode="&#x125;" horiz-adv-x="747" 
d="M663 173l-2 161c0 66 -14 116 -41 150s-64 51 -111 51c-83 0 -147 -44 -192 -132v209c-1 19 -2 35 -4 48s-5 27 -10 43s-12 28 -22 36s-23 12 -38 12c-11 0 -44 -9 -99 -27s-93 -29 -114 -34c29 -42 44 -98 44 -169v-408c1 -18 2 -33 4 -44s5 -23 10 -36s12 -23 22 -29
s23 -9 39 -9c9 0 24 2 45 6s47 10 78 17s55 12 71 15c-14 35 -22 71 -25 108v77c0 39 7 71 21 96s30 38 48 38c19 0 28 -14 28 -42v-170c0 -99 53 -149 159 -149c86 0 137 36 154 109c-24 3 -41 10 -50 20s-14 28 -15 53zM278 994l124 -157c-5 -21 -17 -37 -37 -49
s-42 -18 -65 -18c-31 0 -54 10 -69 30l-48 83l-38 -61c-9 -13 -19 -31 -30 -54c-30 0 -56 5 -78 15s-36 25 -42 44s2 43 24 72l54 66c16 20 31 34 44 41s31 11 53 11c48 0 84 -8 108 -23z" />
    <glyph glyph-name="Hbar" unicode="&#x126;" horiz-adv-x="825" 
d="M736 576l17 2c12 0 28 2 48 6c16 -17 24 -35 24 -54c0 -16 -6 -28 -17 -37s-31 -13 -59 -13h-8v-305c3 -51 12 -98 27 -141c-109 -27 -173 -41 -191 -41c-17 0 -31 4 -42 12s-19 20 -24 36s-8 32 -10 47s-3 34 -4 57v81c0 7 -1 12 -3 15s-6 4 -11 4h-151v-71
c3 -51 12 -98 27 -141c-109 -27 -172 -41 -188 -41c-17 0 -31 4 -42 12s-19 20 -24 36s-8 32 -10 47s-3 34 -4 57v334h-12c-11 0 -27 -2 -48 -6c-16 17 -24 35 -24 54c0 16 6 28 17 37s31 13 59 13h8v69c85 23 139 34 162 34c43 0 68 -34 75 -103h168v69
c87 23 142 34 165 34c43 0 68 -34 75 -103zM332 480v-42c0 -7 1 -12 3 -14s6 -3 12 -3h150v59h-165z" />
    <glyph glyph-name="Itilde" unicode="&#x128;" horiz-adv-x="482" 
d="M135 512l-1 -334c0 -8 -4 -12 -11 -13c-52 -3 -78 -29 -78 -78c0 -31 10 -61 31 -89h302c35 0 61 8 79 23s27 35 27 60c0 29 -11 59 -32 90c-25 -3 -50 -5 -75 -5v332c0 8 4 12 11 13c52 3 78 29 78 78c0 38 -10 71 -31 99c-26 -7 -61 -10 -105 -10h-197
c-34 0 -60 -8 -78 -24s-27 -37 -27 -63c0 -25 11 -53 32 -84c25 3 50 5 75 5zM465 819v-2c0 -31 -10 -55 -31 -71s-49 -24 -84 -24c-18 0 -45 3 -80 8s-61 8 -78 8c-37 0 -62 -13 -75 -38c-25 3 -45 12 -61 28s-24 36 -24 60c0 60 35 91 105 94c21 0 52 -3 93 -8
s68 -8 80 -8c35 0 58 14 69 42c26 -3 47 -12 62 -28s23 -36 24 -61z" />
    <glyph glyph-name="itilde" unicode="&#x129;" horiz-adv-x="452" 
d="M377 141l-3 290v29s-1 16 -3 26s-5 18 -10 24s-12 11 -21 15s-20 6 -33 6c-25 -2 -67 -7 -127 -15s-109 -13 -147 -14c0 -13 0 -25 1 -35s3 -22 7 -35s9 -24 15 -33s15 -16 27 -22s27 -9 44 -10v-255c1 -18 2 -33 4 -44s5 -23 10 -36s12 -23 22 -29s23 -9 39 -9
c10 0 26 2 48 6s49 10 81 17l71 16c-14 35 -22 71 -25 108zM429 667v-2c0 -31 -10 -55 -31 -71s-49 -24 -84 -24c-18 0 -45 3 -80 8s-61 8 -78 8c-37 0 -62 -13 -75 -38c-25 3 -45 12 -61 28s-24 36 -24 60c0 60 35 91 105 94c21 0 52 -3 93 -8s68 -8 80 -8
c35 0 58 14 69 42c26 -3 47 -12 62 -28s23 -36 24 -61z" />
    <glyph glyph-name="imacron" unicode="&#x12b;" horiz-adv-x="400" 
d="M342 432v-293c3 -37 11 -73 25 -108l-71 -16c-32 -7 -59 -13 -81 -17s-38 -6 -48 -6c-16 0 -29 3 -39 9s-17 16 -22 29s-8 25 -10 36s-3 26 -4 44v255c-17 1 -31 5 -43 11s-21 14 -27 23s-11 20 -15 33s-6 25 -7 35s-1 22 -1 35c38 1 87 6 147 14s103 13 128 15
c13 0 24 -2 33 -6s16 -9 21 -15s9 -14 11 -24s3 -19 3 -26v-28zM292 727l-3 2c27 0 48 3 63 9c14 -23 21 -47 21 -72s-7 -45 -22 -60s-36 -23 -64 -24c-19 0 -55 2 -108 5s-84 5 -92 5c-27 0 -48 -3 -63 -9c-14 25 -21 49 -21 72c0 25 8 45 24 60s39 22 69 22
c17 0 52 -2 105 -5s83 -5 91 -5z" />
    <glyph glyph-name="Ibreve" unicode="&#x12c;" horiz-adv-x="482" 
d="M135 512l-1 -334c0 -8 -4 -12 -11 -13c-52 -3 -78 -29 -78 -78c0 -31 10 -61 31 -89h302c35 0 61 8 79 23s27 35 27 60c0 29 -11 59 -32 90c-25 -3 -50 -5 -75 -5v332c0 8 4 12 11 13c52 3 78 29 78 78c0 38 -10 71 -31 99c-26 -7 -61 -10 -105 -10h-197
c-34 0 -60 -8 -78 -24s-27 -37 -27 -63c0 -25 11 -53 32 -84c25 3 50 5 75 5zM247 717l1 -1c-58 1 -105 14 -142 39s-55 55 -55 91c0 22 7 41 21 57s36 25 65 28c32 -40 69 -60 110 -60s78 20 111 60c29 -3 51 -12 65 -28s21 -35 21 -56c0 -36 -18 -66 -55 -91
s-84 -38 -142 -39z" />
    <glyph glyph-name="Iogonek" unicode="&#x12e;" horiz-adv-x="482" 
d="M477 -154l-1 4c0 -31 -12 -55 -37 -73s-60 -27 -106 -27c-39 0 -69 10 -91 30s-33 46 -33 78c0 53 28 101 83 144h-216c-21 28 -31 58 -31 89c0 49 26 75 78 78c7 1 11 5 11 13v332c-26 0 -51 -2 -76 -5c-21 31 -32 59 -32 84c0 26 9 47 27 63s44 24 78 24h197
c44 0 79 3 105 10c21 -28 31 -61 31 -99c0 -49 -26 -75 -78 -78c-7 -1 -11 -5 -11 -13v-332c25 0 50 2 75 5c21 -31 32 -61 32 -90c0 -16 -5 -30 -15 -43s-21 -23 -33 -30s-23 -17 -33 -31s-15 -30 -15 -48c0 -25 12 -37 37 -37c13 0 25 2 36 6c12 -19 18 -37 18 -54z" />
    <glyph glyph-name="iogonek" unicode="&#x12f;" horiz-adv-x="392" 
d="M94 366l-5 -260c1 -23 3 -41 5 -55s8 -27 18 -40s24 -20 42 -21c-49 -41 -73 -87 -73 -138c0 -32 11 -58 33 -78s52 -30 91 -30c46 0 82 9 107 27s38 43 38 74c0 17 -6 35 -18 54c-11 -4 -23 -6 -36 -6c-25 0 -37 12 -37 37c0 22 9 43 26 62s44 32 81 39
c-14 35 -22 71 -25 108v291v29s-1 16 -3 26s-5 18 -10 24s-12 11 -21 15s-20 6 -33 6c-25 -2 -67 -7 -127 -15s-109 -13 -147 -14c0 -13 0 -25 1 -35s3 -22 7 -35s9 -24 15 -33s15 -16 27 -22s27 -9 44 -10zM327 664l-1 1c0 -34 -11 -61 -34 -81s-56 -30 -100 -30
c-83 0 -125 32 -125 97c0 34 13 61 38 82s59 31 101 31c39 0 69 -9 90 -27s31 -42 31 -73z" />
    <glyph glyph-name="Kcommaaccent" unicode="&#x136;" horiz-adv-x="725" 
d="M340 303l-3 -132c3 -51 12 -98 27 -141c-109 -27 -172 -41 -188 -41c-17 0 -31 4 -42 12s-19 20 -24 36s-8 32 -10 47s-3 34 -4 57v341c-31 5 -54 20 -69 45s-22 54 -22 87c0 12 1 24 3 35c32 2 62 5 90 8s58 7 90 11s59 7 80 9c13 0 24 -3 33 -9s16 -12 20 -19
s8 -17 11 -30s5 -24 5 -33v-36v-153h29c33 0 56 12 69 36s20 52 20 83c0 34 -9 68 -27 103c37 39 83 59 138 59c45 0 79 -14 101 -43s33 -63 33 -102c0 -79 -36 -142 -108 -190c18 -48 44 -91 77 -128s66 -59 98 -66c-2 -53 -18 -92 -49 -117s-68 -37 -111 -37
c-31 0 -57 4 -78 12s-41 23 -60 45s-35 53 -49 94s-26 93 -37 157h-43zM276 -234v-3c45 21 67 50 67 87c0 11 -4 26 -13 45s-13 33 -13 43c0 24 11 44 33 59s47 23 74 23c37 0 65 -13 84 -38s29 -54 29 -87c0 -48 -16 -90 -49 -126s-74 -54 -123 -54c-44 0 -74 17 -89 51z
" />
    <glyph glyph-name="kcommaaccent" unicode="&#x137;" horiz-adv-x="689" 
d="M64 111l2 402c0 71 -15 127 -44 169c21 5 59 16 114 34s88 27 99 27c15 0 28 -4 38 -12s18 -20 23 -36s8 -30 10 -43s3 -29 4 -48v-241c57 109 133 164 228 164c43 0 75 -12 96 -35s32 -52 32 -87c0 -39 -12 -72 -36 -98s-60 -39 -108 -40c21 -26 48 -39 82 -39
c19 0 36 5 51 14c18 -27 27 -58 27 -93c0 -46 -14 -85 -41 -117s-65 -48 -114 -48c-34 0 -64 7 -90 22s-46 35 -60 60s-24 51 -31 78s-10 56 -10 86c31 4 56 13 76 27s30 29 30 46c0 9 -3 17 -9 23s-14 9 -24 9c-36 0 -70 -25 -101 -76v-120c3 -37 11 -73 25 -108
c-16 -3 -40 -8 -71 -15s-57 -13 -78 -17s-36 -6 -45 -6c-16 0 -29 3 -39 9s-17 16 -22 29s-8 25 -10 36s-3 26 -4 44zM217 -254v-3c45 21 67 50 67 87c0 11 -4 26 -13 45s-13 33 -13 43c0 24 11 44 33 59s47 23 74 23c37 0 65 -13 84 -38s29 -54 29 -87
c0 -48 -16 -90 -49 -126s-74 -54 -123 -54c-44 0 -74 17 -89 51z" />
    <glyph glyph-name="Lacute" unicode="&#x139;" horiz-adv-x="578" 
d="M99 144l-1 338c-31 5 -54 20 -69 45s-22 54 -22 87c0 12 1 24 3 35c32 2 62 5 90 8s58 7 90 11s59 7 80 9c13 0 24 -3 33 -9s16 -12 20 -19s8 -17 11 -30s5 -24 5 -33v-36v-323c0 -12 3 -18 10 -18h49h48c67 0 121 10 162 29c13 -17 23 -37 30 -60s11 -41 11 -55
c0 -27 -5 -49 -14 -66s-23 -29 -42 -37s-39 -13 -60 -16s-48 -4 -81 -4h-263c-15 0 -28 3 -39 8s-20 12 -26 20s-11 19 -15 33s-6 27 -7 39s-2 27 -3 44zM362 823l-164 -132c-21 7 -41 18 -60 34s-28 33 -28 52c0 12 4 23 13 34l145 180c23 -4 45 -13 66 -28s36 -33 44 -54
c6 -14 8 -29 6 -46s-9 -30 -22 -40z" />
    <glyph glyph-name="lacute" unicode="&#x13a;" horiz-adv-x="381" 
d="M313 609v-394c3 -31 11 -52 25 -63s35 -17 63 -17c-1 -45 -15 -80 -43 -105s-62 -37 -102 -37c-56 0 -102 15 -137 45s-53 76 -53 138v343c0 71 -15 127 -44 169c21 4 60 15 116 33s90 27 101 27c49 0 74 -46 74 -139zM288 880l-164 -132c-21 7 -41 18 -60 34
s-28 33 -28 52c0 12 4 23 13 34l145 180c23 -4 45 -13 66 -28s36 -33 44 -54c6 -14 8 -29 6 -46s-9 -30 -22 -40z" />
    <glyph glyph-name="Lcommaaccent" unicode="&#x13b;" horiz-adv-x="578" 
d="M99 144l-1 338c-31 5 -54 20 -69 45s-22 54 -22 87c0 12 1 24 3 35c32 2 62 5 90 8s58 7 90 11s59 7 80 9c13 0 24 -3 33 -9s16 -12 20 -19s8 -17 11 -30s5 -24 5 -33v-36v-323c0 -12 3 -18 10 -18h49h48c67 0 121 10 162 29c13 -17 23 -37 30 -60s11 -41 11 -55
c0 -27 -5 -49 -14 -66s-23 -29 -42 -37s-39 -13 -60 -16s-48 -4 -81 -4h-263c-15 0 -28 3 -39 8s-20 12 -26 20s-11 19 -15 33s-6 27 -7 39s-2 27 -3 44zM231 -285v-3c45 21 67 50 67 87c0 11 -4 26 -13 45s-13 33 -13 43c0 24 11 44 33 59s47 23 74 23c37 0 65 -13 84 -38
s29 -54 29 -87c0 -48 -16 -90 -49 -126s-74 -54 -123 -54c-44 0 -74 17 -89 51z" />
    <glyph glyph-name="lcommaaccent" unicode="&#x13c;" horiz-adv-x="380" 
d="M97 -287v-3c45 21 67 50 67 87c0 12 -4 27 -13 46s-13 33 -13 42c0 24 11 44 33 59s47 23 74 23c37 0 65 -13 84 -38s29 -54 29 -87c0 -48 -16 -90 -49 -126s-74 -54 -123 -54c-44 0 -74 17 -89 51zM312 606v-394c3 -31 11 -52 25 -63s35 -17 63 -17
c-1 -45 -15 -80 -43 -105s-62 -37 -102 -37c-56 0 -102 15 -137 45s-53 76 -53 138v343c0 71 -15 127 -44 169c21 4 60 15 116 33s90 27 101 27c49 0 74 -46 74 -139z" />
    <glyph glyph-name="Lcaron" unicode="&#x13d;" horiz-adv-x="578" 
d="M99 144l-1 338c-31 5 -54 20 -69 45s-22 54 -22 87c0 12 1 24 3 35c32 2 62 5 90 8s58 7 90 11s59 7 80 9c13 0 24 -3 33 -9s16 -12 20 -19s8 -17 11 -30s5 -24 5 -33v-36v-323c0 -12 3 -18 10 -18h49h48c67 0 121 10 162 29c13 -17 23 -37 30 -60s11 -41 11 -55
c0 -27 -5 -49 -14 -66s-23 -29 -42 -37s-39 -13 -60 -16s-48 -4 -81 -4h-263c-15 0 -28 3 -39 8s-20 12 -26 20s-11 19 -15 33s-6 27 -7 39s-2 27 -3 44zM363 420v-3c45 21 67 50 67 87c0 12 -4 27 -13 46s-13 33 -13 42c0 24 11 44 33 59s47 23 74 23c37 0 65 -13 84 -38
s29 -54 29 -87c0 -48 -16 -90 -49 -126s-74 -54 -123 -54c-44 0 -74 17 -89 51z" />
    <glyph glyph-name="lcaron" unicode="&#x13e;" horiz-adv-x="529" 
d="M312 609v-394c3 -31 11 -52 25 -63s35 -17 63 -17c-1 -45 -15 -80 -43 -105s-62 -37 -102 -37c-56 0 -102 15 -137 45s-53 76 -53 138v343c0 71 -15 127 -44 169c21 4 60 15 116 33s90 27 101 27c49 0 74 -46 74 -139zM334 494v-3c45 21 67 50 67 87c0 11 -4 26 -13 45
s-13 33 -13 43c0 24 11 44 33 59s47 23 74 23c37 0 65 -13 84 -38s29 -54 29 -87c0 -48 -16 -90 -49 -126s-74 -54 -123 -54c-44 0 -74 17 -89 51z" />
    <glyph glyph-name="Ldot" unicode="&#x13f;" horiz-adv-x="578" 
d="M99 144h-3c1 -17 2 -32 3 -44s3 -25 7 -39s9 -25 15 -33s15 -15 26 -20s24 -8 39 -8h263c33 0 60 1 81 4s41 8 60 16s33 21 42 38s14 39 14 66c0 14 -3 33 -10 56s-17 43 -30 60c-41 -19 -95 -29 -162 -29h-48h-49c-7 0 -10 6 -10 18v323v36s-1 20 -4 33s-6 23 -10 30
s-11 13 -20 19s-20 9 -33 9c-21 -2 -48 -5 -80 -9s-62 -8 -90 -11s-58 -5 -90 -7c-2 -11 -3 -23 -3 -35c0 -33 8 -62 23 -87s38 -40 69 -45v-341zM178 705h-1c-33 0 -58 7 -75 21s-25 33 -25 57c0 25 11 47 33 66s51 29 88 29c33 0 58 -7 75 -21s26 -33 26 -57
c0 -25 -11 -47 -33 -66s-51 -29 -88 -29z" />
    <glyph glyph-name="Lslash" unicode="&#x141;" horiz-adv-x="578" 
d="M99 144l-2 50l-39 -27c-15 3 -28 11 -38 24s-15 27 -15 41c0 25 11 45 34 61l58 40v148c-31 5 -54 20 -69 45s-22 54 -22 87c0 12 1 24 3 35c32 2 62 5 90 8s58 7 90 11s59 7 80 9c13 0 24 -3 33 -9s16 -12 20 -19s8 -17 11 -30s5 -24 5 -33v-36v-45l76 53
c13 10 26 22 38 36c18 -5 34 -14 47 -26s20 -26 20 -41c0 -22 -14 -43 -42 -62l-138 -97v-140c0 -12 3 -18 10 -18h49h48c67 0 121 10 162 29c13 -17 23 -37 30 -60s11 -41 11 -55c0 -27 -5 -49 -14 -66s-23 -29 -42 -37s-39 -13 -60 -16s-48 -4 -81 -4h-263
c-15 0 -28 3 -39 8s-20 12 -26 20s-11 19 -15 33s-6 27 -7 39s-2 27 -3 44z" />
    <glyph glyph-name="lslash" unicode="&#x142;" horiz-adv-x="475" 
d="M375 529l15 11c13 10 26 22 38 36c18 -5 34 -14 47 -26s20 -26 20 -41c0 -22 -14 -43 -42 -62l-78 -55v-178c3 -31 11 -52 25 -63s35 -17 63 -17c-1 -45 -15 -80 -43 -105s-62 -37 -102 -37c-56 0 -102 15 -137 45s-53 76 -53 138v42l-53 -37c-15 3 -28 11 -38 24
s-15 27 -15 41c0 25 11 45 34 61l72 50v163c0 71 -15 127 -44 169c21 4 60 15 116 33s90 27 101 27c49 0 74 -46 74 -139v-80z" />
    <glyph glyph-name="Nacute" unicode="&#x143;" horiz-adv-x="745" 
d="M724 527l-9 -512c-24 -13 -55 -20 -92 -20c-28 0 -49 2 -63 6s-26 11 -37 22l-239 318c2 -11 4 -68 6 -171c1 -69 10 -122 26 -159c-57 -14 -96 -21 -117 -21s-38 4 -51 11s-22 18 -28 33s-10 31 -12 47s-3 37 -3 62v368c-22 0 -44 -2 -66 -5c-21 31 -32 59 -32 84
c0 26 9 47 27 63s44 24 78 24h100c32 -1 60 -7 84 -18s48 -31 71 -60l173 -244l-1 142c-3 72 -12 125 -27 160c57 14 96 21 117 21s38 -3 51 -10s23 -18 29 -33s10 -30 12 -46s3 -37 3 -62zM592 769l-164 -132c-21 7 -41 18 -60 34s-28 33 -28 52c0 12 4 23 13 34l145 180
c23 -4 45 -13 66 -28s36 -33 44 -54c6 -14 8 -29 6 -46s-9 -30 -22 -40z" />
    <glyph glyph-name="nacute" unicode="&#x144;" horiz-adv-x="727" 
d="M337 224l2 -86c3 -37 11 -73 25 -108l-71 -16c-32 -7 -59 -13 -81 -17s-38 -6 -48 -6c-16 0 -29 3 -39 9s-17 16 -22 29s-8 25 -10 36s-3 26 -4 44v255c-17 1 -31 5 -43 11s-21 14 -27 23s-11 20 -15 33s-6 25 -7 35s-1 22 -1 35c38 1 87 6 147 14s103 13 128 15
c13 0 24 -2 33 -6s16 -9 21 -15s9 -14 11 -24s3 -19 3 -26v-28v-32c45 88 109 132 192 132c47 0 84 -17 111 -51s41 -84 41 -150v-159c1 -25 6 -42 15 -52s26 -16 50 -19c-17 -73 -68 -109 -154 -109c-106 0 -159 50 -159 149v170c0 28 -9 42 -28 42c-18 0 -34 -12 -48 -36
s-21 -55 -22 -92zM537 654l-164 -132c-21 7 -41 18 -60 34s-28 33 -28 52c0 12 4 23 13 34l145 180c23 -4 45 -13 66 -28s36 -33 44 -54c6 -14 8 -29 6 -46s-9 -30 -22 -40z" />
    <glyph glyph-name="Ncommaaccent" unicode="&#x145;" horiz-adv-x="745" 
d="M724 527l-9 -512c-24 -13 -55 -20 -92 -20c-28 0 -49 2 -63 6s-26 11 -37 22l-239 318c2 -11 4 -68 6 -171c1 -69 10 -122 26 -159c-57 -14 -96 -21 -117 -21s-38 4 -51 11s-22 18 -28 33s-10 31 -12 47s-3 37 -3 62v368c-22 0 -44 -2 -66 -5c-21 31 -32 59 -32 84
c0 26 9 47 27 63s44 24 78 24h100c32 -1 60 -7 84 -18s48 -31 71 -60l173 -244l-1 142c-3 72 -12 125 -27 160c57 14 96 21 117 21s38 -3 51 -10s23 -18 29 -33s10 -30 12 -46s3 -37 3 -62zM285 -225v-3c45 21 67 50 67 87c0 11 -4 26 -13 45s-13 33 -13 43
c0 24 11 44 33 59s47 23 74 23c37 0 65 -13 84 -38s29 -54 29 -87c0 -48 -16 -90 -49 -126s-74 -54 -123 -54c-44 0 -74 17 -89 51z" />
    <glyph glyph-name="ncommaaccent" unicode="&#x146;" horiz-adv-x="727" 
d="M337 224l2 -86c3 -37 11 -73 25 -108l-71 -16c-32 -7 -59 -13 -81 -17s-38 -6 -48 -6c-16 0 -29 3 -39 9s-17 16 -22 29s-8 25 -10 36s-3 26 -4 44v255c-17 1 -31 5 -43 11s-21 14 -27 23s-11 20 -15 33s-6 25 -7 35s-1 22 -1 35c38 1 87 6 147 14s103 13 128 15
c13 0 24 -2 33 -6s16 -9 21 -15s9 -14 11 -24s3 -19 3 -26v-28v-32c45 88 109 132 192 132c47 0 84 -17 111 -51s41 -84 41 -150v-159c1 -25 6 -42 15 -52s26 -16 50 -19c-17 -73 -68 -109 -154 -109c-106 0 -159 50 -159 149v170c0 28 -9 42 -28 42c-18 0 -34 -12 -48 -36
s-21 -55 -22 -92zM259 -247v-3c45 21 67 50 67 87c0 11 -4 26 -13 45s-13 33 -13 43c0 24 11 44 33 59s47 23 74 23c37 0 65 -13 84 -38s29 -54 29 -87c0 -48 -16 -90 -49 -126s-74 -54 -123 -54c-44 0 -74 17 -89 51z" />
    <glyph glyph-name="Ncaron" unicode="&#x147;" horiz-adv-x="745" 
d="M724 527l-9 -512c-24 -13 -55 -20 -92 -20c-28 0 -49 2 -63 6s-26 11 -37 22l-239 318c2 -11 4 -68 6 -171c1 -69 10 -122 26 -159c-57 -14 -96 -21 -117 -21s-38 4 -51 11s-22 18 -28 33s-10 31 -12 47s-3 37 -3 62v368c-22 0 -44 -2 -66 -5c-21 31 -32 59 -32 84
c0 26 9 47 27 63s44 24 78 24h100c32 -1 60 -7 84 -18s48 -31 71 -60l173 -244l-1 142c-3 72 -12 125 -27 160c57 14 96 21 117 21s38 -3 51 -10s23 -18 29 -33s10 -30 12 -46s3 -37 3 -62zM322 692l-125 158c5 21 17 38 37 50s42 18 65 18c31 0 54 -10 69 -30l47 -87l40 61
c9 13 19 31 30 54c30 0 56 -5 78 -15s36 -25 42 -44s-2 -43 -24 -72l-56 -66c-17 -20 -32 -33 -44 -40s-29 -10 -51 -10c-48 0 -84 8 -108 23z" />
    <glyph glyph-name="ncaron" unicode="&#x148;" horiz-adv-x="727" 
d="M337 141l-5 81c1 37 8 68 22 92s30 36 48 36c19 0 28 -14 28 -42v-170c0 -99 53 -149 159 -149c86 0 137 36 154 109c-24 3 -41 10 -50 20s-14 28 -15 53v159c0 66 -14 116 -41 150s-64 51 -111 51c-83 0 -147 -44 -192 -132v32v29s-1 16 -3 26s-5 18 -10 24
s-12 11 -21 15s-20 6 -33 6c-25 -2 -67 -7 -127 -15s-109 -13 -147 -14c0 -13 0 -25 1 -35s3 -22 7 -35s9 -24 15 -33s15 -16 27 -22s27 -9 44 -10v-255c1 -18 2 -33 4 -44s5 -23 10 -36s12 -23 22 -29s23 -9 39 -9c10 0 26 2 48 6s49 10 81 17l71 16c-14 35 -22 71 -25 108
zM288 562l-125 158c5 21 17 38 37 50s42 18 65 18c31 0 54 -10 69 -30l47 -87l40 61c9 13 19 31 30 54c30 0 56 -5 78 -15s36 -25 42 -44s-2 -43 -24 -72l-56 -66c-17 -20 -32 -33 -44 -40s-29 -10 -51 -10c-48 0 -84 8 -108 23z" />
    <glyph glyph-name="Omacron" unicode="&#x14c;" horiz-adv-x="731" 
d="M287 335v-1c0 -88 34 -132 103 -132c71 0 106 44 106 133c0 42 -9 75 -27 99s-43 36 -75 36c-71 0 -107 -45 -107 -135zM393 -13l-2 2c-231 0 -347 109 -347 327c0 51 7 98 21 141s35 82 63 116s65 61 111 80s99 29 159 29c226 0 339 -108 339 -325
c0 -51 -7 -98 -20 -141s-33 -82 -60 -117s-63 -62 -108 -82s-97 -30 -156 -30zM500 871l-3 1c27 0 48 3 63 9c14 -23 21 -47 21 -72s-7 -45 -22 -60s-36 -23 -64 -24c-19 0 -55 2 -108 5s-84 5 -92 5c-27 0 -48 -3 -63 -9c-14 25 -21 49 -21 73c0 25 8 45 24 60s39 22 69 22
c17 0 52 -2 105 -5s83 -5 91 -5z" />
    <glyph glyph-name="omacron" unicode="&#x14d;" 
d="M273 260l-2 -3c0 -21 6 -40 18 -56s30 -24 53 -24c20 0 37 7 51 22s21 35 21 60c0 26 -6 46 -19 61s-29 22 -49 22c-21 0 -38 -7 -52 -22s-21 -35 -21 -60zM346 -15l1 2c-107 0 -186 23 -237 68s-76 108 -76 189c0 83 27 151 81 205s131 81 232 81c104 0 181 -23 231 -69
s75 -109 75 -190c0 -82 -26 -150 -79 -204s-129 -81 -228 -82zM443 721l-3 1c27 0 48 3 63 9c14 -23 21 -47 21 -72s-7 -45 -22 -60s-36 -23 -64 -24c-19 0 -55 2 -108 5s-84 5 -92 5c-27 0 -48 -3 -63 -9c-14 25 -21 49 -21 73c0 25 8 45 24 60s39 22 69 22
c17 0 52 -2 105 -5s83 -5 91 -5z" />
    <glyph glyph-name="Obreve" unicode="&#x14e;" horiz-adv-x="731" 
d="M287 335v1c0 90 36 135 107 135c32 0 57 -12 75 -36s27 -57 27 -99c0 -89 -35 -133 -106 -133c-69 0 -103 44 -103 132zM393 -11l2 -2c59 0 111 10 156 30s81 47 108 82s47 74 60 117s20 90 20 141c0 217 -113 325 -339 325c-60 0 -113 -10 -159 -29s-83 -46 -111 -80
s-49 -73 -63 -116s-21 -90 -21 -141c0 -218 116 -327 347 -327zM395 717l1 -1c-58 1 -105 14 -142 39s-55 55 -55 91c0 22 7 41 21 57s36 25 65 28c32 -40 69 -60 110 -60s78 20 111 60c29 -3 51 -12 65 -28s21 -35 21 -56c0 -36 -18 -66 -55 -91s-84 -38 -142 -39z" />
    <glyph glyph-name="obreve" unicode="&#x14f;" 
d="M273 260l-2 -3c0 -21 6 -40 18 -56s30 -24 53 -24c20 0 37 7 51 22s21 35 21 60c0 26 -6 46 -19 61s-29 22 -49 22c-21 0 -38 -7 -52 -22s-21 -35 -21 -60zM346 -15l1 2c-107 0 -186 23 -237 68s-76 108 -76 189c0 83 27 151 81 205s131 81 232 81c104 0 181 -23 231 -69
s75 -109 75 -190c0 -82 -26 -150 -79 -204s-129 -81 -228 -82zM347 560l1 -1c-58 1 -105 14 -142 39s-55 55 -55 91c0 22 7 41 21 57s36 25 65 28c32 -40 69 -60 110 -60s78 20 111 60c29 -3 51 -12 65 -28s21 -35 21 -56c0 -36 -18 -66 -55 -91s-84 -38 -142 -39z" />
    <glyph glyph-name="Ohungarumlaut" unicode="&#x150;" horiz-adv-x="731" 
d="M287 335v-1c0 -88 34 -132 103 -132c71 0 106 44 106 133c0 42 -9 75 -27 99s-43 36 -75 36c-71 0 -107 -45 -107 -135zM393 -13l-2 2c-231 0 -347 109 -347 327c0 51 7 98 21 141s35 82 63 116s65 61 111 80s99 29 159 29c226 0 339 -108 339 -325
c0 -51 -7 -98 -20 -141s-33 -82 -60 -117s-63 -62 -108 -82s-97 -30 -156 -30zM429 838l-165 -129c-51 17 -77 43 -77 78c0 12 5 24 14 35l145 179c50 -7 84 -32 101 -75c13 -39 7 -68 -18 -88zM668 839l-165 -129c-20 7 -38 17 -53 30s-23 29 -23 48c0 12 4 24 13 35
l145 179c50 -7 84 -32 101 -75c13 -39 7 -68 -18 -88z" />
    <glyph glyph-name="ohungarumlaut" unicode="&#x151;" 
d="M273 260l-2 -3c0 -21 6 -40 18 -56s30 -24 53 -24c20 0 37 7 51 22s21 35 21 60c0 26 -6 46 -19 61s-29 22 -49 22c-21 0 -38 -7 -52 -22s-21 -35 -21 -60zM346 -15l1 2c-107 0 -186 23 -237 68s-76 108 -76 189c0 83 27 151 81 205s131 81 232 81c104 0 181 -23 231 -69
s75 -109 75 -190c0 -82 -26 -150 -79 -204s-129 -81 -228 -82zM369 682l-165 -129c-51 17 -77 43 -77 78c0 12 5 24 14 35l145 179c50 -7 84 -32 101 -75c13 -39 7 -68 -18 -88zM608 683l-165 -129c-20 7 -38 17 -53 30s-23 29 -23 48c0 12 4 24 13 35l145 179
c50 -7 84 -32 101 -75c13 -39 7 -68 -18 -88z" />
    <glyph glyph-name="OE" unicode="&#x152;" horiz-adv-x="983" 
d="M570 679l262 -4c44 0 79 3 105 10c21 -28 31 -61 31 -99c0 -20 -4 -36 -12 -49s-19 -22 -34 -27s-28 -8 -40 -9s-27 -2 -46 -2h-136v-63c0 -7 1 -12 3 -14s6 -3 12 -3h173c9 -21 13 -43 13 -66c0 -63 -42 -94 -125 -94h-76v-65c0 -7 1 -12 3 -14s6 -3 12 -3h123
c37 0 72 4 105 13c21 -28 31 -62 31 -102c0 -20 -4 -36 -12 -49s-19 -22 -34 -27s-28 -8 -40 -9s-27 -2 -46 -2h-271c-38 0 -66 9 -85 28c-36 -27 -84 -40 -143 -40c-93 0 -165 30 -217 90s-78 139 -78 236c0 49 7 95 20 138s33 82 59 117s61 63 104 83s92 30 147 30
c41 0 83 -9 125 -26c15 15 37 22 67 22zM288 331l-1 1c0 -19 2 -37 5 -54s8 -34 16 -52s20 -32 37 -43s37 -16 60 -16c20 0 38 2 55 7v319c-16 5 -33 7 -51 7c-43 0 -74 -16 -93 -48s-28 -72 -28 -121z" />
    <glyph glyph-name="oe" unicode="&#x153;" horiz-adv-x="972" 
d="M35 235v-1c0 86 26 157 77 213s127 84 228 84c60 0 112 -16 156 -47c52 32 115 48 189 48c85 0 152 -15 201 -45s73 -72 73 -127c0 -27 -7 -50 -22 -70s-35 -35 -61 -46s-53 -19 -82 -24s-60 -7 -93 -7c-28 0 -56 3 -84 8c9 -31 46 -47 110 -47c65 0 120 14 164 43
c14 -9 25 -22 33 -40s12 -35 12 -52c0 -46 -24 -80 -72 -103s-108 -34 -180 -34c-80 0 -145 13 -194 40c-54 -26 -110 -39 -168 -39c-86 0 -155 21 -208 63s-79 103 -79 183zM376 244l-1 -3c0 41 6 79 19 114c-14 5 -28 8 -41 8c-26 0 -46 -10 -60 -30s-21 -46 -21 -77
c0 -30 7 -54 20 -73s33 -28 59 -28c10 0 22 2 35 5c-7 23 -10 51 -10 84zM625 285l-1 1c40 1 71 7 92 18s32 25 32 42c0 24 -13 36 -40 36c-26 0 -46 -9 -60 -28s-22 -42 -23 -69z" />
    <glyph glyph-name="Racute" unicode="&#x154;" horiz-adv-x="712" 
d="M353 208l-1 -38c3 -48 12 -95 27 -140l-53 -13l-56 -14c-12 -3 -26 -6 -42 -9s-28 -4 -36 -4c-17 0 -31 4 -42 12s-19 20 -24 36s-8 32 -10 47s-3 34 -4 57v358c-26 0 -51 -2 -76 -5c-21 31 -32 62 -32 94c0 19 4 35 12 48s19 22 34 27s30 9 44 11s31 3 50 3h218
c117 0 203 -19 258 -58s82 -96 82 -172c0 -97 -30 -161 -90 -192c34 -57 75 -91 123 -102c-2 -57 -17 -98 -45 -124s-63 -39 -106 -39c-14 0 -27 1 -39 3s-22 5 -31 9s-18 9 -26 16s-15 13 -21 18s-12 13 -18 24s-11 20 -14 27s-7 17 -11 30s-7 23 -9 30l-9 32
c-4 14 -7 24 -8 30c-7 -1 -22 -2 -45 -2zM383 345c56 0 84 27 84 82c0 48 -25 72 -75 72h-40v-153c5 -1 15 -1 31 -1zM474 833l-164 -132c-21 7 -41 18 -60 34s-28 33 -28 52c0 12 4 23 13 34l145 180c23 -4 45 -13 66 -28s36 -33 44 -54c6 -14 8 -29 6 -46s-9 -30 -22 -40z
" />
    <glyph glyph-name="racute" unicode="&#x155;" horiz-adv-x="614" 
d="M337 273l-3 -101c1 -25 6 -42 15 -52s26 -16 50 -19c-16 -73 -67 -109 -154 -109c-105 0 -158 50 -158 149v225c-17 1 -31 5 -43 11s-21 14 -27 23s-11 20 -15 33s-6 25 -7 35s-1 22 -1 35c38 1 87 6 147 14s103 13 128 15c13 0 24 -2 33 -6s16 -9 21 -15s9 -14 11 -24
s3 -19 3 -26v-28v-41c23 49 47 85 72 107s55 33 90 33c33 0 59 -11 77 -33s27 -51 27 -86c-2 -51 -28 -91 -79 -120c-33 18 -64 27 -94 27c-41 0 -72 -16 -93 -47zM371 681l-164 -132c-21 7 -41 18 -60 34s-28 33 -28 52c0 12 4 23 13 34l145 180c23 -4 45 -13 66 -28
s36 -33 44 -54c6 -14 8 -29 6 -46s-9 -30 -22 -40z" />
    <glyph glyph-name="Rcommaaccent" unicode="&#x156;" horiz-adv-x="712" 
d="M353 208l-1 -38c3 -48 12 -95 27 -140l-53 -13l-56 -14c-12 -3 -26 -6 -42 -9s-28 -4 -36 -4c-17 0 -31 4 -42 12s-19 20 -24 36s-8 32 -10 47s-3 34 -4 57v358c-26 0 -51 -2 -76 -5c-21 31 -32 62 -32 94c0 19 4 35 12 48s19 22 34 27s30 9 44 11s31 3 50 3h218
c117 0 203 -19 258 -58s82 -96 82 -172c0 -97 -30 -161 -90 -192c34 -57 75 -91 123 -102c-2 -57 -17 -98 -45 -124s-63 -39 -106 -39c-14 0 -27 1 -39 3s-22 5 -31 9s-18 9 -26 16s-15 13 -21 18s-12 13 -18 24s-11 20 -14 27s-7 17 -11 30s-7 23 -9 30l-9 32
c-4 14 -7 24 -8 30c-7 -1 -22 -2 -45 -2zM383 345c56 0 84 27 84 82c0 48 -25 72 -75 72h-40v-153c5 -1 15 -1 31 -1zM272 -245v-3c45 21 67 50 67 87c0 11 -4 26 -13 45s-13 33 -13 43c0 24 11 44 33 59s47 23 74 23c37 0 65 -13 84 -38s29 -54 29 -87
c0 -48 -16 -90 -49 -126s-74 -54 -123 -54c-44 0 -74 17 -89 51z" />
    <glyph glyph-name="rcommaaccent" unicode="&#x157;" horiz-adv-x="614" 
d="M337 273l-3 -101c1 -25 6 -42 15 -52s26 -16 50 -19c-16 -73 -67 -109 -154 -109c-105 0 -158 50 -158 149v225c-17 1 -31 5 -43 11s-21 14 -27 23s-11 20 -15 33s-6 25 -7 35s-1 22 -1 35c38 1 87 6 147 14s103 13 128 15c13 0 24 -2 33 -6s16 -9 21 -15s9 -14 11 -24
s3 -19 3 -26v-28v-41c23 49 47 85 72 107s55 33 90 33c33 0 59 -11 77 -33s27 -51 27 -86c-2 -51 -28 -91 -79 -120c-33 18 -64 27 -94 27c-41 0 -72 -16 -93 -47zM106 -283v-3c45 21 67 50 67 87c0 11 -4 26 -13 45s-13 33 -13 43c0 24 11 44 33 59s47 23 74 23
c37 0 65 -13 84 -38s29 -54 29 -87c0 -48 -16 -90 -49 -126s-74 -54 -123 -54c-44 0 -74 17 -89 51z" />
    <glyph glyph-name="Rcaron" unicode="&#x158;" horiz-adv-x="712" 
d="M353 173l-4 31c23 0 38 1 45 2c1 -6 4 -16 8 -30l9 -31c2 -7 5 -17 9 -30s8 -23 11 -30s8 -16 14 -27s12 -19 18 -24s13 -11 21 -18s17 -12 26 -16s20 -7 32 -9s25 -3 39 -3c43 0 79 13 107 39s43 68 45 125c-48 11 -89 45 -123 102c60 31 90 95 90 192
c0 76 -27 134 -82 173s-141 59 -258 59h-218c-19 0 -35 -1 -49 -3s-28 -6 -43 -11s-26 -14 -34 -27s-12 -29 -12 -48c0 -32 11 -63 32 -94c25 3 50 5 76 5v-358c1 -23 2 -42 4 -57s6 -30 11 -46s13 -28 24 -36s25 -12 42 -12c8 0 20 2 36 5s30 6 42 9l56 14l53 14
c-15 45 -24 92 -27 140zM380 344c-16 0 -26 0 -31 1v153h40c50 0 75 -24 75 -72c0 -55 -28 -82 -84 -82zM243 724l-125 158c5 21 17 38 37 50s42 18 65 18c31 0 54 -10 69 -30l47 -87l40 61c9 13 19 31 30 54c30 0 56 -5 78 -15s36 -25 42 -44s-2 -43 -24 -72l-56 -66
c-17 -20 -32 -33 -44 -40s-29 -10 -51 -10c-48 0 -84 8 -108 23z" />
    <glyph glyph-name="rcaron" unicode="&#x159;" horiz-adv-x="614" 
d="M337 173l-2 96c21 31 52 47 93 47c30 0 61 -9 94 -27c51 29 77 69 79 120c0 35 -9 64 -27 86s-43 33 -76 33c-35 0 -65 -11 -90 -33s-49 -58 -72 -107v41v29s-1 16 -3 26s-5 18 -10 24s-12 11 -21 15s-20 6 -33 6c-25 -2 -67 -7 -127 -15s-109 -13 -147 -14
c0 -13 0 -25 1 -35s3 -22 7 -35s9 -24 15 -33s15 -16 27 -22s27 -9 44 -10v-225c0 -99 53 -149 158 -149c87 0 138 36 154 109c-24 3 -40 10 -49 20s-14 28 -15 53zM179 579l-125 158c5 21 17 38 37 50s42 18 65 18c31 0 54 -10 69 -30l47 -87l40 61c9 13 19 31 30 54
c30 0 56 -5 78 -15s36 -25 42 -44s-2 -43 -24 -72l-56 -66c-17 -20 -32 -33 -44 -40s-29 -10 -51 -10c-48 0 -84 8 -108 23z" />
    <glyph glyph-name="Sacute" unicode="&#x15a;" horiz-adv-x="589" 
d="M573 218l-1 -2c-3 -76 -29 -133 -78 -172s-126 -58 -230 -58c-168 0 -252 48 -252 145c0 48 19 84 56 107c24 -19 53 -34 86 -46s66 -18 98 -18c11 0 20 0 27 1s15 2 23 4s14 5 18 10s6 12 6 20c0 11 -7 19 -22 25s-34 11 -56 14s-46 9 -72 17s-50 19 -73 32
s-42 33 -57 61s-23 62 -24 101c0 69 27 124 80 164s130 60 230 60c78 0 138 -12 179 -36s62 -58 62 -102c0 -21 -6 -41 -19 -59s-32 -32 -57 -41c-54 38 -119 57 -195 57c-44 0 -66 -9 -66 -27c0 -11 12 -20 35 -28s51 -16 84 -25s66 -20 99 -34s61 -35 84 -64
s35 -64 35 -106zM429 832l-164 -132c-21 7 -41 18 -60 34s-28 33 -28 52c0 12 4 23 13 34l145 180c23 -4 45 -13 66 -28s36 -33 44 -54c6 -14 8 -29 6 -46s-9 -30 -22 -40z" />
    <glyph glyph-name="sacute" unicode="&#x15b;" horiz-adv-x="592" 
d="M270 362l-4 3c0 -6 10 -12 30 -17l74 -19c29 -7 58 -16 87 -27s54 -28 74 -51s30 -51 30 -83c0 -117 -95 -176 -284 -176c-157 0 -236 40 -236 120c0 20 6 39 17 56s27 30 47 39c54 -34 114 -51 180 -51c21 0 32 6 32 18c0 7 -9 13 -27 17s-40 9 -66 14s-52 12 -78 21
s-48 25 -66 47s-27 50 -27 83c0 55 25 99 74 131s120 48 213 48c73 0 129 -10 168 -30s59 -48 59 -85c0 -19 -7 -37 -21 -54s-35 -30 -64 -39c-19 15 -45 27 -78 37s-65 15 -96 15c-25 0 -38 -6 -38 -17zM465 691l-164 -132c-21 7 -41 18 -60 34s-28 33 -28 52
c0 12 4 23 13 34l145 180c23 -4 45 -13 66 -28s36 -33 44 -54c6 -14 8 -29 6 -46s-9 -30 -22 -40z" />
    <glyph glyph-name="Scircumflex" unicode="&#x15c;" horiz-adv-x="589" 
d="M573 218l-1 -2c-3 -76 -29 -133 -78 -172s-126 -58 -230 -58c-168 0 -252 48 -252 145c0 48 19 84 56 107c24 -19 53 -34 86 -46s66 -18 98 -18c11 0 20 0 27 1s15 2 23 4s14 5 18 10s6 12 6 20c0 11 -7 19 -22 25s-34 11 -56 14s-46 9 -72 17s-50 19 -73 32
s-42 33 -57 61s-23 62 -24 101c0 69 27 124 80 164s130 60 230 60c78 0 138 -12 179 -36s62 -58 62 -102c0 -21 -6 -41 -19 -59s-32 -32 -57 -41c-54 38 -119 57 -195 57c-44 0 -66 -9 -66 -27c0 -11 12 -20 35 -28s51 -16 84 -25s66 -20 99 -34s61 -35 84 -64
s35 -64 35 -106zM384 922l124 -157c-5 -21 -17 -37 -37 -49s-42 -18 -65 -18c-31 0 -54 10 -69 30l-48 83l-38 -61c-9 -13 -19 -31 -30 -54c-30 0 -56 5 -78 15s-36 25 -42 44s2 43 24 72l54 66c16 20 31 34 44 41s31 11 53 11c48 0 84 -8 108 -23z" />
    <glyph glyph-name="scircumflex" unicode="&#x15d;" horiz-adv-x="593" 
d="M270 362l-4 3c0 -6 10 -12 30 -17l74 -19c29 -7 58 -16 87 -27s54 -28 74 -51s30 -51 30 -83c0 -117 -95 -176 -284 -176c-157 0 -236 40 -236 120c0 20 6 39 17 56s27 30 47 39c54 -34 114 -51 180 -51c21 0 32 6 32 18c0 7 -9 13 -27 17s-40 9 -66 14s-52 12 -78 21
s-48 25 -66 47s-27 50 -27 83c0 55 25 99 74 131s120 48 213 48c73 0 129 -10 168 -30s59 -48 59 -85c0 -19 -7 -37 -21 -54s-35 -30 -64 -39c-19 15 -45 27 -78 37s-65 15 -96 15c-25 0 -38 -6 -38 -17zM401 784l124 -157c-5 -21 -17 -37 -37 -49s-42 -18 -65 -18
c-31 0 -54 10 -69 30l-48 83l-38 -61c-9 -13 -19 -31 -30 -54c-30 0 -56 5 -78 15s-36 25 -42 44s2 43 24 72l54 66c16 20 31 34 44 41s31 11 53 11c48 0 84 -8 108 -23z" />
    <glyph glyph-name="Scedilla" unicode="&#x15e;" horiz-adv-x="589" 
d="M573 218l-3 -2c-3 -65 -22 -116 -58 -154s-92 -61 -168 -70l-7 -34c42 -5 75 -19 98 -42s35 -50 35 -82c0 -47 -18 -82 -54 -104s-82 -33 -137 -33c-81 0 -121 30 -121 90c0 23 6 43 19 60c26 -15 61 -22 104 -22c28 0 42 6 42 17c0 7 -6 11 -19 13s-27 3 -43 3
s-30 4 -43 12s-19 21 -19 38c0 7 1 16 3 26l12 54c-135 9 -202 57 -202 143c0 48 19 84 56 107c24 -19 53 -34 86 -46s66 -18 98 -18c11 0 20 0 27 1s15 2 23 4s14 5 18 10s6 12 6 20c0 11 -7 19 -22 25s-34 11 -56 14s-46 9 -72 17s-50 19 -73 32s-42 33 -57 61
s-23 62 -24 101c0 69 27 124 80 164s130 60 230 60c78 0 138 -12 179 -36s62 -58 62 -102c0 -21 -6 -41 -19 -59s-32 -32 -57 -41c-54 38 -119 57 -195 57c-44 0 -66 -9 -66 -27c0 -11 12 -20 35 -28s51 -16 84 -25s66 -20 99 -34s61 -35 84 -64s35 -64 35 -106z" />
    <glyph glyph-name="scedilla" unicode="&#x15f;" horiz-adv-x="592" 
d="M270 362l-5 4c0 -6 10 -12 30 -17l74 -19c29 -7 58 -16 87 -27s54 -28 74 -51s30 -51 30 -83c0 -103 -73 -161 -219 -173l-6 -32c42 -5 75 -19 98 -42s35 -50 35 -82c0 -47 -18 -82 -54 -104s-82 -33 -137 -33c-81 0 -121 30 -121 90c0 23 6 43 19 60
c26 -15 61 -22 104 -22c28 0 42 6 42 17c0 7 -6 11 -19 13s-27 3 -43 3s-30 4 -43 12s-19 21 -19 38c0 7 1 16 3 26l12 55c-114 10 -171 49 -171 117c0 20 6 39 17 56s27 30 47 39c54 -34 114 -51 180 -51c21 0 32 6 32 18c0 7 -9 13 -27 17s-40 9 -66 14s-52 12 -78 21
s-48 25 -66 47s-27 50 -27 83c0 55 25 99 74 131s120 48 213 48c73 0 129 -10 168 -30s59 -48 59 -85c0 -19 -7 -37 -21 -54s-35 -30 -64 -39c-19 15 -45 27 -78 37s-65 15 -96 15c-25 0 -38 -6 -38 -17z" />
    <glyph glyph-name="Scaron" unicode="&#x160;" horiz-adv-x="589" 
d="M573 218l-1 -2c-3 -76 -29 -133 -78 -172s-126 -58 -230 -58c-168 0 -252 48 -252 145c0 48 19 84 56 107c24 -19 53 -34 86 -46s66 -18 98 -18c11 0 20 0 27 1s15 2 23 4s14 5 18 10s6 12 6 20c0 11 -7 19 -22 25s-34 11 -56 14s-46 9 -72 17s-50 19 -73 32
s-42 33 -57 61s-23 62 -24 101c0 69 27 124 80 164s130 60 230 60c78 0 138 -12 179 -36s62 -58 62 -102c0 -21 -6 -41 -19 -59s-32 -32 -57 -41c-54 38 -119 57 -195 57c-44 0 -66 -9 -66 -27c0 -11 12 -20 35 -28s51 -16 84 -25s66 -20 99 -34s61 -35 84 -64
s35 -64 35 -106zM195 729l-125 158c5 21 17 38 37 50s42 18 65 18c31 0 54 -10 69 -30l47 -87l40 61c9 13 19 31 30 54c30 0 56 -5 78 -15s36 -25 42 -44s-2 -43 -24 -72l-56 -66c-17 -20 -32 -33 -44 -40s-29 -10 -51 -10c-48 0 -84 8 -108 23z" />
    <glyph glyph-name="scaron" unicode="&#x161;" horiz-adv-x="592" 
d="M270 362l-4 3c0 -6 10 -12 30 -17l74 -19c29 -7 58 -16 87 -27s54 -28 74 -51s30 -51 30 -83c0 -117 -95 -176 -284 -176c-157 0 -236 40 -236 120c0 20 6 39 17 56s27 30 47 39c54 -34 114 -51 180 -51c21 0 32 6 32 18c0 7 -9 13 -27 17s-40 9 -66 14s-52 12 -78 21
s-48 25 -66 47s-27 50 -27 83c0 55 25 99 74 131s120 48 213 48c73 0 129 -10 168 -30s59 -48 59 -85c0 -19 -7 -37 -21 -54s-35 -30 -64 -39c-19 15 -45 27 -78 37s-65 15 -96 15c-25 0 -38 -6 -38 -17zM229 591l-125 158c5 21 17 38 37 50s42 18 65 18c31 0 54 -10 69 -30
l47 -87l40 61c9 13 19 31 30 54c30 0 56 -5 78 -15s36 -25 42 -44s-2 -43 -24 -72l-56 -66c-17 -20 -32 -33 -44 -40s-29 -10 -51 -10c-48 0 -84 8 -108 23z" />
    <glyph glyph-name="Tcommaaccent" unicode="&#x162;" horiz-adv-x="637" 
d="M428 439l2 -267c3 -51 12 -98 27 -141c-109 -27 -172 -41 -188 -41c-17 0 -31 4 -42 12s-19 20 -24 36s-8 32 -10 47s-3 34 -4 57v322c-7 1 -17 1 -30 1c-45 0 -88 -11 -129 -33c-29 51 -43 96 -43 135c0 40 11 69 33 87s62 27 119 27c27 0 77 -2 151 -6s124 -6 150 -6
c51 0 98 8 141 24c29 -50 44 -92 44 -127c0 -37 -12 -65 -35 -84s-66 -28 -129 -28h-22c-7 -1 -11 -6 -11 -15zM193 -278v-2c45 21 67 50 67 87c0 12 -4 27 -13 45s-13 32 -13 42c0 24 11 44 33 59s47 23 74 23c37 0 65 -13 84 -38s29 -54 29 -87c0 -48 -16 -90 -49 -126
s-74 -54 -123 -54c-44 0 -74 17 -89 51z" />
    <glyph glyph-name="tcommaaccent" unicode="&#x163;" horiz-adv-x="473" 
d="M295 561l-1 -27c42 0 85 7 129 22c2 -13 6 -31 11 -54s10 -43 14 -60s6 -30 6 -39c0 -37 -30 -55 -90 -55h-69v-66c0 -85 43 -131 130 -139c-5 -57 -22 -96 -52 -118s-71 -33 -124 -33c-25 0 -48 4 -70 12s-43 20 -63 36s-36 39 -48 69s-18 65 -19 104v306
c-3 47 -11 86 -24 118c106 27 172 40 197 40c49 0 73 -39 73 -116zM123 -275v-2c45 21 67 50 67 87c0 12 -4 27 -13 45s-13 32 -13 42c0 24 11 44 33 59s47 23 74 23c37 0 65 -13 84 -38s29 -54 29 -87c0 -48 -16 -90 -49 -126s-74 -54 -123 -54c-44 0 -74 17 -89 51z" />
    <glyph glyph-name="Tcaron" unicode="&#x164;" horiz-adv-x="637" 
d="M428 173l-3 265c0 9 4 14 11 15h22c63 0 106 10 129 29s35 47 35 84c0 35 -15 77 -44 127c-43 -16 -90 -24 -141 -24c-26 0 -76 2 -150 6s-124 6 -151 6c-57 0 -97 -9 -119 -27s-33 -47 -33 -87c0 -39 14 -84 43 -135c41 22 84 33 129 33c13 0 23 0 30 -1v-322
c1 -23 2 -42 4 -57s6 -30 11 -46s13 -28 24 -36s25 -12 42 -12c16 0 79 14 188 41c-15 43 -24 90 -27 141zM219 728l-125 158c5 21 17 38 37 50s42 18 65 18c31 0 54 -10 69 -30l47 -87l40 61c9 13 19 31 30 54c30 0 56 -5 78 -15s36 -25 42 -44s-2 -43 -24 -72l-56 -66
c-17 -20 -32 -33 -44 -40s-29 -10 -51 -10c-48 0 -84 8 -108 23z" />
    <glyph glyph-name="tcaron" unicode="&#x165;" horiz-adv-x="709" 
d="M295 532l-2 26c0 77 -24 116 -73 116c-25 0 -91 -13 -197 -40c13 -32 21 -71 24 -118v-306c1 -39 7 -73 19 -103s28 -53 48 -69s41 -28 63 -36s46 -12 71 -12c53 0 95 11 125 33s47 61 52 118c-87 8 -130 54 -130 139v66h51c60 0 90 18 90 55c0 9 -2 22 -6 39
s-8 37 -13 60s-9 41 -11 54c-44 -15 -81 -22 -111 -22zM453 421v-3c45 21 67 50 67 87c0 11 -4 26 -13 45s-13 33 -13 43c0 24 11 44 33 59s47 23 74 23c37 0 65 -13 84 -38s29 -54 29 -87c0 -48 -16 -90 -49 -126s-74 -54 -123 -54c-44 0 -74 17 -89 51z" />
    <glyph glyph-name="Utilde" unicode="&#x168;" horiz-adv-x="736" 
d="M721 289l-6 239c-1 23 -2 42 -4 57s-5 31 -10 47s-13 28 -24 36s-25 12 -42 12c-15 0 -77 -14 -186 -41c15 -43 24 -90 27 -141v-237c0 -59 -23 -89 -69 -89c-47 0 -70 30 -70 89v290v36s-1 20 -4 33s-6 23 -10 30s-11 13 -20 19s-20 9 -33 9c-21 -2 -48 -5 -80 -9
s-62 -8 -90 -11s-58 -5 -90 -7c-2 -11 -3 -23 -3 -35c0 -33 8 -62 23 -87s38 -40 69 -45v-196c0 -52 7 -97 20 -135s30 -67 50 -88s45 -37 75 -49s57 -20 82 -23s53 -5 84 -5s59 2 84 5s52 11 82 23s55 28 75 49s37 51 50 89s20 83 20 135zM617 814v-2
c0 -31 -10 -55 -31 -71s-49 -24 -84 -24c-18 0 -45 3 -80 8s-61 8 -78 8c-37 0 -62 -13 -75 -38c-25 3 -45 12 -61 28s-24 36 -24 60c0 60 35 91 105 94c21 0 52 -3 93 -8s68 -8 80 -8c35 0 58 14 69 42c26 -3 47 -12 62 -28s23 -36 24 -61z" />
    <glyph glyph-name="utilde" unicode="&#x169;" horiz-adv-x="711" 
d="M423 384l-1 -119c0 -31 -5 -56 -15 -74s-22 -27 -37 -27c-23 0 -35 14 -35 42v223v29s-1 16 -3 26s-5 18 -10 24s-12 11 -21 15s-20 6 -33 6c-25 -2 -67 -7 -127 -15s-109 -13 -147 -14c0 -13 0 -25 1 -35s3 -22 7 -35s9 -24 15 -33s15 -16 27 -22s27 -9 44 -10v-187
c0 -65 14 -113 41 -144s64 -46 111 -46c41 0 76 11 105 32s55 55 78 102v-11c1 -18 2 -33 4 -44s5 -23 10 -36s12 -23 22 -29s23 -9 39 -9c10 0 26 2 48 6s49 10 81 17l71 16c-14 35 -22 71 -25 108v275c-1 14 -2 26 -3 35s-3 19 -6 30s-7 20 -12 27s-12 13 -21 18
s-20 7 -33 7c-17 0 -83 -13 -199 -40c13 -35 21 -71 24 -108zM578 677v-2c0 -31 -10 -55 -31 -71s-49 -24 -84 -24c-18 0 -45 3 -80 8s-61 8 -78 8c-37 0 -62 -13 -75 -38c-25 3 -45 12 -61 28s-24 36 -24 60c0 60 35 91 105 94c21 0 52 -3 93 -8s68 -8 80 -8
c35 0 58 14 69 42c26 -3 47 -12 62 -28s23 -36 24 -61z" />
    <glyph glyph-name="Umacron" unicode="&#x16a;" horiz-adv-x="736" 
d="M721 527l1 -243c0 -52 -7 -97 -20 -135s-29 -67 -49 -88s-45 -37 -75 -49s-57 -20 -82 -23s-53 -5 -84 -5s-59 2 -84 5s-52 11 -82 23s-55 28 -75 49s-37 51 -50 89s-20 83 -20 135v196c-31 5 -54 20 -69 45s-22 54 -22 87c0 12 1 24 3 35c32 2 62 5 90 8s58 7 90 11
s59 7 80 9c13 0 24 -3 33 -9s16 -12 20 -19s8 -17 11 -30s5 -24 5 -33v-36v-290c0 -59 23 -89 70 -89c46 0 69 30 69 89v237c-3 51 -12 98 -27 141c109 27 171 41 186 41c17 0 31 -4 42 -12s19 -20 24 -36s9 -31 11 -46s3 -34 4 -57zM521 847l-3 2c27 0 48 3 63 9
c14 -23 21 -47 21 -72s-7 -45 -22 -60s-36 -23 -64 -24c-19 0 -55 2 -108 5s-84 5 -92 5c-27 0 -48 -3 -63 -9c-14 25 -21 49 -21 72c0 25 8 45 24 60s39 22 69 22c17 0 52 -2 105 -5s83 -5 91 -5z" />
    <glyph glyph-name="umacron" unicode="&#x16b;" horiz-adv-x="711" 
d="M423 268l-3 114c-3 37 -11 73 -24 108c116 27 182 40 199 40c13 0 24 -2 33 -7s16 -11 21 -18s9 -16 12 -27s5 -21 6 -30s2 -20 3 -34v-275c3 -37 11 -73 25 -108l-71 -16c-32 -7 -59 -13 -81 -17s-38 -6 -48 -6c-16 0 -29 3 -39 9s-17 16 -22 29s-8 25 -10 36
s-3 26 -4 44v11c-23 -47 -49 -81 -78 -102s-64 -32 -105 -32c-47 0 -84 16 -111 47s-40 79 -40 144v187c-17 1 -31 5 -43 11s-21 14 -27 23s-11 20 -15 33s-6 25 -7 35s-1 22 -1 35c38 1 87 6 147 14s103 13 128 15c13 0 24 -2 33 -6s16 -9 21 -15s9 -14 11 -24s3 -19 3 -26
v-28v-223c0 -28 12 -42 35 -42c15 0 27 9 37 27s15 43 15 74zM472 716l-3 2c27 0 48 3 63 9c14 -23 21 -47 21 -72s-7 -45 -22 -60s-36 -23 -64 -24c-19 0 -55 2 -108 5s-84 5 -92 5c-27 0 -48 -3 -63 -9c-14 25 -21 49 -21 72c0 25 8 45 24 60s39 22 69 22
c17 0 52 -2 105 -5s83 -5 91 -5z" />
    <glyph glyph-name="Ubreve" unicode="&#x16c;" horiz-adv-x="736" 
d="M721 289l-6 239c-1 23 -2 42 -4 57s-5 31 -10 47s-13 28 -24 36s-25 12 -42 12c-15 0 -77 -14 -186 -41c15 -43 24 -90 27 -141v-237c0 -59 -23 -89 -69 -89c-47 0 -70 30 -70 89v290v36s-1 20 -4 33s-6 23 -10 30s-11 13 -20 19s-20 9 -33 9c-21 -2 -48 -5 -80 -9
s-62 -8 -90 -11s-58 -5 -90 -7c-2 -11 -3 -23 -3 -35c0 -33 8 -62 23 -87s38 -40 69 -45v-196c0 -52 7 -97 20 -135s30 -67 50 -88s45 -37 75 -49s57 -20 82 -23s53 -5 84 -5s59 2 84 5s52 11 82 23s55 28 75 49s37 51 50 89s20 83 20 135zM400 687l1 -1
c-58 1 -105 14 -142 39s-55 55 -55 91c0 22 7 41 21 57s36 25 65 28c32 -40 69 -60 110 -60s78 20 111 60c29 -3 51 -12 65 -28s21 -35 21 -56c0 -36 -18 -66 -55 -91s-84 -38 -142 -39z" />
    <glyph glyph-name="ubreve" unicode="&#x16d;" horiz-adv-x="711" 
d="M423 384l-1 -119c0 -31 -5 -56 -15 -74s-22 -27 -37 -27c-23 0 -35 14 -35 42v223v29s-1 16 -3 26s-5 18 -10 24s-12 11 -21 15s-20 6 -33 6c-25 -2 -67 -7 -127 -15s-109 -13 -147 -14c0 -13 0 -25 1 -35s3 -22 7 -35s9 -24 15 -33s15 -16 27 -22s27 -9 44 -10v-187
c0 -65 14 -113 41 -144s64 -46 111 -46c41 0 76 11 105 32s55 55 78 102v-11c1 -18 2 -33 4 -44s5 -23 10 -36s12 -23 22 -29s23 -9 39 -9c10 0 26 2 48 6s49 10 81 17l71 16c-14 35 -22 71 -25 108v275c-1 14 -2 26 -3 35s-3 19 -6 30s-7 20 -12 27s-12 13 -21 18
s-20 7 -33 7c-17 0 -83 -13 -199 -40c13 -35 21 -71 24 -108zM372 546l1 -1c-58 1 -105 14 -142 39s-55 55 -55 91c0 22 7 41 21 57s36 25 65 28c32 -40 69 -60 110 -60s78 20 111 60c29 -3 51 -12 65 -28s21 -35 21 -56c0 -36 -18 -66 -55 -91s-84 -38 -142 -39z" />
    <glyph glyph-name="Uring" unicode="&#x16e;" horiz-adv-x="736" 
d="M721 289l-6 239c-1 23 -2 42 -4 57s-5 31 -10 47s-13 28 -24 36s-25 12 -42 12c-15 0 -77 -14 -186 -41c15 -43 24 -90 27 -141v-237c0 -59 -23 -89 -69 -89c-47 0 -70 30 -70 89v290v36s-1 20 -4 33s-6 23 -10 30s-11 13 -20 19s-20 9 -33 9c-21 -2 -48 -5 -80 -9
s-62 -8 -90 -11s-58 -5 -90 -7c-2 -11 -3 -23 -3 -35c0 -33 8 -62 23 -87s38 -40 69 -45v-196c0 -52 7 -97 20 -135s30 -67 50 -88s45 -37 75 -49s57 -20 82 -23s53 -5 84 -5s59 2 84 5s52 11 82 23s55 28 75 49s37 51 50 89s20 83 20 135zM426 929l2 -1
c43 0 77 -10 102 -31s37 -51 37 -91s-13 -72 -39 -95s-64 -35 -114 -35c-48 0 -84 11 -109 32s-37 50 -37 87s14 69 41 95s66 39 117 39zM456 802l-1 -2c0 24 -11 36 -32 36c-9 0 -17 -3 -24 -10s-11 -16 -11 -28c0 -24 11 -36 34 -36c9 0 17 4 24 11s10 17 10 29z" />
    <glyph glyph-name="uring" unicode="&#x16f;" horiz-adv-x="711" 
d="M423 384l-1 -119c0 -31 -5 -56 -15 -74s-22 -27 -37 -27c-23 0 -35 14 -35 42v223v29s-1 16 -3 26s-5 18 -10 24s-12 11 -21 15s-20 6 -33 6c-25 -2 -67 -7 -127 -15s-109 -13 -147 -14c0 -13 0 -25 1 -35s3 -22 7 -35s9 -24 15 -33s15 -16 27 -22s27 -9 44 -10v-187
c0 -65 14 -113 41 -144s64 -46 111 -46c41 0 76 11 105 32s55 55 78 102v-11c1 -18 2 -33 4 -44s5 -23 10 -36s12 -23 22 -29s23 -9 39 -9c10 0 26 2 48 6s49 10 81 17l71 16c-14 35 -22 71 -25 108v275c-1 14 -2 26 -3 35s-3 19 -6 30s-7 20 -12 27s-12 13 -21 18
s-20 7 -33 7c-17 0 -83 -13 -199 -40c13 -35 21 -71 24 -108zM394 796l2 -1c43 0 77 -10 102 -31s37 -51 37 -91s-13 -72 -39 -95s-64 -35 -114 -35c-48 0 -84 11 -109 32s-37 50 -37 87s14 69 41 95s66 39 117 39zM424 669l-1 -2c0 24 -11 36 -32 36c-9 0 -17 -3 -24 -10
s-11 -16 -11 -28c0 -24 11 -36 34 -36c9 0 17 4 24 11s10 17 10 29z" />
    <glyph glyph-name="Uhungarumlaut" unicode="&#x170;" horiz-adv-x="736" 
d="M721 527l1 -243c0 -52 -7 -97 -20 -135s-29 -67 -49 -88s-45 -37 -75 -49s-57 -20 -82 -23s-53 -5 -84 -5s-59 2 -84 5s-52 11 -82 23s-55 28 -75 49s-37 51 -50 89s-20 83 -20 135v196c-31 5 -54 20 -69 45s-22 54 -22 87c0 12 1 24 3 35c32 2 62 5 90 8s58 7 90 11
s59 7 80 9c13 0 24 -3 33 -9s16 -12 20 -19s8 -17 11 -30s5 -24 5 -33v-36v-290c0 -59 23 -89 70 -89c46 0 69 30 69 89v237c-3 51 -12 98 -27 141c109 27 171 41 186 41c17 0 31 -4 42 -12s19 -20 24 -36s9 -31 11 -46s3 -34 4 -57zM421 818l-165 -129
c-51 17 -77 43 -77 78c0 12 5 24 14 35l145 179c50 -7 84 -32 101 -75c13 -39 7 -68 -18 -88zM660 819l-165 -129c-20 7 -38 17 -53 30s-23 29 -23 48c0 12 4 24 13 35l145 179c50 -7 84 -32 101 -75c13 -39 7 -68 -18 -88z" />
    <glyph glyph-name="uhungarumlaut" unicode="&#x171;" horiz-adv-x="711" 
d="M423 268l-3 114c-3 37 -11 73 -24 108c116 27 182 40 199 40c13 0 24 -2 33 -7s16 -11 21 -18s9 -16 12 -27s5 -21 6 -30s2 -20 3 -34v-275c3 -37 11 -73 25 -108l-71 -16c-32 -7 -59 -13 -81 -17s-38 -6 -48 -6c-16 0 -29 3 -39 9s-17 16 -22 29s-8 25 -10 36
s-3 26 -4 44v11c-23 -47 -49 -81 -78 -102s-64 -32 -105 -32c-47 0 -84 16 -111 47s-40 79 -40 144v187c-17 1 -31 5 -43 11s-21 14 -27 23s-11 20 -15 33s-6 25 -7 35s-1 22 -1 35c38 1 87 6 147 14s103 13 128 15c13 0 24 -2 33 -6s16 -9 21 -15s9 -14 11 -24s3 -19 3 -26
v-28v-223c0 -28 12 -42 35 -42c15 0 27 9 37 27s15 43 15 74zM369 676l-165 -129c-51 17 -77 43 -77 78c0 12 5 24 14 35l145 179c50 -7 84 -32 101 -75c13 -39 7 -68 -18 -88zM608 677l-165 -129c-20 7 -38 17 -53 30s-23 29 -23 48c0 12 4 24 13 35l145 179
c50 -7 84 -32 101 -75c13 -39 7 -68 -18 -88z" />
    <glyph glyph-name="Uogonek" unicode="&#x172;" horiz-adv-x="736" 
d="M551 -154l-1 -2c0 -31 -12 -55 -37 -73s-60 -27 -106 -27c-39 0 -69 10 -91 30s-33 46 -33 78c0 49 24 94 71 135c-27 2 -51 6 -73 12s-45 16 -68 30s-42 32 -58 53s-29 49 -39 84s-15 75 -15 120v196c-31 5 -54 20 -69 45s-22 54 -22 87c0 12 1 24 3 35c32 2 62 5 90 8
s58 7 90 11s59 7 80 9c13 0 24 -3 33 -9s16 -12 20 -19s8 -17 11 -30s5 -24 5 -33v-36v-290c0 -59 23 -89 70 -89c46 0 69 30 69 89v237c-3 51 -12 98 -27 141c109 27 171 41 186 41c17 0 31 -4 42 -12s19 -20 24 -36s9 -31 11 -46s3 -34 4 -57v-238
c0 -162 -64 -258 -192 -289c-23 -6 -40 -14 -52 -24s-18 -24 -18 -43c0 -11 3 -20 10 -28s16 -12 28 -12c13 0 25 2 36 6c12 -19 18 -37 18 -54z" />
    <glyph glyph-name="uogonek" unicode="&#x173;" horiz-adv-x="722" 
d="M433 268l-2 116c-3 37 -11 73 -24 108c116 27 182 40 199 40c13 0 24 -2 33 -7s16 -11 21 -18s9 -16 12 -27s5 -21 6 -30s2 -20 3 -34v-275c3 -37 12 -74 27 -111c-62 -19 -93 -52 -93 -100c0 -25 12 -37 37 -37c14 0 26 2 37 6c12 -19 18 -37 18 -54
c0 -31 -12 -55 -37 -73s-60 -27 -106 -27c-39 0 -69 10 -91 30s-33 46 -33 78c0 51 24 97 73 138h-5c-16 0 -29 3 -39 9s-17 16 -22 29s-8 25 -10 36s-3 26 -4 44v11c-23 -47 -49 -81 -78 -102s-64 -32 -105 -32c-47 0 -84 16 -111 47s-40 79 -40 144v187
c-21 1 -39 6 -54 15s-26 21 -33 36s-12 29 -15 43s-4 29 -4 44c38 1 89 6 153 14s108 13 132 15c13 0 24 -2 33 -6s16 -9 21 -15s9 -14 11 -24s3 -19 3 -26v-28v-223c0 -28 12 -42 35 -42c15 0 27 9 37 27s15 43 15 74z" />
    <glyph glyph-name="wcircumflex" unicode="&#x175;" horiz-adv-x="888" 
d="M598 467h-1c21 -13 32 -38 32 -75c0 -13 -2 -28 -6 -46s-7 -33 -10 -45s-8 -27 -14 -45l-11 -33l-46 152c-7 23 -16 40 -26 51s-24 17 -43 17h-54c-19 0 -33 -5 -42 -15s-18 -27 -27 -52l-48 -136c-5 52 -10 94 -16 126s-15 62 -28 90s-30 48 -52 60s-50 18 -83 18
c-86 0 -133 -44 -140 -132c25 0 45 -19 59 -57s26 -87 36 -147s18 -98 23 -114c21 -64 69 -96 144 -96c37 0 84 9 141 27c-3 11 -4 23 -4 37c0 19 3 36 8 52l47 150l35 -159c19 -71 68 -107 147 -107c38 0 85 9 142 27c-3 15 -5 25 -5 29c0 28 9 64 27 107l55 135
c18 46 27 87 27 122c0 41 -13 72 -39 93s-58 31 -96 31c-29 0 -56 -6 -81 -17s-42 -27 -51 -48zM518 731l124 -157c-5 -21 -17 -37 -37 -49s-42 -18 -65 -18c-31 0 -54 10 -69 30l-48 83l-38 -61c-9 -13 -19 -31 -30 -54c-30 0 -56 5 -78 15s-36 25 -42 44s2 43 24 72l54 66
c16 20 31 34 44 41s31 11 53 11c48 0 84 -8 108 -23z" />
    <glyph glyph-name="Ycircumflex" unicode="&#x176;" horiz-adv-x="689" 
d="M144 679l-3 -3c-41 0 -74 -9 -100 -28s-42 -52 -49 -100c30 0 61 -28 92 -85l96 -194c11 -23 17 -47 17 -73v-55c1 -23 2 -42 4 -57s6 -30 11 -46s13 -28 24 -36s25 -12 42 -12s79 13 187 40c-14 39 -21 78 -21 117c0 21 5 42 16 63c14 26 35 56 62 90l74 88
c22 25 41 53 58 84s25 61 25 89c0 33 -11 61 -33 83s-54 33 -96 33c-57 0 -99 -21 -126 -62c11 -14 17 -31 17 -52c0 -14 -3 -30 -9 -48s-12 -32 -17 -43s-13 -26 -24 -46s-17 -31 -18 -34c-15 41 -27 73 -37 96s-22 49 -37 77s-29 49 -43 63s-30 26 -49 36s-40 15 -63 15z
M430 904l124 -157c-5 -21 -17 -37 -37 -49s-42 -18 -65 -18c-31 0 -54 10 -69 30l-48 83l-38 -61c-9 -13 -19 -31 -30 -54c-30 0 -56 5 -78 15s-36 25 -42 44s2 43 24 72l54 66c16 20 31 34 44 41s31 11 53 11c48 0 84 -8 108 -23z" />
    <glyph glyph-name="ycircumflex" unicode="&#x177;" horiz-adv-x="688" 
d="M425 127l-1 -7c0 -18 -1 -36 -3 -53s-6 -35 -12 -55s-13 -37 -22 -51s-21 -26 -37 -36s-34 -15 -55 -15c-33 0 -60 10 -82 29c-39 -19 -59 -52 -59 -98c0 -40 15 -73 46 -100s74 -40 129 -40c47 0 89 8 126 23s67 37 91 65s44 60 60 95s29 76 38 122s15 91 18 134
s5 91 5 143v128c-1 14 -2 26 -3 35s-3 19 -6 30s-7 20 -12 27s-12 13 -21 18s-20 7 -33 7s-77 -13 -193 -40c13 -33 21 -69 24 -108v-116c0 -31 -5 -55 -15 -73s-23 -27 -38 -27c-23 0 -35 14 -35 42v223v29s-1 16 -3 26s-5 18 -10 24s-12 11 -21 15s-20 6 -33 6
c-25 -2 -67 -7 -127 -15s-109 -13 -147 -14c0 -13 0 -25 1 -35s3 -22 7 -35s9 -24 15 -33s15 -16 27 -22s27 -9 44 -10v-187c0 -127 51 -191 152 -191c41 0 76 11 105 32s56 57 80 108zM449 780l124 -157c-5 -21 -17 -37 -37 -49s-42 -18 -65 -18c-31 0 -54 10 -69 30
l-48 83l-38 -61c-9 -13 -19 -31 -30 -54c-30 0 -56 5 -78 15s-36 25 -42 44s2 43 24 72l54 66c16 20 31 34 44 41s31 11 53 11c48 0 84 -8 108 -23z" />
    <glyph glyph-name="Ydieresis" unicode="&#x178;" horiz-adv-x="689" 
d="M144 679l-3 -3c-41 0 -74 -9 -100 -28s-42 -52 -49 -100c30 0 61 -28 92 -85l96 -194c11 -23 17 -47 17 -73v-55c1 -23 2 -42 4 -57s6 -30 11 -46s13 -28 24 -36s25 -12 42 -12s79 13 187 40c-14 39 -21 78 -21 117c0 21 5 42 16 63c14 26 35 56 62 90l74 88
c22 25 41 53 58 84s25 61 25 89c0 33 -11 61 -33 83s-54 33 -96 33c-57 0 -99 -21 -126 -62c11 -14 17 -31 17 -52c0 -14 -3 -30 -9 -48s-12 -32 -17 -43s-13 -26 -24 -46s-17 -31 -18 -34c-15 41 -27 73 -37 96s-22 49 -37 77s-29 49 -43 63s-30 26 -49 36s-40 15 -63 15z
M218 698c-33 0 -58 8 -75 24s-25 37 -25 64s11 51 32 72s50 32 86 32c33 0 58 -8 75 -23s25 -36 25 -63s-11 -51 -32 -73s-50 -33 -86 -33zM470 698c-33 0 -58 8 -75 24s-25 37 -25 64s11 51 32 72s50 32 86 32c33 0 58 -8 75 -23s25 -36 25 -63s-11 -51 -32 -73
s-50 -33 -86 -33z" />
    <glyph glyph-name="Zacute" unicode="&#x179;" horiz-adv-x="618" 
d="M486 360l-202 -149c13 -1 47 -6 101 -15s96 -14 125 -14c30 0 58 4 85 12c19 -32 29 -66 29 -103c0 -38 -13 -69 -39 -93s-62 -36 -109 -36c-44 0 -106 9 -186 27s-138 27 -175 27c-26 0 -46 -4 -60 -11c-29 31 -43 68 -43 111c0 55 21 100 64 135l291 215h-181
c-48 0 -92 -7 -132 -20l-7 19l-7 19l-6 16c-3 7 -5 12 -6 15l-4 14c-2 6 -3 11 -4 15s-2 8 -3 13s-1 9 -1 13c0 35 14 63 41 84s69 31 126 31l255 -13c73 0 119 4 138 11c21 -36 31 -79 31 -128c0 -27 -6 -53 -19 -78s-26 -45 -40 -60s-35 -34 -62 -57zM456 833l-164 -132
c-21 7 -41 18 -60 34s-28 33 -28 52c0 12 4 23 13 34l145 180c23 -4 45 -13 66 -28s36 -33 44 -54c6 -14 8 -29 6 -46s-9 -30 -22 -40z" />
    <glyph glyph-name="zacute" unicode="&#x17a;" horiz-adv-x="601" 
d="M94 205l241 133h-153c-41 0 -80 -5 -117 -16c-26 53 -39 88 -39 105c0 69 52 103 156 103l231 -11h23h21h17c8 0 14 0 17 1s7 2 13 3s11 2 14 3l12 4c4 1 8 3 12 5c23 -41 34 -80 34 -117c0 -18 -3 -34 -8 -48s-14 -27 -26 -39s-23 -22 -33 -30s-25 -18 -44 -30l-142 -78
c10 0 30 -1 59 -2s51 -2 66 -2c40 0 78 4 113 11c23 -48 35 -86 35 -114c0 -63 -46 -94 -139 -94c-34 0 -82 1 -144 4s-106 4 -133 4c-43 0 -77 -2 -102 -6c-25 41 -38 78 -38 112c0 41 18 74 54 99zM449 685l-164 -132c-21 7 -41 18 -60 34s-28 33 -28 52c0 12 4 23 13 34
l145 180c23 -4 45 -13 66 -28s36 -33 44 -54c6 -14 8 -29 6 -46s-9 -30 -22 -40z" />
    <glyph glyph-name="Zdotaccent" unicode="&#x17b;" horiz-adv-x="618" 
d="M288 210l194 145c27 23 48 42 62 57s28 35 41 60s19 51 19 78c0 49 -10 92 -31 128c-19 -7 -65 -11 -138 -11l-255 13c-57 0 -99 -10 -126 -31s-40 -49 -40 -84c0 -4 0 -8 1 -13s2 -9 3 -13s2 -9 4 -15l4 -13c1 -3 3 -8 6 -15l7 -15l8 -18l8 -18c40 13 84 20 132 20h181
l-291 -215c-43 -35 -64 -80 -64 -135c0 -43 14 -80 43 -111c14 7 34 11 60 11c37 0 96 -9 176 -27s142 -27 186 -27c47 0 83 12 109 36s39 55 39 93c0 37 -10 71 -29 103c-27 -8 -55 -12 -85 -12c-29 0 -70 5 -124 14s-87 14 -100 15zM327 703l-1 -1c-37 0 -65 9 -84 27
s-28 42 -28 72c0 32 12 60 36 84s56 36 97 36c37 0 65 -9 84 -27s29 -42 29 -72c0 -31 -12 -59 -36 -83s-56 -36 -97 -36z" />
    <glyph glyph-name="zdotaccent" unicode="&#x17c;" horiz-adv-x="601" 
d="M339 340l-246 -134c-36 -25 -54 -58 -54 -99c0 -34 13 -71 38 -112c25 4 59 6 102 6c27 0 71 -1 133 -4s110 -4 144 -4c93 0 139 31 139 94c0 28 -12 66 -35 114c-35 -7 -73 -11 -113 -11c-15 0 -37 1 -66 2s-49 2 -59 2l142 78c19 12 34 22 44 30s21 18 33 30
s21 25 26 39s8 30 8 48c0 37 -11 76 -34 117c-4 -2 -8 -4 -12 -5l-11 -3c-3 -1 -7 -2 -13 -3s-10 -2 -13 -3s-8 -1 -16 -1h-16h-21h-22l-231 11c-104 0 -156 -34 -156 -103c0 -17 13 -52 39 -105c37 11 76 16 117 16h153zM318 564l-1 -1c-37 0 -65 9 -84 27s-28 42 -28 72
c0 32 12 60 36 84s56 36 97 36c37 0 65 -9 84 -27s29 -42 29 -72c0 -31 -12 -59 -36 -83s-56 -36 -97 -36z" />
    <glyph glyph-name="Zcaron" unicode="&#x17d;" horiz-adv-x="618" 
d="M288 210l194 145c27 23 48 42 62 57s28 35 41 60s19 51 19 78c0 49 -10 92 -31 128c-19 -7 -65 -11 -138 -11l-255 13c-57 0 -99 -10 -126 -31s-40 -49 -40 -84c0 -4 0 -8 1 -13s2 -9 3 -13s2 -9 4 -15l4 -13c1 -3 3 -8 6 -15l7 -15l8 -18l8 -18c40 13 84 20 132 20h181
l-291 -215c-43 -35 -64 -80 -64 -135c0 -43 14 -80 43 -111c14 7 34 11 60 11c37 0 96 -9 176 -27s142 -27 186 -27c47 0 83 12 109 36s39 55 39 93c0 37 -10 71 -29 103c-27 -8 -55 -12 -85 -12c-29 0 -70 5 -124 14s-87 14 -100 15zM241 717l-125 158c5 21 17 38 37 50
s42 18 65 18c31 0 54 -10 69 -30l47 -87l40 61c9 13 19 31 30 54c30 0 56 -5 78 -15s36 -25 42 -44s-2 -43 -24 -72l-56 -66c-17 -20 -32 -33 -44 -40s-29 -10 -51 -10c-48 0 -84 8 -108 23z" />
    <glyph glyph-name="zcaron" unicode="&#x17e;" horiz-adv-x="601" 
d="M339 340l-246 -134c-36 -25 -54 -58 -54 -99c0 -34 13 -71 38 -112c25 4 59 6 102 6c27 0 71 -1 133 -4s110 -4 144 -4c93 0 139 31 139 94c0 28 -12 66 -35 114c-35 -7 -73 -11 -113 -11c-15 0 -37 1 -66 2s-49 2 -59 2l142 78c19 12 34 22 44 30s21 18 33 30
s21 25 26 39s8 30 8 48c0 37 -11 76 -34 117c-4 -2 -8 -4 -12 -5l-11 -3c-3 -1 -7 -2 -13 -3s-10 -2 -13 -3s-8 -1 -16 -1h-16h-21h-22l-231 11c-104 0 -156 -34 -156 -103c0 -17 13 -52 39 -105c37 11 76 16 117 16h153zM230 592l-125 158c5 21 17 38 37 50s42 18 65 18
c31 0 54 -10 69 -30l47 -87l40 61c9 13 19 31 30 54c30 0 56 -5 78 -15s36 -25 42 -44s-2 -43 -24 -72l-56 -66c-17 -20 -32 -33 -44 -40s-29 -10 -51 -10c-48 0 -84 8 -108 23z" />
    <glyph glyph-name="florin" unicode="&#x192;" horiz-adv-x="490" 
d="M346 341l-33 -272c-4 -35 -10 -69 -19 -101s-21 -64 -37 -97s-34 -61 -55 -85s-47 -43 -78 -58s-66 -22 -104 -22c-39 0 -70 10 -93 31s-34 47 -34 79c0 21 6 43 19 66c11 -7 23 -10 36 -10c15 0 28 3 40 9s22 16 30 29s15 26 21 39s11 30 15 50s7 37 9 50s4 30 7 51
l31 251l-80 -10c-9 24 -14 47 -14 70c0 74 38 111 113 111h25c-1 6 -1 15 -1 26c0 67 21 119 63 155s97 54 166 54c38 0 70 -8 95 -25s38 -43 38 -78c0 -19 -6 -41 -17 -67c-13 2 -25 3 -37 3c-52 0 -85 -23 -98 -68l140 10c6 -20 9 -41 9 -62c0 -37 -11 -68 -33 -93
s-54 -38 -96 -38c-1 0 -10 1 -28 2z" />
    <glyph glyph-name="AEacute" unicode="&#x1fc;" horiz-adv-x="937" 
d="M664 177l128 -4c37 0 72 4 105 13c21 -28 31 -62 31 -102c0 -20 -4 -36 -12 -49s-19 -22 -34 -27s-28 -8 -40 -9s-27 -2 -46 -2h-270c-36 0 -63 7 -82 21s-28 43 -28 86v13h-163l-52 -120h-110c-24 0 -41 7 -51 21s-14 30 -12 48s8 36 17 55l142 303c14 30 29 56 45 79
c-31 -1 -55 -3 -73 -5c-15 27 -22 56 -22 87c0 61 48 91 145 91h506c44 0 79 3 105 10c21 -28 31 -61 31 -99c0 -20 -4 -36 -12 -49s-19 -22 -34 -27s-28 -8 -40 -9s-27 -2 -46 -2h-143v-63c0 -7 1 -12 3 -14s6 -3 12 -3h180c9 -22 13 -44 13 -67c0 -63 -42 -94 -125 -94
h-83v-65c0 -7 1 -12 3 -14s6 -3 12 -3zM335 265h79v233l-91 -216c-3 -11 1 -17 12 -17zM657 845l-164 -132c-21 7 -41 18 -60 34s-28 33 -28 52c0 12 4 23 13 34l145 180c23 -4 45 -13 66 -28s36 -33 44 -54c6 -14 8 -29 6 -46s-9 -30 -22 -40z" />
    <glyph glyph-name="aeacute" unicode="&#x1fd;" horiz-adv-x="930" 
d="M10 148h4c0 39 12 72 35 98s51 44 84 54s71 15 113 15c40 0 77 -5 111 -16c-3 43 -35 64 -95 64c-70 0 -122 -14 -157 -43c-35 20 -52 49 -52 88c0 38 23 68 70 90s110 33 189 33c92 0 155 -23 188 -70c38 47 97 70 177 70c66 0 123 -15 171 -45s72 -72 72 -125
c0 -27 -7 -50 -22 -70s-35 -35 -61 -46s-53 -19 -82 -24s-60 -7 -93 -7c-25 0 -52 3 -80 8c9 -31 44 -47 105 -47c65 0 120 14 164 43c14 -9 25 -22 33 -40s12 -35 12 -52c0 -46 -24 -80 -72 -103s-108 -34 -180 -34c-64 0 -116 8 -156 23s-71 44 -94 86
c-17 -37 -43 -64 -79 -82s-75 -27 -118 -27c-53 0 -97 14 -133 42s-54 67 -54 117zM252 167v2c0 -14 4 -25 12 -33s19 -12 32 -12c39 0 59 27 61 81c-1 15 -2 26 -2 34c-25 -1 -48 -7 -70 -18s-33 -29 -33 -54zM592 291l-1 -2c40 1 70 7 90 18s30 25 30 43
c0 24 -13 36 -40 36c-26 0 -45 -9 -58 -27s-20 -41 -21 -68zM668 663l-164 -132c-21 7 -41 18 -60 34s-28 33 -28 52c0 12 4 23 13 34l145 180c23 -4 45 -13 66 -28s36 -33 44 -54c6 -14 8 -29 6 -46s-9 -30 -22 -40z" />
    <glyph glyph-name="Scommaaccent" unicode="&#x218;" horiz-adv-x="589" 
d="M159 -289l1 -3c45 21 67 50 67 87c0 12 -4 27 -13 46s-13 33 -13 42c0 24 11 44 33 59s46 23 73 23c37 0 65 -13 84 -38s29 -54 29 -87c0 -48 -16 -90 -49 -126s-74 -54 -123 -54c-44 0 -74 17 -89 51zM574 215l-1 -2c-3 -76 -29 -133 -78 -172s-126 -58 -230 -58
c-168 0 -252 48 -252 145c0 48 19 84 56 107c24 -19 53 -34 86 -46s66 -18 98 -18c11 0 20 0 27 1s15 2 23 4s14 5 18 10s6 12 6 20c0 11 -7 19 -22 25s-34 11 -56 14s-46 9 -72 17s-50 19 -73 32s-42 33 -57 61s-23 62 -24 101c0 69 27 124 80 164s130 60 230 60
c78 0 138 -12 179 -36s62 -58 62 -102c0 -21 -6 -41 -19 -59s-32 -32 -57 -41c-54 38 -119 57 -195 57c-44 0 -66 -9 -66 -27c0 -11 12 -20 35 -28s51 -16 84 -25s66 -20 99 -34s61 -35 84 -64s35 -64 35 -106z" />
    <glyph glyph-name="scommaaccent" unicode="&#x219;" horiz-adv-x="592" 
d="M270 362l-4 3c0 -6 10 -12 30 -17l74 -19c29 -7 58 -16 87 -27s54 -28 74 -51s30 -51 30 -83c0 -117 -95 -176 -284 -176c-157 0 -236 40 -236 120c0 20 6 39 17 56s27 30 47 39c54 -34 114 -51 180 -51c21 0 32 6 32 18c0 7 -9 13 -27 17s-40 9 -66 14s-52 12 -78 21
s-48 25 -66 47s-27 50 -27 83c0 55 25 99 74 131s120 48 213 48c73 0 129 -10 168 -30s59 -48 59 -85c0 -19 -7 -37 -21 -54s-35 -30 -64 -39c-19 15 -45 27 -78 37s-65 15 -96 15c-25 0 -38 -6 -38 -17zM156 -289v-3c45 21 67 50 67 87c0 11 -4 26 -13 45s-13 33 -13 43
c0 24 11 44 33 59s47 23 74 23c37 0 65 -13 84 -38s29 -54 29 -87c0 -48 -16 -90 -49 -126s-74 -54 -123 -54c-44 0 -74 17 -89 51z" />
    <glyph glyph-name="circumflex" unicode="&#x2c6;" horiz-adv-x="464" 
d="M341 685l124 -157c-5 -21 -17 -37 -37 -49s-42 -18 -65 -18c-31 0 -54 10 -69 30l-48 83l-38 -61c-9 -13 -19 -31 -30 -54c-30 0 -56 5 -78 15s-36 25 -42 44s2 43 24 72l54 66c16 20 31 34 44 41s31 11 53 11c48 0 84 -8 108 -23z" />
    <glyph glyph-name="caron" unicode="&#x2c7;" horiz-adv-x="464" 
d="M130 482l-125 158c5 21 17 38 37 50s42 18 65 18c31 0 54 -10 69 -30l47 -87l40 61c9 13 19 31 30 54c30 0 56 -5 78 -15s36 -25 42 -44s-2 -43 -24 -72l-56 -66c-17 -20 -32 -33 -44 -40s-29 -10 -51 -10c-48 0 -84 8 -108 23z" />
    <glyph glyph-name="breve" unicode="&#x2d8;" horiz-adv-x="420" 
d="M210 479l1 -1c-58 1 -105 14 -142 39s-55 55 -55 91c0 22 7 41 21 57s36 25 65 28c32 -40 69 -60 110 -60s78 20 111 60c29 -3 51 -12 65 -28s21 -35 21 -56c0 -36 -18 -66 -55 -91s-84 -38 -142 -39z" />
    <glyph glyph-name="dotaccent" unicode="&#x2d9;" horiz-adv-x="270" 
d="M124 490l-1 -1c-37 0 -65 9 -84 27s-28 42 -28 72c0 32 12 60 36 84s56 36 97 36c37 0 65 -9 84 -27s29 -42 29 -72c0 -31 -12 -59 -36 -83s-56 -36 -97 -36z" />
    <glyph glyph-name="ring" unicode="&#x2da;" horiz-adv-x="323" 
d="M171 732l2 -1c43 0 77 -10 102 -31s37 -51 37 -91s-13 -72 -39 -95s-64 -35 -114 -35c-48 0 -84 11 -109 32s-37 50 -37 87s14 69 41 95s66 39 117 39zM201 605l-1 -2c0 24 -11 36 -32 36c-9 0 -17 -3 -24 -10s-11 -16 -11 -28c0 -24 11 -36 34 -36c9 0 17 4 24 11
s10 17 10 29z" />
    <glyph glyph-name="ogonek" unicode="&#x2db;" horiz-adv-x="287" 
d="M278 -154v2c0 -31 -12 -55 -37 -73s-60 -27 -106 -27c-39 0 -69 10 -91 30s-33 46 -33 78c0 66 42 124 127 175l87 -24c-10 -8 -19 -19 -27 -34s-12 -29 -12 -42c0 -25 12 -37 37 -37c14 0 26 2 37 6c12 -19 18 -37 18 -54z" />
    <glyph glyph-name="tilde" unicode="&#x2dc;" horiz-adv-x="455" 
d="M443 618v-2c0 -31 -10 -55 -31 -71s-49 -24 -84 -24c-18 0 -45 3 -80 8s-61 8 -78 8c-37 0 -62 -13 -75 -38c-25 3 -45 12 -61 28s-24 36 -24 60c0 60 35 91 105 94c21 0 52 -3 93 -8s68 -8 80 -8c35 0 58 14 69 42c26 -3 47 -12 62 -28s23 -36 24 -61z" />
    <glyph glyph-name="hungarumlaut" unicode="&#x2dd;" horiz-adv-x="530" 
d="M253 619l-165 -129c-51 17 -77 43 -77 78c0 12 5 24 14 35l145 179c50 -7 84 -32 101 -75c13 -39 7 -68 -18 -88zM492 620l-165 -129c-20 7 -38 17 -53 30s-23 29 -23 48c0 12 4 24 13 35l145 179c50 -7 84 -32 101 -75c13 -39 7 -68 -18 -88z" />
    <glyph glyph-name="Delta" unicode="&#x394;" horiz-adv-x="684" 
d="M441 585l231 -501c8 -25 6 -46 -7 -62s-33 -24 -60 -24h-496c-25 0 -45 9 -60 26s-18 37 -8 59l232 500c7 16 15 27 24 33s22 9 39 9h41c17 0 30 -3 39 -8s17 -16 25 -32zM246 141h212l-107 243z" />
    <glyph glyph-name="Delta" unicode="&#x2206;" horiz-adv-x="684" 
d="M441 585l231 -501c8 -25 6 -46 -7 -62s-33 -24 -60 -24h-496c-25 0 -45 9 -60 26s-18 37 -8 59l232 500c7 16 15 27 24 33s22 9 39 9h41c17 0 30 -3 39 -8s17 -16 25 -32zM246 141h212l-107 243z" />
    <glyph glyph-name="afii10023" unicode="&#x401;" horiz-adv-x="639" 
d="M194 716h-1c-36 0 -63 8 -81 23s-27 35 -27 60c0 26 12 49 35 69s54 30 93 30c36 0 63 -7 81 -22s27 -35 27 -60c0 -27 -11 -50 -34 -70s-54 -30 -93 -30zM466 716h-1c-36 0 -63 8 -81 23s-27 35 -27 60c0 26 12 49 35 69s54 30 93 30c36 0 63 -7 81 -22s27 -35 27 -60
c0 -27 -11 -50 -34 -70s-54 -30 -93 -30zM491 177l-127 2c-6 0 -10 1 -12 3s-3 7 -3 14v65h76c83 0 125 31 125 94c0 23 -4 45 -13 67h-173c-6 0 -10 1 -12 3s-3 7 -3 14v63h136c19 0 34 1 46 2s26 4 41 9s26 14 34 27s12 29 12 49c0 38 -10 71 -31 99
c-26 -7 -61 -10 -105 -10h-375c-34 0 -60 -8 -78 -24s-27 -37 -27 -63c0 -32 11 -63 32 -94c25 3 50 5 76 5v-395c0 -43 10 -71 29 -85s47 -21 83 -21h271c19 0 35 1 47 2s26 4 41 9s26 14 34 27s12 29 12 49c0 40 -10 74 -31 102c-33 -9 -68 -13 -105 -13z" />
    <glyph glyph-name="afii10051" unicode="&#x402;" horiz-adv-x="805" 
d="M428 206v-34c3 -57 11 -104 23 -140l-52 -13c-24 -6 -42 -11 -55 -14s-27 -6 -42 -9s-27 -4 -35 -4c-17 0 -31 4 -42 12s-19 20 -24 36s-8 32 -10 47s-3 34 -4 57v330c-7 1 -17 1 -30 1c-45 0 -88 -11 -129 -33c-29 51 -43 93 -43 126c0 40 11 69 33 87s62 27 119 27
c27 0 77 -2 151 -6s124 -6 150 -6c51 0 98 8 141 24c29 -50 44 -92 44 -127c0 -37 -11 -64 -34 -81s-66 -25 -129 -25h-22c-7 -1 -11 -6 -11 -15v-124c21 36 50 63 86 82s74 28 114 28c66 0 118 -20 156 -61s57 -96 57 -165c0 -65 -20 -118 -59 -159s-96 -61 -170 -61
c-46 0 -82 10 -107 30s-38 47 -38 80c0 24 7 49 20 74c23 -6 43 -9 61 -9c47 0 70 20 70 59c0 42 -26 63 -78 63c-26 0 -50 -7 -72 -20s-35 -32 -39 -57z" />
    <glyph glyph-name="afii10052" unicode="&#x403;" horiz-adv-x="623" 
d="M451 453l-97 1c-7 -1 -11 -6 -11 -15v-265c3 -51 12 -98 27 -141c-109 -27 -172 -41 -188 -41c-17 0 -31 4 -42 12s-19 20 -24 36s-8 32 -10 47s-3 34 -4 57v363c-63 11 -94 51 -94 119c0 17 2 35 5 53h416c54 0 102 8 144 25c29 -52 44 -96 44 -133
c0 -39 -12 -68 -35 -88s-67 -30 -131 -30zM402 835l-164 -132c-21 7 -41 18 -60 34s-28 33 -28 52c0 12 4 23 13 34l145 180c23 -4 45 -13 66 -28s36 -33 44 -54c6 -14 8 -29 6 -46s-9 -30 -22 -40z" />
    <glyph glyph-name="afii10053" unicode="&#x404;" horiz-adv-x="636" 
d="M283 424l183 -1c28 0 42 -21 42 -62v-37c0 -41 -14 -62 -42 -62h-188c3 -31 14 -52 33 -63s49 -17 90 -17c95 0 162 16 200 48c24 -21 36 -50 36 -88c0 -33 -7 -61 -22 -83s-36 -38 -63 -48s-53 -16 -78 -19s-54 -5 -87 -5c-126 0 -215 26 -268 78s-79 137 -79 255
c0 39 3 74 9 106s17 64 33 96s37 59 63 81s61 40 105 54s96 21 155 21c41 -1 78 -5 110 -13s60 -22 84 -42s36 -45 36 -76c0 -45 -25 -76 -76 -92c-41 27 -91 41 -150 42c-73 0 -115 -24 -126 -73z" />
    <glyph glyph-name="afii10054" unicode="&#x405;" horiz-adv-x="589" 
d="M573 218l-1 -2c-3 -76 -29 -133 -78 -172s-126 -58 -230 -58c-168 0 -252 48 -252 145c0 48 19 84 56 107c24 -19 53 -34 86 -46s66 -18 98 -18c11 0 20 0 27 1s15 2 23 4s14 5 18 10s6 12 6 20c0 11 -7 19 -22 25s-34 11 -56 14s-46 9 -72 17s-50 19 -73 32
s-42 33 -57 61s-23 62 -24 101c0 69 27 124 80 164s130 60 230 60c78 0 138 -12 179 -36s62 -58 62 -102c0 -21 -6 -41 -19 -59s-32 -32 -57 -41c-54 38 -119 57 -195 57c-44 0 -66 -9 -66 -27c0 -11 12 -20 35 -28s51 -16 84 -25s66 -20 99 -34s61 -35 84 -64
s35 -64 35 -106z" />
    <glyph glyph-name="afii10055" unicode="&#x406;" horiz-adv-x="482" 
d="M135 180l2 333c-26 0 -51 -2 -76 -5c-21 31 -32 59 -32 84c0 26 9 47 27 63s44 24 78 24h197c44 0 79 3 105 10c21 -28 31 -61 31 -99c0 -49 -26 -75 -78 -78c-7 -1 -11 -5 -11 -13v-332c25 0 50 2 75 5c21 -31 32 -61 32 -90c0 -25 -9 -45 -27 -60s-44 -22 -79 -22h-302
c-21 28 -31 58 -31 89c0 49 26 75 78 78c7 1 11 5 11 13z" />
    <glyph glyph-name="afii10056" unicode="&#x407;" horiz-adv-x="482" 
d="M135 180l2 333c-26 0 -51 -2 -76 -5c-21 31 -32 59 -32 84c0 26 9 47 27 63s44 24 78 24h197c44 0 79 3 105 10c21 -28 31 -61 31 -99c0 -49 -26 -75 -78 -78c-7 -1 -11 -5 -11 -13v-332c25 0 50 2 75 5c21 -31 32 -61 32 -90c0 -25 -9 -45 -27 -60s-44 -22 -79 -22h-302
c-21 28 -31 58 -31 89c0 49 26 75 78 78c7 1 11 5 11 13z" />
    <glyph glyph-name="afii10057" unicode="&#x408;" horiz-adv-x="396" 
d="M381 551l-2 -419c0 -41 -4 -78 -12 -112s-21 -65 -38 -93s-40 -50 -69 -66s-63 -24 -102 -24c-42 0 -77 12 -105 37s-42 57 -42 96c0 16 2 31 7 45c11 -1 19 -2 24 -2c35 0 60 11 74 34s22 54 24 94v342c-31 5 -54 20 -69 45s-22 54 -22 87c0 12 1 24 3 35
c32 2 62 5 90 8s58 7 90 11s59 7 80 9c13 0 24 -3 33 -9s16 -12 20 -19s8 -17 11 -30s5 -24 5 -33v-36z" />
    <glyph glyph-name="afii10058" unicode="&#x409;" horiz-adv-x="1030" 
d="M707 527l-2 -115c19 28 45 50 77 65s65 23 99 23c58 0 103 -20 135 -60s48 -91 48 -153c0 -53 -9 -100 -28 -140s-45 -71 -77 -93s-67 -38 -105 -49s-78 -16 -121 -16c-27 0 -51 2 -72 5s-44 10 -70 20s-47 24 -64 42s-32 44 -44 77s-18 72 -18 117v234
c-1 9 -6 14 -15 14h-57c-5 -133 -17 -237 -36 -311s-45 -125 -78 -154s-77 -43 -132 -43c-45 0 -79 13 -102 38s-34 58 -34 99c0 15 1 26 2 33h7c71 0 115 88 132 263c0 3 2 28 6 76c-63 11 -94 53 -94 126c0 17 2 35 5 53h557c17 0 31 -4 42 -12s19 -20 24 -36
s9 -31 11 -46s3 -34 4 -57zM700 337l1 -54c0 -65 21 -97 62 -97c19 0 35 6 47 18s18 28 18 47c0 17 -4 32 -12 44s-19 21 -33 27s-28 10 -41 12s-27 3 -42 3z" />
    <glyph glyph-name="afii10059" unicode="&#x40a;" horiz-adv-x="1047" 
d="M724 527l-2 -117c19 28 45 50 77 65s65 23 99 23c58 0 103 -20 135 -60s48 -91 48 -153c0 -53 -9 -100 -28 -140s-45 -71 -77 -93s-67 -38 -105 -49s-78 -16 -121 -16c-27 0 -51 2 -72 5s-44 10 -70 20s-47 24 -64 42s-31 43 -43 76s-18 71 -19 115h-143v-76
c3 -51 12 -98 27 -141c-109 -27 -172 -41 -188 -41c-17 0 -31 4 -42 12s-19 20 -24 36s-8 32 -10 47s-3 34 -4 57v341c-31 5 -54 20 -69 45s-22 54 -22 87c0 12 1 24 3 35c32 2 62 5 90 8s58 7 90 11s59 7 80 9c13 0 24 -3 33 -9s16 -12 20 -19s8 -17 11 -30s5 -24 5 -33
v-36v-109c0 -7 1 -12 3 -14s6 -3 12 -3h128v74c-3 51 -12 98 -27 141c109 27 172 41 188 41c17 0 31 -4 42 -12s19 -20 24 -36s9 -31 11 -46s3 -34 4 -57zM717 335l1 -54c0 -65 21 -97 62 -97c19 0 35 6 47 18s18 28 18 47c0 17 -4 32 -12 44s-19 21 -33 27s-28 10 -41 12
s-27 3 -42 3z" />
    <glyph glyph-name="afii10060" unicode="&#x40b;" horiz-adv-x="824" 
d="M428 447l2 -135c19 34 43 61 72 82c35 25 77 37 126 37c47 0 85 -16 113 -49s42 -83 42 -150v-59c1 -25 6 -42 15 -52s26 -16 50 -19c-17 -73 -68 -109 -153 -109c-106 0 -159 50 -159 149v70c0 28 -9 42 -28 42c-13 0 -22 -1 -27 -4c-28 -12 -45 -40 -50 -84
c3 -64 10 -109 20 -136c-99 -25 -160 -37 -183 -37c-17 0 -31 4 -42 12s-19 20 -24 36s-8 32 -10 47s-3 34 -4 57v330c-7 1 -17 1 -30 1c-45 0 -88 -11 -129 -33c-29 51 -43 93 -43 126c0 40 11 69 33 87s62 27 119 27c27 0 77 -2 151 -6s124 -6 150 -6c51 0 98 8 141 24
c29 -50 44 -92 44 -127c0 -37 -11 -64 -34 -81s-66 -25 -129 -25h-22c-7 -1 -11 -6 -11 -15z" />
    <glyph glyph-name="afii10061" unicode="&#x40c;" horiz-adv-x="725" 
d="M340 303l-3 -132c3 -51 12 -98 27 -141c-109 -27 -172 -41 -188 -41c-17 0 -31 4 -42 12s-19 20 -24 36s-8 32 -10 47s-3 34 -4 57v341c-31 5 -54 20 -69 45s-22 54 -22 87c0 12 1 24 3 35c32 2 62 5 90 8s58 7 90 11s59 7 80 9c13 0 24 -3 33 -9s16 -12 20 -19
s8 -17 11 -30s5 -24 5 -33v-36v-153h29c33 0 56 12 69 36s20 52 20 83c0 34 -9 68 -27 103c37 39 83 59 138 59c45 0 79 -14 101 -43s33 -63 33 -102c0 -79 -36 -142 -108 -190c18 -48 44 -91 77 -128s66 -59 98 -66c-2 -53 -18 -92 -49 -117s-68 -37 -111 -37
c-31 0 -57 4 -78 12s-41 23 -60 45s-35 53 -49 94s-26 93 -37 157h-43zM553 790l-164 -132c-21 7 -41 18 -60 34s-28 33 -28 52c0 12 4 23 13 34l145 180c23 -4 45 -13 66 -28s36 -33 44 -54c6 -14 8 -29 6 -46s-9 -30 -22 -40z" />
    <glyph glyph-name="afii10062" unicode="&#x40e;" horiz-adv-x="721" 
d="M96 485l-5 -112c0 -71 17 -122 50 -153s75 -46 125 -46c83 0 148 43 195 129v-29c0 -55 -14 -95 -43 -120s-64 -37 -105 -37c-60 0 -103 11 -128 33c-25 -23 -38 -52 -38 -86c0 -39 19 -69 56 -90s91 -31 162 -31c222 0 333 114 333 342v243c-1 23 -2 42 -4 57
s-5 31 -10 47s-13 28 -24 36s-25 12 -42 12c-8 0 -19 -1 -34 -4s-29 -6 -42 -9s-31 -8 -54 -14s-41 -10 -53 -13c15 -43 24 -90 27 -141v-73c-25 -44 -53 -66 -84 -66s-46 19 -46 57v135v36s-1 20 -4 33s-6 23 -10 30s-11 13 -20 19s-20 9 -33 9c-21 -2 -47 -5 -79 -9
s-62 -8 -90 -11s-58 -5 -89 -7c-2 -11 -3 -23 -3 -35c0 -33 8 -62 23 -87s38 -40 69 -45zM387 690l1 -1c-58 1 -105 14 -142 39s-55 55 -55 91c0 22 7 41 21 57s36 25 65 28c32 -40 69 -60 110 -60s78 20 111 60c29 -3 51 -12 65 -28s21 -35 21 -56c0 -36 -18 -66 -55 -91
s-84 -38 -142 -39z" />
    <glyph glyph-name="afii10145" unicode="&#x40f;" horiz-adv-x="757" 
d="M311 0l-102 -6c-36 0 -63 7 -82 21s-28 43 -28 86v378c-31 5 -54 20 -69 45s-22 54 -22 87c0 12 1 24 3 35c32 2 62 5 90 8s58 7 90 11s59 7 80 9c13 0 24 -3 33 -9s16 -12 20 -19s8 -17 11 -30s5 -24 5 -33v-36v-357c0 -7 1 -12 3 -14s6 -3 12 -3h128v322
c-3 51 -12 98 -27 141c109 27 173 41 191 41c17 0 31 -4 42 -12s19 -20 24 -36s9 -31 11 -46s3 -34 4 -57v-420c0 -43 -9 -71 -28 -85s-46 -21 -82 -21h-90c-8 0 -13 -4 -16 -13l-31 -118c-9 -34 -24 -51 -45 -51h-47c-21 0 -36 17 -45 51z" />
    <glyph glyph-name="afii10017" unicode="&#x410;" horiz-adv-x="670" 
d="M210 505l-1 -3c-31 -1 -55 -3 -73 -5c-17 35 -25 66 -25 94c0 57 46 85 139 85h180c34 0 61 -7 80 -21s35 -39 47 -74l148 -445c13 -42 27 -78 42 -109c-77 -25 -133 -37 -168 -37c-24 0 -43 7 -58 20s-28 36 -39 69l-13 40h-219l-46 -120h-110c-24 0 -41 7 -52 21
s-16 30 -15 48s6 36 14 55l127 303c15 34 29 60 42 79zM368 430l-57 -147c-3 -11 1 -17 12 -17h96z" />
    <glyph glyph-name="afii10018" unicode="&#x411;" horiz-adv-x="652" 
d="M115 106v391c-26 0 -51 -2 -76 -5c-21 31 -32 62 -32 94c0 26 9 47 27 63s44 24 78 24h391c44 0 79 3 105 10c21 -28 31 -64 31 -109c0 -20 -4 -36 -12 -49s-19 -22 -34 -27s-28 -8 -40 -9s-27 -2 -46 -2h-154v-74c36 11 74 16 114 16c73 0 127 -19 162 -57
s53 -86 53 -145c0 -25 -3 -48 -9 -69s-14 -39 -24 -54s-23 -29 -40 -41s-33 -22 -48 -29s-34 -13 -58 -19s-44 -10 -60 -12s-37 -4 -64 -6s-47 -3 -60 -3h-57c-19 0 -35 1 -47 2s-25 4 -39 8s-25 10 -33 18s-15 19 -20 33s-8 31 -8 51zM381 300h-27v-148c9 -1 14 -2 15 -2
c28 0 49 7 64 21s22 31 22 51c0 49 -25 75 -74 78z" />
    <glyph glyph-name="afii10019" unicode="&#x412;" horiz-adv-x="679" 
d="M393 502h-40v-114h34c49 0 73 21 73 62c0 35 -22 52 -67 52zM266 -3l-1 -3c-25 0 -45 1 -60 3s-30 6 -46 13s-27 18 -34 33s-11 35 -11 60v396c-26 0 -51 -2 -76 -5c-21 31 -32 62 -32 94c0 19 4 35 12 48s19 22 34 27s30 9 44 11s31 3 50 3h235c191 0 286 -59 286 -176
c0 -29 -7 -56 -21 -80s-34 -42 -61 -54c39 -9 69 -27 89 -54s30 -59 30 -95c0 -30 -6 -57 -17 -81s-25 -43 -42 -58s-39 -28 -66 -39s-52 -19 -75 -25s-51 -10 -84 -13s-60 -5 -80 -5h-74zM398 272h-45v-118c9 -1 20 -2 33 -2c57 0 86 21 86 63c0 38 -25 57 -74 57z" />
    <glyph glyph-name="afii10020" unicode="&#x413;" horiz-adv-x="623" 
d="M451 453l-97 1c-7 -1 -11 -6 -11 -15v-265c3 -51 12 -98 27 -141c-109 -27 -172 -41 -188 -41c-17 0 -31 4 -42 12s-19 20 -24 36s-8 32 -10 47s-3 34 -4 57v363c-63 11 -94 51 -94 119c0 17 2 35 5 53h416c54 0 102 8 144 25c29 -52 44 -96 44 -133
c0 -39 -12 -68 -35 -88s-67 -30 -131 -30z" />
    <glyph glyph-name="afii10021" unicode="&#x414;" horiz-adv-x="766" 
d="M790 84l-2 -109c0 -38 5 -71 15 -99c-73 -19 -117 -28 -133 -28c-31 0 -52 11 -64 33s-18 52 -18 90v28h-357c-7 0 -11 -5 -11 -16v-9c0 -37 5 -69 15 -97c-73 -19 -117 -28 -133 -28c-31 0 -52 11 -64 33s-18 52 -18 90v112c0 56 21 84 64 84h11c29 30 52 77 69 140
s28 129 33 198c-63 11 -94 51 -94 119c0 17 2 35 5 53h527c17 0 31 -4 42 -12s19 -20 24 -36s9 -31 11 -46s3 -34 4 -57v-359h10c43 0 64 -28 64 -84zM302 166h156c5 0 9 1 11 4s3 8 3 15v320h-71c-7 0 -11 -4 -12 -12c-11 -169 -40 -278 -87 -327z" />
    <glyph glyph-name="afii10022" unicode="&#x415;" horiz-adv-x="639" 
d="M370 177l122 -3c37 0 72 4 105 13c21 -28 31 -62 31 -102c0 -20 -4 -36 -12 -49s-19 -22 -34 -27s-28 -8 -40 -9s-27 -2 -46 -2h-271c-36 0 -63 7 -82 21s-28 43 -28 86v395c-26 0 -51 -2 -76 -5c-21 31 -32 62 -32 94c0 26 9 47 27 63s44 24 78 24h375c44 0 79 3 105 10
c21 -28 31 -61 31 -99c0 -20 -4 -36 -12 -49s-19 -22 -34 -27s-28 -8 -40 -9s-27 -2 -46 -2h-136v-63c0 -7 1 -12 3 -14s6 -3 12 -3h173c9 -22 13 -44 13 -67c0 -63 -42 -94 -125 -94h-76v-65c0 -7 1 -12 3 -14s6 -3 12 -3z" />
    <glyph glyph-name="afii10024" unicode="&#x416;" horiz-adv-x="1005" 
d="M316 127l4 -3c0 -34 5 -65 15 -93c-35 -35 -83 -53 -144 -53c-44 0 -78 15 -103 44s-37 63 -37 101c0 43 13 84 38 123s59 70 102 94c-15 44 -39 88 -73 132s-65 66 -94 67c4 44 20 78 48 101s58 35 91 35c58 0 106 -23 143 -70s67 -122 90 -225h7v115
c-3 51 -12 98 -27 141c108 27 170 41 187 41c16 0 29 -4 40 -12s19 -20 24 -36s9 -31 11 -46s3 -34 4 -57v-132c26 12 45 32 58 59s19 57 19 90c0 25 -6 54 -17 86c33 33 80 50 141 50c44 0 78 -13 102 -40s36 -58 36 -94c0 -39 -11 -75 -33 -108s-52 -60 -90 -81
c15 -50 40 -99 74 -148s71 -84 111 -105c-14 -37 -36 -65 -66 -85s-62 -30 -95 -30c-62 0 -109 22 -141 65s-63 129 -94 258h-7v-138c3 -49 11 -96 25 -141c-106 -27 -168 -41 -187 -41c-16 0 -29 4 -40 12s-19 20 -24 36s-8 32 -10 47s-3 34 -4 57v154
c-28 -13 -49 -35 -63 -67s-21 -66 -21 -103z" />
    <glyph glyph-name="afii10025" unicode="&#x417;" horiz-adv-x="606" 
d="M283 286l-56 -1c-35 0 -53 18 -53 54v24c0 36 18 54 53 54h55c32 0 48 11 48 34s-20 35 -61 35c-55 0 -113 -14 -174 -41c-41 17 -62 49 -62 95c0 45 22 79 66 102s107 35 189 35c197 0 296 -58 296 -175c0 -35 -9 -66 -28 -93s-48 -46 -88 -57c49 -7 86 -25 110 -54
s36 -64 36 -105c0 -37 -8 -69 -25 -96s-41 -48 -71 -64s-64 -27 -102 -34s-80 -11 -126 -11c-35 0 -68 3 -99 8s-60 14 -88 26s-50 29 -66 51s-24 48 -24 79c0 48 14 83 43 105c23 -15 55 -28 96 -39s80 -16 118 -16c49 0 74 15 74 45c0 26 -20 39 -61 39z" />
    </font>
</defs>
</svg>
